<?xml version="1.0" encoding="us-ascii" standalone="no"?><svg xmlns="http://www.w3.org/2000/svg" xmlns:xlink="http://www.w3.org/1999/xlink" contentStyleType="text/css" height="4779.96px" preserveAspectRatio="none" style="width:1411px;height:4779px;background:#FFFFFF;" version="1.1" viewBox="0 0 1411 4779" width="1411.54px" zoomAndPan="magnify"><defs/><g><!--cluster Agricultural facility app--><g id="cluster_Agricultural facility app"><rect fill="none" height="4772.03" rx="1.525" ry="1.525" style="stroke:#181818;stroke-width:0.61;" width="1297.47" x="110.41" y="4.27"/><text fill="#000000" font-family="sans-serif" font-size="8.54" font-weight="bold" lengthAdjust="spacing" textLength="97.6" x="710.345" y="14.7055">Agricultural facility app</text></g><g id="elem_UC1"><ellipse cx="759.003" cy="2838.4236" fill="#F1F1F1" rx="118.198" ry="25.1036" style="stroke:#181818;stroke-width:0.305;"/><text fill="#000000" font-family="sans-serif" font-size="8.54" lengthAdjust="spacing" textLength="218.38" x="649.813" y="2840.7397">USBD01 - I intend to create a dictionary of data/glossary.</text></g><g id="elem_UC2"><ellipse cx="759.2562" cy="2912.6502" fill="#F1F1F1" rx="130.9562" ry="27.6552" style="stroke:#181818;stroke-width:0.305;"/><text fill="#000000" font-family="sans-serif" font-size="8.54" lengthAdjust="spacing" textLength="244.61" x="636.9512" y="2914.9663">USBD02 - I intend to develop the relational model (logical level).</text></g><g id="elem_UC3"><ellipse cx="759.2633" cy="2992.1347" fill="#F1F1F1" rx="144.0783" ry="30.2797" style="stroke:#181818;stroke-width:0.305;"/><text fill="#000000" font-family="sans-serif" font-size="8.54" lengthAdjust="spacing" textLength="271.45" x="623.5383" y="2994.4508">USBD03 - I want the relational model to be instantiated (physical level).</text></g><g id="elem_UC4"><ellipse cx="759.0704" cy="3079.7531" fill="#F1F1F1" rx="173.4704" ry="36.1581" style="stroke:#181818;stroke-width:0.305;"/><text fill="#000000" font-family="sans-serif" font-size="8.54" lengthAdjust="spacing" textLength="331.23" x="593.4554" y="3082.0692">USBD04 - I want data to be imported from a legacy system, provided in a spreadsheet.</text></g><g id="elem_UC5"><ellipse cx="759.0389" cy="2052.0188" fill="#F1F1F1" rx="236.5739" ry="48.7788" style="stroke:#181818;stroke-width:0.305;"/><text fill="#000000" font-family="sans-serif" font-size="8.54" lengthAdjust="spacing" textLength="458.72" x="529.6789" y="2054.3349">USBD05 - I want to know the quantity of products harvested in a given portion, for each product, in a given time interval.</text></g><g id="elem_UC6"><ellipse cx="759.167" cy="2176.6064" fill="#F1F1F1" rx="263.237" ry="54.1114" style="stroke:#181818;stroke-width:0.305;"/><text fill="#000000" font-family="sans-serif" font-size="8.54" lengthAdjust="spacing" textLength="512.4" x="502.967" y="2178.9225">USBD06 - I want to know the number of protection factors applied to a given portion, for each type of factor, in a given interval of time.</text></g><g id="elem_UC7"><ellipse cx="759.1509" cy="2306.4722" fill="#F1F1F1" rx="265.9659" ry="54.6572" style="stroke:#181818;stroke-width:0.305;"/><text fill="#000000" font-family="sans-serif" font-size="8.54" lengthAdjust="spacing" textLength="517.89" x="500.2059" y="2308.7883">USBD07 - I want to know the number of operations carried out in a given installment, for each type of operation, in a given time interval.</text></g><g id="elem_UC8"><ellipse cx="759.2939" cy="2432.8318" fill="#F1F1F1" rx="243.5389" ry="50.1718" style="stroke:#181818;stroke-width:0.305;"/><text fill="#000000" font-family="sans-serif" font-size="8.54" lengthAdjust="spacing" textLength="472.75" x="522.9189" y="2435.1479">USBD08 - I intend to know the production factor with more applications in the agricultural installation in a given time interval.</text></g><g id="elem_UC9"><ellipse cx="759.0155" cy="2563.8041" fill="#F1F1F1" rx="291.4505" ry="59.7541" style="stroke:#181818;stroke-width:0.305;"/><text fill="#000000" font-family="sans-serif" font-size="8.54" lengthAdjust="spacing" textLength="569.13" x="474.4505" y="2566.1202">USBD09 - I want to know the number of applications of each type of production factor applied in the agricultural installation in a given interval of time.</text></g><g id="elem_UC10"><ellipse cx="759.0872" cy="2685.8184" fill="#F1F1F1" rx="196.9722" ry="40.8584" style="stroke:#181818;stroke-width:0.305;"/><text fill="#000000" font-family="sans-serif" font-size="8.54" lengthAdjust="spacing" textLength="378.81" x="569.6822" y="2688.1345">USBD10 - I intend to know what is the parcel with more irrigation operations in a given time interval.</text></g><g id="elem_UC11"><ellipse cx="759.0603" cy="2769.8711" fill="#F1F1F1" rx="100.2603" ry="21.5161" style="stroke:#181818;stroke-width:0.305;"/><text fill="#000000" font-family="sans-serif" font-size="8.54" lengthAdjust="spacing" textLength="181.17" x="668.4753" y="2772.1871">USBD11 - I want to register a sowing operation.</text></g><g id="elem_UC12"><ellipse cx="759.2517" cy="48.8823" fill="#F1F1F1" rx="102.8917" ry="22.0423" style="stroke:#181818;stroke-width:0.305;"/><text fill="#000000" font-family="sans-serif" font-size="8.54" lengthAdjust="spacing" textLength="186.66" x="665.9217" y="51.1984">USBD12 - I want to register a weeding operation.</text></g><g id="elem_UC13"><ellipse cx="759.0865" cy="115.2783" fill="#F1F1F1" rx="106.9965" ry="22.8633" style="stroke:#181818;stroke-width:0.305;"/><text fill="#000000" font-family="sans-serif" font-size="8.54" lengthAdjust="spacing" textLength="195.2" x="661.4865" y="117.5944">USBD13 - I want to register a harvesting operation.</text></g><g id="elem_UC14"><ellipse cx="759.0339" cy="189.0778" fill="#F1F1F1" rx="140.4939" ry="29.5628" style="stroke:#181818;stroke-width:0.305;"/><text fill="#000000" font-family="sans-serif" font-size="8.54" lengthAdjust="spacing" textLength="264.13" x="626.9689" y="191.3939">USBD14 - I want to register a production factor application operation.</text></g><g id="elem_UC15"><ellipse cx="758.9964" cy="262.1483" fill="#F1F1F1" rx="101.7214" ry="21.8083" style="stroke:#181818;stroke-width:0.305;"/><text fill="#000000" font-family="sans-serif" font-size="8.54" lengthAdjust="spacing" textLength="184.22" x="666.8864" y="264.4644">USBD15 - I want to register a pruning operation.</text></g><g id="elem_UC16"><ellipse cx="759.1309" cy="352.0282" fill="#F1F1F1" rx="224.7709" ry="46.4182" style="stroke:#181818;stroke-width:0.305;"/><text fill="#000000" font-family="sans-serif" font-size="8.54" lengthAdjust="spacing" textLength="434.93" x="541.6659" y="354.3443">USBD16 - I intend to obtain the list of factors collected from a given plot, for each species, in a given time interval.</text></g><g id="elem_UC17"><ellipse cx="759.1423" cy="487.8775" fill="#F1F1F1" rx="333.6673" ry="68.1975" style="stroke:#181818;stroke-width:0.305;"/><text fill="#000000" font-family="sans-serif" font-size="8.54" lengthAdjust="spacing" textLength="653.92" x="432.1823" y="490.1936">USBD17 - I want to obtain a list of production factors applied to a given plot, and their respective quantities, for each type of component substance, in a given time interval.</text></g><g id="elem_UC18"><ellipse cx="759.271" cy="628.8132" fill="#F1F1F1" rx="246.871" ry="50.8382" style="stroke:#181818;stroke-width:0.305;"/><text fill="#000000" font-family="sans-serif" font-size="8.54" lengthAdjust="spacing" textLength="479.46" x="519.541" y="631.1293">USBD18 - I want to obtain the list of operations carried out on a given plot, for each type of operation, in a given time interval.</text></g><g id="elem_UC19"><ellipse cx="759.2728" cy="780.7646" fill="#F1F1F1" rx="389.0028" ry="79.2646" style="stroke:#181818;stroke-width:0.305;"/><text fill="#000000" font-family="sans-serif" font-size="8.54" lengthAdjust="spacing" textLength="764.94" x="376.8028" y="783.0807">USBD19 - I intend to obtain the list of production factor applications applied in the agricultural installation, including the plot and crop (if applicable), by type of production factor, in a given time interval.</text></g><g id="elem_UC20"><ellipse cx="759.2632" cy="919.2936" fill="#F1F1F1" rx="181.8982" ry="37.8436" style="stroke:#181818;stroke-width:0.305;"/><text fill="#000000" font-family="sans-serif" font-size="8.54" lengthAdjust="spacing" textLength="348.31" x="585.1082" y="921.6097">USBD20 - I want to obtain the monthly irrigation totals for each plot, in a given time interval.</text></g><g id="elem_UC21"><ellipse cx="759.1856" cy="3303.7071" fill="#F1F1F1" rx="147.9656" ry="31.0571" style="stroke:#181818;stroke-width:0.305;"/><text fill="#000000" font-family="sans-serif" font-size="8.54" lengthAdjust="spacing" textLength="279.38" x="619.4956" y="3306.0232">USLP01 - I want to the domain model to be developed (conceptual level).</text></g><g id="elem_UC22"><ellipse cx="759.1236" cy="3396.4147" fill="#F1F1F1" rx="193.6536" ry="40.1947" style="stroke:#181818;stroke-width:0.305;"/><text fill="#000000" font-family="sans-serif" font-size="8.54" lengthAdjust="spacing" textLength="372.1" x="573.0736" y="3398.7308">USLP02 - I want to define a functionality that consists of simulating an irrigation system controller.</text></g><g id="elem_UC23"><ellipse cx="759.1997" cy="3523.3099" fill="#F1F1F1" rx="318.7797" ry="65.2199" style="stroke:#181818;stroke-width:0.305;"/><text fill="#000000" font-family="sans-serif" font-size="8.54" lengthAdjust="spacing" textLength="624.03" x="447.1847" y="3525.626">USLP03 - I intend to develop a functionality that allows the irrigation plan generated by the controller simulator developed at UC22 to be automatically compressed.</text></g><g id="elem_UC24"><ellipse cx="759.058" cy="3642.4146" fill="#F1F1F1" rx="154.853" ry="32.4346" style="stroke:#181818;stroke-width:0.305;"/><text fill="#000000" font-family="sans-serif" font-size="8.54" lengthAdjust="spacing" textLength="293.41" x="612.353" y="3644.7307">USLP04 - I intend to develop functionalities that allow the evocation of UC11.</text></g><g id="elem_UC25"><ellipse cx="759.058" cy="3728.4246" fill="#F1F1F1" rx="154.853" ry="32.4346" style="stroke:#181818;stroke-width:0.305;"/><text fill="#000000" font-family="sans-serif" font-size="8.54" lengthAdjust="spacing" textLength="293.41" x="612.353" y="3730.7407">USLP05 - I intend to develop functionalities that allow the evocation of UC12.</text></g><g id="elem_UC26"><ellipse cx="759.058" cy="3814.4346" fill="#F1F1F1" rx="154.853" ry="32.4346" style="stroke:#181818;stroke-width:0.305;"/><text fill="#000000" font-family="sans-serif" font-size="8.54" lengthAdjust="spacing" textLength="293.41" x="612.353" y="3816.7507">USLP06 - I intend to develop functionalities that allow the evocation of UC13.</text></g><g id="elem_UC27"><ellipse cx="759.058" cy="3900.4446" fill="#F1F1F1" rx="154.853" ry="32.4346" style="stroke:#181818;stroke-width:0.305;"/><text fill="#000000" font-family="sans-serif" font-size="8.54" lengthAdjust="spacing" textLength="293.41" x="612.353" y="3902.7607">USLP07 - I intend to develop functionalities that allow the evocation of UC14.</text></g><g id="elem_UC28"><ellipse cx="759.058" cy="3986.4546" fill="#F1F1F1" rx="154.853" ry="32.4346" style="stroke:#181818;stroke-width:0.305;"/><text fill="#000000" font-family="sans-serif" font-size="8.54" lengthAdjust="spacing" textLength="293.41" x="612.353" y="3988.7707">USLP08 - I intend to develop functionalities that allow the evocation of UC15.</text></g><g id="elem_UC29"><ellipse cx="759.2855" cy="4090.7491" fill="#F1F1F1" rx="244.7505" ry="50.4141" style="stroke:#181818;stroke-width:0.305;"/><text fill="#000000" font-family="sans-serif" font-size="8.54" lengthAdjust="spacing" textLength="475.19" x="521.6905" y="4093.0652">USBD21 - I want the relational model to be updated (logical and physical level) in light of new requirements and user stories.</text></g><g id="elem_UC30"><ellipse cx="759.1612" cy="4202.1712" fill="#F1F1F1" rx="190.3362" ry="39.5312" style="stroke:#181818;stroke-width:0.305;"/><text fill="#000000" font-family="sans-serif" font-size="8.54" lengthAdjust="spacing" textLength="365.39" x="576.4662" y="4204.4873">USBD22 - I want updated data from a legacy system to be imported, provided in a spreadsheet.</text></g><g id="elem_UC31"><ellipse cx="759.1835" cy="4289.5277" fill="#F1F1F1" rx="122.3435" ry="25.9327" style="stroke:#181818;stroke-width:0.305;"/><text fill="#000000" font-family="sans-serif" font-size="8.54" lengthAdjust="spacing" textLength="226.92" x="645.7235" y="4291.8438">USBD23 - I want the dictionary to be updated data/glossary</text></g><g id="elem_UC32"><ellipse cx="759.0666" cy="4366.3643" fill="#F1F1F1" rx="139.0016" ry="29.2643" style="stroke:#181818;stroke-width:0.305;"/><text fill="#000000" font-family="sans-serif" font-size="8.54" lengthAdjust="spacing" textLength="261.08" x="628.5266" y="4368.6804">USLP09 - I want the domain model to be updated (conceptual level).</text></g><g id="elem_UC33"><ellipse cx="759.1396" cy="1013.9409" fill="#F1F1F1" rx="168.6596" ry="35.1959" style="stroke:#181818;stroke-width:0.305;"/><text fill="#000000" font-family="sans-serif" font-size="8.54" lengthAdjust="spacing" textLength="321.47" x="598.4046" y="1016.257">USBD24 - I want that all operation related registers record their creation time instant</text></g><g id="elem_UC34"><ellipse cx="759.2091" cy="1101.0628" fill="#F1F1F1" rx="146.7691" ry="30.8178" style="stroke:#181818;stroke-width:0.305;"/><text fill="#000000" font-family="sans-serif" font-size="8.54" lengthAdjust="spacing" textLength="276.94" x="620.7391" y="1103.3789">USBD25 - I want that the operation identification be a sequential number</text></g><g id="elem_UC35"><ellipse cx="759.1875" cy="1219.3375" fill="#F1F1F1" rx="321.8175" ry="65.8275" style="stroke:#181818;stroke-width:0.305;"/><text fill="#000000" font-family="sans-serif" font-size="8.54" lengthAdjust="spacing" textLength="630.13" x="444.1225" y="1221.6536">USBD26 - I want that the creation/change of an operation register should be registered in a log that identifies the instant time, operation type and all the related data</text></g><g id="elem_UC36"><ellipse cx="759.1921" cy="1332.7984" fill="#F1F1F1" rx="122.0471" ry="25.8734" style="stroke:#181818;stroke-width:0.305;"/><text fill="#000000" font-family="sans-serif" font-size="8.54" lengthAdjust="spacing" textLength="226.31" x="646.0371" y="1335.1145">USBD27 - I intend that the logs cannot be changed/deleted</text></g><g id="elem_UC37"><ellipse cx="759.1896" cy="1414.6599" fill="#F1F1F1" rx="165.3546" ry="34.5349" style="stroke:#181818;stroke-width:0.305;"/><text fill="#000000" font-family="sans-serif" font-size="8.54" lengthAdjust="spacing" textLength="314.76" x="601.8096" y="1416.976">USBD28 - I intend that the operations cannot be deleted but they can be canceled</text></g><g id="elem_UC38"><ellipse cx="759.001" cy="1507.8912" fill="#F1F1F1" rx="178.586" ry="37.1812" style="stroke:#181818;stroke-width:0.305;"/><text fill="#000000" font-family="sans-serif" font-size="8.54" lengthAdjust="spacing" textLength="341.6" x="588.201" y="1510.2073">USBD30 - I intend to cancel an operation that didn't take place or was created by mistake</text></g><g id="elem_UC39"><ellipse cx="759.1002" cy="1602.522" fill="#F1F1F1" rx="171.3652" ry="35.737" style="stroke:#181818;stroke-width:0.305;"/><text fill="#000000" font-family="sans-serif" font-size="8.54" lengthAdjust="spacing" textLength="326.96" x="595.6202" y="1604.8381">USBD31 - I want to register an 'fertirrega' operation to be used in watering operations</text></g><g id="elem_UC40"><ellipse cx="758.9971" cy="1702.4194" fill="#F1F1F1" rx="205.7271" ry="42.6094" style="stroke:#181818;stroke-width:0.305;"/><text fill="#000000" font-family="sans-serif" font-size="8.54" lengthAdjust="spacing" textLength="396.5" x="560.7471" y="1704.7355">USBD32 - I want to register an watering operation, that includes an 'fertirrega' component (if applicable)</text></g><g id="elem_UC41"><ellipse cx="759.1966" cy="1805.4883" fill="#F1F1F1" rx="187.3216" ry="38.9283" style="stroke:#181818;stroke-width:0.305;"/><text fill="#000000" font-family="sans-serif" font-size="8.54" lengthAdjust="spacing" textLength="359.29" x="579.5516" y="1807.8044">USBD33 - I want a list of the crops with most water consumption (watering) in a given civil year</text></g><g id="elem_UC42"><ellipse cx="759.0626" cy="1923.8625" fill="#F1F1F1" rx="282.0426" ry="57.8725" style="stroke:#181818;stroke-width:0.305;"/><text fill="#000000" font-family="sans-serif" font-size="8.54" lengthAdjust="spacing" textLength="550.22" x="483.9526" y="1926.1786">USBD34 - I intend to obtain the list of factor substances of production used in other calendar years, but not used in the indicated calendar year.</text></g><g id="elem_UC43"><ellipse cx="759.2035" cy="4731.6597" fill="#F1F1F1" rx="164.4535" ry="34.3547" style="stroke:#181818;stroke-width:0.305;"/><text fill="#000000" font-family="sans-serif" font-size="8.54" lengthAdjust="spacing" textLength="312.93" x="602.7385" y="4733.9758">USEI11 - I want to upload a file with the opening times functioning of a list of hubs.</text></g><g id="elem_UC44"><ellipse cx="759.0964" cy="3194.4383" fill="#F1F1F1" rx="275.6714" ry="56.5983" style="stroke:#181818;stroke-width:0.305;"/><text fill="#000000" font-family="sans-serif" font-size="8.54" lengthAdjust="spacing" textLength="537.41" x="490.3914" y="3196.7544">USLP10 - I want the functionality to be improved which consists of simulating an irrigation system controller previously developed at USLP02.</text></g><g id="elem_UC45"><ellipse cx="759.1681" cy="4546.2736" fill="#F1F1F1" rx="638.9981" ry="129.2636" style="stroke:#181818;stroke-width:0.305;"/><text fill="#000000" font-family="sans-serif" font-size="8.54" lengthAdjust="spacing" textLength="1265.75" x="126.2931" y="4548.5897">USLP11 - I want the functionality to be improved developed at USLP03 which, automatically, consumes the irrigation fertilization plan generated by the controller simulator developed at USLP10 and which in a staggered manner after completion of irrigation and/or fertigation in each sector, record this operation in the field notebook</text></g><!--entity AG--><g id="elem_AG"><ellipse cx="43.615" cy="1354.81" fill="#808080" rx="4.88" ry="4.88" style="stroke:#181818;stroke-width:0.305;"/><path d="M43.615,1359.69 L43.615,1376.16 M35.685,1364.57 L51.545,1364.57 M43.615,1376.16 L35.685,1385.31 M43.615,1376.16 L51.545,1385.31 " fill="none" style="stroke:#181818;stroke-width:0.305;"/><text fill="#000000" font-family="sans-serif" font-size="8.54" lengthAdjust="spacing" textLength="79.91" x="3.66" y="1395.4405">Agricultural Manager</text></g><!--entity PO--><g id="elem_PO"><ellipse cx="43.615" cy="3709.41" fill="#008000" rx="4.88" ry="4.88" style="stroke:#181818;stroke-width:0.305;"/><path d="M43.615,3714.29 L43.615,3730.76 M35.685,3719.17 L51.545,3719.17 M43.615,3730.76 L35.685,3739.91 M43.615,3730.76 L51.545,3739.91 " fill="none" style="stroke:#181818;stroke-width:0.305;"/><text fill="#000000" font-family="sans-serif" font-size="8.54" lengthAdjust="spacing" textLength="57.34" x="14.945" y="3750.0405">Product Owner</text></g><!--link PO to UC1--><g id="link_PO_UC1"><path d="M44.103,3704.0359 C43.676,3570.9583 44.8228,2934.0268 105.53,2874.32 C180.1574,2800.9248 486.0053,2814.5827 651.3153,2827.9661 " fill="none" id="PO-UC1" style="stroke:#181818;stroke-width:0.61;"/></g><!--link PO to UC2--><g id="link_PO_UC2"><path d="M44.286,3704.1945 C44.8594,3578.8029 50.4714,3005.1528 105.53,2951.18 C178.4189,2879.7307 470.8895,2889.6737 638.6517,2901.9286 " fill="none" id="PO-UC2" style="stroke:#181818;stroke-width:0.61;"/></g><!--link PO to UC3--><g id="link_PO_UC3"><path d="M44.53,3704.0725 C46.2502,3586.6475 56.4738,3080.7501 105.53,3032.92 C176.7231,2963.5142 455.914,2969.9192 625.3354,2980.9114 " fill="none" id="PO-UC3" style="stroke:#181818;stroke-width:0.61;"/></g><!--link PO to UC4--><g id="link_PO_UC4"><path d="M44.8899,3704.2189 C48.068,3597.109 63.379,3167.7788 105.53,3126.86 C172.6605,3061.6937 423.4925,3060.919 593.9997,3068.666 " fill="none" id="PO-UC4" style="stroke:#181818;stroke-width:0.61;"/></g><!--link PO to UC21--><g id="link_PO_UC21"><path d="M44.3348,3704.1518 C45.2254,3627.7432 52.3258,3393.6008 105.53,3345.24 C178.242,3279.1465 450.8937,3283.4409 620.0467,3293.1704 " fill="none" id="PO-UC21" style="stroke:#181818;stroke-width:0.61;"/></g><!--link PO to UC22--><g id="link_PO_UC22"><path d="M45.8842,3704.2006 C50.6788,3642.4076 66.7279,3480.9223 105.53,3447.11 C249.9292,3321.2853 487.0057,3339.1156 632.2894,3366.0349 " fill="none" id="PO-UC22" style="stroke:#181818;stroke-width:0.61;"/></g><!--link PO to UC23--><g id="link_PO_UC23"><path d="M48.4157,3703.9871 C54.9671,3673.9995 70.6929,3623.9612 105.53,3599 C208.3882,3525.2998 344.6439,3501.2536 466.0705,3497.6668 " fill="none" id="PO-UC23" style="stroke:#181818;stroke-width:0.61;"/></g><!--link PO to UC24--><g id="link_PO_UC24"><path d="M71.5469,3704.1762 C81.5631,3696.6915 93.4276,3689.2922 105.53,3685.01 C273.5423,3625.5411 480.8569,3622.9242 616.2098,3629.8111 " fill="none" id="PO-UC24" style="stroke:#181818;stroke-width:0.61;"/></g><!--link PO to UC25--><g id="link_PO_UC25"><path d="M72.4497,3728.32 C159.759,3728.32 430.0805,3728.32 604.1989,3728.32 " fill="none" id="PO-UC25" style="stroke:#181818;stroke-width:0.61;"/></g><!--link PO to UC26--><g id="link_PO_UC26"><path d="M72.0532,3752.4577 C81.9779,3759.7167 93.6594,3766.8537 105.53,3771.02 C273.3898,3829.8911 480.1676,3832.9533 615.4839,3826.4507 " fill="none" id="PO-UC26" style="stroke:#181818;stroke-width:0.61;"/></g><!--link PO to UC27--><g id="link_PO_UC27"><path d="M48.2083,3752.5553 C54.5584,3782.6588 70.1012,3832.9838 105.53,3857.03 C269.6993,3968.4465 513.742,3948.0115 652.3035,3923.764 " fill="none" id="PO-UC27" style="stroke:#181818;stroke-width:0.61;"/></g><!--link PO to UC28--><g id="link_PO_UC28"><path d="M47.6105,3752.4821 C55.2782,3803.3744 75.6339,3918.8901 105.53,3943.04 C180.3831,4003.5032 442.0365,4002.9176 610.5368,3995.5976 " fill="none" id="PO-UC28" style="stroke:#181818;stroke-width:0.61;"/></g><!--link AG to UC5--><g id="link_AG_UC5"><path d="M44.8411,1397.937 C47.8362,1507.0599 62.5921,1949.6393 105.53,1992.26 C233.0444,2118.8228 451.4976,2112.0579 600.3132,2088.2557 " fill="none" id="AG-UC5" style="stroke:#181818;stroke-width:0.61;"/></g><!--link AG to UC6--><g id="link_AG_UC6"><path d="M44.4385,1397.9675 C45.7439,1519.5649 54.4059,2059.2258 105.53,2111.21 C224.8643,2232.5512 427.2623,2234.5093 575.1629,2215.093 " fill="none" id="AG-UC6" style="stroke:#181818;stroke-width:0.61;"/></g><!--link AG to UC7--><g id="link_AG_UC7"><path d="M44.1213,1397.9004 C43.7675,1531.8503 45.2132,2179.042 105.53,2241.14 C223.8151,2362.9082 425.6214,2365.0432 573.6501,2345.5537 " fill="none" id="AG-UC7" style="stroke:#181818;stroke-width:0.61;"/></g><!--link AG to UC8--><g id="link_AG_UC8"><path d="M44.8289,1397.9187 C48.6597,1546.9905 70.5404,2335.5619 105.53,2371.68 C229.909,2500.0789 447.3374,2493.9301 596.8972,2469.9754 " fill="none" id="AG-UC8" style="stroke:#181818;stroke-width:0.61;"/></g><!--link AG to UC9--><g id="link_AG_UC9"><path d="M44.6703,1397.9492 C47.7203,1557.4703 66.5083,2451.9133 105.53,2493.07 C215.5679,2609.1286 401.0323,2619.2607 546.2489,2604.6939 " fill="none" id="AG-UC9" style="stroke:#181818;stroke-width:0.61;"/></g><!--link AG to UC10--><g id="link_AG_UC10"><path d="M44.5056,1397.9187 C46.5796,1568.7736 60.8292,2587.8884 105.53,2633.98 C167.8049,2698.1947 400.1295,2703.0686 569.9901,2697.2858 " fill="none" id="AG-UC10" style="stroke:#181818;stroke-width:0.61;"/></g><!--link AG to UC11--><g id="link_AG_UC11"><path d="M44.3958,1397.8821 C45.7866,1576.5877 56.3701,2687.6417 105.53,2737.07 C182.0484,2814.0093 508.4899,2794.3978 668.8772,2779.5382 " fill="none" id="AG-UC11" style="stroke:#181818;stroke-width:0.61;"/></g><!--link AG to UC12--><g id="link_AG_UC12"><path d="M44.4629,1349.4542 C46.2563,1175.8787 59.0053,128.405 105.53,81.74 C181.8166,5.2216 505.7693,24.2963 666.8398,39.101 " fill="none" id="AG-UC12" style="stroke:#181818;stroke-width:0.61;"/></g><!--link AG to UC13--><g id="link_AG_UC13"><path d="M44.5239,1349.381 C46.7321,1180.8685 61.5002,192.9308 105.53,148.84 C181.2371,73.0353 500.2915,90.7741 662.6918,105.3287 " fill="none" id="AG-UC13" style="stroke:#181818;stroke-width:0.61;"/></g><!--link AG to UC14--><g id="link_AG_UC14"><path d="M44.6215,1349.4481 C47.3604,1187.67 64.6539,270.5655 105.53,229.36 C176.1253,158.1974 459.7753,166.0237 629.1479,177.7479 " fill="none" id="AG-UC14" style="stroke:#181818;stroke-width:0.61;"/></g><!--link AG to UC15--><g id="link_AG_UC15"><path d="M44.6886,1349.5884 C47.8179,1193.5992 66.7889,333.0905 105.53,294.63 C182.3107,218.4105 506.8185,237.7719 667.5474,252.6376 " fill="none" id="AG-UC15" style="stroke:#181818;stroke-width:0.61;"/></g><!--link AG to UC16--><g id="link_AG_UC16"><path d="M44.8777,1349.6128 C48.922,1203.6764 71.6018,443.4273 105.53,408.7 C235.2099,275.9762 464.6248,289.3169 614.1053,316.4924 " fill="none" id="AG-UC16" style="stroke:#181818;stroke-width:0.61;"/></g><!--link AG to UC17--><g id="link_AG_UC17"><path d="M44.2799,1349.6006 C44.7862,1221.5738 50.1359,625.2439 105.53,567.3 C202.154,466.2291 355.7215,443.6957 489.6653,447.6973 " fill="none" id="AG-UC17" style="stroke:#181818;stroke-width:0.61;"/></g><!--link AG to UC18--><g id="link_AG_UC18"><path d="M44.6032,1349.5457 C46.6406,1233.603 58.0903,738.1793 105.53,690.52 C229.7992,565.6835 442.311,569.2154 591.0534,591.5658 " fill="none" id="AG-UC18" style="stroke:#181818;stroke-width:0.61;"/></g><!--link AG to UC19--><g id="link_AG_UC19"><path d="M45.4633,1349.5274 C50.5812,1253.8062 71.4676,905.057 105.53,870.47 C181.8654,792.9634 291.5495,760.6578 399.2938,750.666 " fill="none" id="AG-UC19" style="stroke:#181818;stroke-width:0.61;"/></g><!--link AG to UC20--><g id="link_AG_UC20"><path d="M44.1213,1349.5701 C44.3165,1270.2823 49.4527,1020.0725 105.53,968.07 C172.7886,905.6975 414.739,902.5682 584.4044,908.778 " fill="none" id="AG-UC20" style="stroke:#181818;stroke-width:0.61;"/></g><!--link PO to UC29--><g id="link_PO_UC29"><path d="M45.567,3752.6346 C49.6723,3817.4776 64.4038,3992.1084 105.53,4029.05 C233.7093,4144.1936 438.4985,4144.7487 584.5508,4125.9424 " fill="none" id="PO-UC29" style="stroke:#181818;stroke-width:0.61;"/></g><!--link PO to UC30--><g id="link_PO_UC30"><path d="M43.9566,3752.6468 C43.6028,3834.3746 47.0981,4096.9857 105.53,4151.66 C171.3551,4213.2517 406.1563,4217.9731 575.3581,4212.6356 " fill="none" id="PO-UC30" style="stroke:#181818;stroke-width:0.61;"/></g><!--link PO to UC31--><g id="link_PO_UC31"><path d="M45.262,3752.5736 C49.7089,3851.0764 68.6372,4217.5522 105.53,4252.31 C180.9199,4323.3384 480.497,4312.029 646.4414,4299.6643 " fill="none" id="PO-UC31" style="stroke:#181818;stroke-width:0.61;"/></g><!--link PO to UC32--><g id="link_PO_UC32"><path d="M44.896,3752.4638 C48.0924,3859.2687 63.4339,4285.7014 105.53,4326.12 C177.8577,4395.5685 461.038,4388.3705 629.8189,4377.2197 " fill="none" id="PO-UC32" style="stroke:#181818;stroke-width:0.61;"/></g><!--link PO to UC45--><g id="link_PO_UC45"><path d="M44.7435,3752.5736 C47.4275,3867.766 61.3538,4356.1381 105.53,4406.03 C133.2484,4437.3413 166.1213,4462.6075 202.1357,4482.9266 " fill="none" id="PO-UC45" style="stroke:#181818;stroke-width:0.61;"/></g><!--link PO to UC44--><g id="link_PO_UC44"><path d="M45.6646,3704.164 C51.3437,3612.9202 73.4135,3292.8898 105.53,3261.67 C222.3816,3148.0697 412.4454,3140.4447 557.4668,3155.8472 " fill="none" id="PO-UC44" style="stroke:#181818;stroke-width:0.61;"/></g><!--link PO to UC43--><g id="link_PO_UC43"><path d="M44.8838,3752.4882 C48.9403,3897.9427 71.5774,4651.8661 105.53,4686.02 C172.8557,4753.7483 433.2159,4752.2721 604.144,4743.2624 " fill="none" id="PO-UC43" style="stroke:#181818;stroke-width:0.61;"/></g><!--link AG to UC33--><g id="link_AG_UC33"><path d="M45.2803,1349.4908 C48.7268,1282.6409 62.0797,1097.9878 105.53,1059.57 C175.985,997.2768 428.2627,996.4045 597.8244,1003.5781 " fill="none" id="AG-UC33" style="stroke:#181818;stroke-width:0.61;"/></g><!--link AG to UC34--><g id="link_AG_UC34"><path d="M47.0859,1349.5579 C53.9728,1295.7986 73.3586,1168.9491 105.53,1142.53 C181.2249,1080.3771 451.2231,1083.1343 619.4245,1091.5584 " fill="none" id="AG-UC34" style="stroke:#181818;stroke-width:0.61;"/></g><!--link AG to UC35--><g id="link_AG_UC35"><path d="M56.5592,1349.4969 C67.0329,1331.6178 83.814,1308.3768 105.53,1296.25 C206.5643,1239.8311 329.9856,1216.0472 442.2073,1207.8915 " fill="none" id="AG-UC35" style="stroke:#181818;stroke-width:0.61;"/></g><!--link AG to UC36--><g id="link_AG_UC36"><path d="M83.631,1370.8957 C90.9083,1370.3955 98.4479,1369.8953 105.53,1369.45 C292.5133,1357.7014 509.7343,1345.8918 640.5366,1338.9805 " fill="none" id="AG-UC36" style="stroke:#181818;stroke-width:0.61;"/></g><!--link AG to UC37--><g id="link_AG_UC37"><path d="M83.6493,1375.977 C180.0903,1381.4914 432.246,1395.9179 599.5385,1405.4949 " fill="none" id="AG-UC37" style="stroke:#181818;stroke-width:0.61;"/></g><!--link AG to UC38--><g id="link_AG_UC38"><path d="M54.3327,1398.0041 C64.1842,1418.2988 81.2398,1446.0599 105.53,1459.73 C263.3553,1548.5521 477.6361,1545.4838 616.9906,1530.5022 " fill="none" id="AG-UC38" style="stroke:#181818;stroke-width:0.61;"/></g><!--link AG to UC39--><g id="link_AG_UC39"><path d="M44.4507,1397.9126 C46.2685,1437.953 56.2786,1517.3811 105.53,1555.5 C178.9008,1612.2849 424.2428,1615.7497 592.3893,1610.8026 " fill="none" id="AG-UC39" style="stroke:#181818;stroke-width:0.61;"/></g><!--link AG to UC40--><g id="link_AG_UC40"><path d="M46.0367,1397.9797 C51.1119,1458.9065 67.6673,1615.8412 105.53,1648.83 C246.2326,1771.4339 474.7874,1758.9411 620.8031,1734.1507 " fill="none" id="AG-UC40" style="stroke:#181818;stroke-width:0.61;"/></g><!--link AG to UC41--><g id="link_AG_UC41"><path d="M44.3775,1398.0529 C45.3962,1474.4127 52.8565,1707.0911 105.53,1755.58 C172.2213,1816.9704 409.127,1821.2953 578.3654,1815.8236 " fill="none" id="AG-UC41" style="stroke:#181818;stroke-width:0.61;"/></g><!--link AG to UC42--><g id="link_AG_UC42"><path d="M45.567,1397.8333 C50.9655,1490.8278 72.4375,1822.6251 105.53,1855.01 C220.1002,1967.1402 405.8452,1976.8819 549.9943,1962.8824 " fill="none" id="AG-UC42" style="stroke:#181818;stroke-width:0.61;"/></g><!--SRC=[hLZRZjis47tVho3IXsm0fxkws5u_fXS41LfaWI8VG4kqH8Gc5PAouHRzzmv9aH9bgjwawoTH8cSEPuQ7Pyp8GICjaAHDgr5D9Qaq5Vpk3bTQIFJcGoDfrJFTIypG7vZZXiWt22lquIFweP7auYS-Ir7tbKQVpdoOyVp9pY1Wp5Z5l65aPl20AygelY3STM_-laFmwnMfi8A9d__ywPV73Br7lo7ADU6rWLb9WZL1691Qd5XUa3YW6clyq32X5BpuqNh__7EMi9VFxDNaH9Zea6u9aeHXQvEXewW9G_TCDBI28JEptdcxUS9kOUsUCTTfK-1gJy2lWZ1e2bkeqNtNNbJ2V94mNuxcpLQzkMCdf35raE88CM6amTK5gOlIvBX2dHGdMiDdok6ZwY1qjMe9qTvJcV2qdcn4e2zSdEs6llO6jxR1xboc5MgnF16blOU6dWX71XBiV8KEK1K4LwsVlvhEqlH8R1ha2JEFPvt0iqdZuVrnJ-I0HhkQDTK4fQXCCJ5AR7wNKUbBHynwjoW2vt6PpmQenxT9uDlUmYSw8cqjA5HXAGqkqUlO7LG5OqV2TG9VM7yxVji4lgTPmGU4GrR6kA4prIsKgoGkWDM06hoQ-NXwRWV8TiPDM4y9MBjROOiWm3YAoJLsd_9l0RkKvjqrtkmn5SPpYo6HoeKJomhE-HX32hbkdCz92ToALVQOS9v5mPAaeN3ef3dJuanvCzeFLXBKb-LBLiw4r6ap2QRBYYKp0nkaBIL8BIkNB2sajvf5CnXFy5YsNZRUypJ61FracrdUnLxZeSOOM1m914wtO0o8QAJZWNcOc1vhrP6A4dNxC6S9jibYjXd0u03bAd1fBhI8iDbGIwY4u1XG6hvvchS0hvYe4d3VS60ffFgzkSWgye9j94WfUqfjOnhJ1T8KV2city6MMOANijtjVFzdTQeNCv41MB7UdZnB8B0XcvHAWXwvfu42zuoyMw7zPPdzNh3N1AVbZqjPE0gkMtQPKfWM05nDxdGR_bjkyois-_tvCMOpuwyMH-DwgfG6NMPaKYMWq3hTN-kmB64zPhcQ72WtSl7GSwSNhThKXhZ1heAKsjj5qMDlqWAvm7owRwUbp5mjpVcMmNcUS5uigCkaVoW4SNQNnyHXnm10GxWfOzYzIJjC6Frxg928CKPWpI0QOeTx3G7LHbf24isfXHEkI1sW5mdevGBqAN2WXGbq2uoSXAVbWxruWfCouMJzEaxou6ITSB9v7IT5SB99EDc-ZfCoEDacd3ozZfDrS99Wl3nxKUVITxLhMdnBP9Xgri0OEc2sZGI_d9p1rjSU6aeZR9LT09wXWA5s0NK0bQAcoIdsdctVasfqPitG2_gU8Y6oyba7D-alumX4hQOtc6AYtSpWDSc5e2vIN95GOFbKDmsP7-yzbq0mwYMFWgTAI7_PsmRQCheZRDkGUcy9bPQlPzxCNaPl46SG30UlpGpx80LfDszXDqxFU_C9dPPl4kOzneUgnRonTnxcqHO7DQTQqRFQUFMlVDQXJ9qz3v0CJEisR7U_cfYqTwifKHFCS0w6T7ly2O6OnqJWTm3kZNBX7EvqGEVsKJz0wWaOzVOI2Yz_IjgBz92tEbX3-zvEkfXFrfjHPcnqar1WnRoVSMlYC5llDQtvMx2FlnY9WYl00fqY67R_nDWRwWYXX-_UNu9bYgKMXgEt1mAjkOHN-EtKkJiXoYNq3AvafDgLzvQWZo9Vz7PjQ3NKYHLZH5r16bNlJ9FvFr4IP59Co6HKvwwqHQTybmYlBHuhHVfZPpT-xo6-cyghYfueGnU2_M4g4orUKRwqMnaLl9efIXzn0Oi066PW2alh6Ne2Ksgc-lmiTwHgS_pXHJGx_CbqHM6__ZRhQ7jGaxWsAeaoue8p5BtjrCnPLU7IiyaxJCBQmbQ2iuIqoHvZ8fv9CNzvmAK1MpYt5DJjzqb322CvKT4hK5snDhF2D61CAACi-mQCrxOBXtiLIx_LK5VaIcJQ-cRqh_yfELrm3MkwiBdxLkEciKHy1AOof-xWIlpO0LqDgcI21PO_W6KBgGd_qRXUcRZk9bnWL4sl7bT-GErm1K1HahqGNtoCrtTtDihFdz3xz-6_O3_Aer4HZSfuvcnXl3AFb-QpjUjuk8c7stZeMFF3HpTSHwDDDDf6etZTBXeD_oQ5OHOFytXOnCCo7iQ8iXXI5cFAOb1PZ6he2iFETt4sugz5d80YJa0PXxYC4r36Em9v4nxByN4zFcx6n-tu-3G-xi8Zq7vupCR7_EwVVm40]--></g></svg>