<?xml version="1.0" encoding="us-ascii" standalone="no"?><svg xmlns="http://www.w3.org/2000/svg" xmlns:xlink="http://www.w3.org/1999/xlink" contentStyleType="text/css" height="558px" preserveAspectRatio="none" style="width:1653px;height:558px;background:#FFFFFF;" version="1.1" viewBox="0 0 1653 558" width="1653px" zoomAndPan="magnify"><defs/><g><text fill="#000000" font-family="sans-serif" font-size="14" font-weight="bold" lengthAdjust="spacing" textLength="148" x="745.5" y="25.1074">US10 - Domain Model</text><!--class IrrigationSector--><g id="elem_IrrigationSector"><rect codeLine="10" fill="#F1F1F1" height="141.1055" id="IrrigationSector" rx="2.5" ry="2.5" style="stroke:#181818;stroke-width:0.5;" width="128" x="12" y="65.1211"/><ellipse cx="27" cy="81.1211" fill="#C2C2C2" rx="11" ry="11" style="stroke:#181818;stroke-width:1.0;"/><path d="M29.7656,76.9961 Q29.9219,76.7773 30.1094,76.668 Q30.2969,76.5586 30.5156,76.5586 Q30.8906,76.5586 31.125,76.8242 Q31.3594,77.0742 31.3594,77.6836 L31.3594,79.1367 Q31.3594,79.7461 31.125,80.0117 Q30.8906,80.2773 30.5156,80.2773 Q30.1719,80.2773 29.9688,80.0742 Q29.7656,79.8867 29.6563,79.3711 Q29.6094,79.0117 29.4219,78.8242 Q29.0938,78.4492 28.4844,78.2305 Q27.875,78.0117 27.25,78.0117 Q26.4844,78.0117 25.8438,78.3398 Q25.2188,78.668 24.7188,79.418 Q24.2344,80.168 24.2344,81.1992 L24.2344,82.293 Q24.2344,83.5273 25.125,84.3555 Q26.0156,85.168 27.6094,85.168 Q28.5469,85.168 29.2031,84.918 Q29.5938,84.7617 30.0156,84.3242 Q30.2813,84.0586 30.4219,83.9805 Q30.5781,83.9023 30.7813,83.9023 Q31.1094,83.9023 31.3594,84.168 Q31.625,84.418 31.625,84.7617 Q31.625,85.1055 31.2813,85.5117 Q30.7813,86.0898 29.9844,86.418 Q28.9063,86.8711 27.6094,86.8711 Q26.0938,86.8711 24.8906,86.2461 Q23.9063,85.7461 23.2188,84.6836 Q22.5313,83.6055 22.5313,82.3242 L22.5313,81.168 Q22.5313,79.8398 23.1406,78.6992 Q23.7656,77.543 24.8594,76.9336 Q25.9531,76.3086 27.1875,76.3086 Q27.9219,76.3086 28.5625,76.4805 Q29.2188,76.6367 29.7656,76.9961 Z " fill="#000000"/><text fill="#000000" font-family="sans-serif" font-size="14" lengthAdjust="spacing" textLength="96" x="41" y="86.918">IrrigationSector</text><line style="stroke:#181818;stroke-width:0.5;" x1="13" x2="139" y1="97.1211" y2="97.1211"/><text fill="#000000" font-family="sans-serif" font-size="14" lengthAdjust="spacing" textLength="45" x="18" y="116.2285">setorID</text><text fill="#000000" font-family="sans-serif" font-size="14" lengthAdjust="spacing" textLength="58" x="18" y="134.8496">startDate</text><text fill="#000000" font-family="sans-serif" font-size="14" lengthAdjust="spacing" textLength="54" x="18" y="153.4707">endDate</text><text fill="#000000" font-family="sans-serif" font-size="14" lengthAdjust="spacing" textLength="87" x="18" y="172.0918">maximumFlow</text><text fill="#000000" font-family="sans-serif" font-size="14" lengthAdjust="spacing" textLength="78" x="18" y="190.7129">dispersionID</text><line style="stroke:#181818;stroke-width:0.5;" x1="13" x2="139" y1="198.2266" y2="198.2266"/></g><!--class DispersionTypes--><g id="elem_DispersionTypes"><rect codeLine="18" fill="#F1F1F1" height="85.2422" id="DispersionTypes" rx="2.5" ry="2.5" style="stroke:#181818;stroke-width:0.5;" width="138" x="7" y="303.1211"/><ellipse cx="22" cy="319.1211" fill="#C2C2C2" rx="11" ry="11" style="stroke:#181818;stroke-width:1.0;"/><path d="M24.7656,314.9961 Q24.9219,314.7773 25.1094,314.668 Q25.2969,314.5586 25.5156,314.5586 Q25.8906,314.5586 26.125,314.8242 Q26.3594,315.0742 26.3594,315.6836 L26.3594,317.1367 Q26.3594,317.7461 26.125,318.0117 Q25.8906,318.2773 25.5156,318.2773 Q25.1719,318.2773 24.9688,318.0742 Q24.7656,317.8867 24.6563,317.3711 Q24.6094,317.0117 24.4219,316.8242 Q24.0938,316.4492 23.4844,316.2305 Q22.875,316.0117 22.25,316.0117 Q21.4844,316.0117 20.8438,316.3398 Q20.2188,316.668 19.7188,317.418 Q19.2344,318.168 19.2344,319.1992 L19.2344,320.293 Q19.2344,321.5273 20.125,322.3555 Q21.0156,323.168 22.6094,323.168 Q23.5469,323.168 24.2031,322.918 Q24.5938,322.7617 25.0156,322.3242 Q25.2813,322.0586 25.4219,321.9805 Q25.5781,321.9023 25.7813,321.9023 Q26.1094,321.9023 26.3594,322.168 Q26.625,322.418 26.625,322.7617 Q26.625,323.1055 26.2813,323.5117 Q25.7813,324.0898 24.9844,324.418 Q23.9063,324.8711 22.6094,324.8711 Q21.0938,324.8711 19.8906,324.2461 Q18.9063,323.7461 18.2188,322.6836 Q17.5313,321.6055 17.5313,320.3242 L17.5313,319.168 Q17.5313,317.8398 18.1406,316.6992 Q18.7656,315.543 19.8594,314.9336 Q20.9531,314.3086 22.1875,314.3086 Q22.9219,314.3086 23.5625,314.4805 Q24.2188,314.6367 24.7656,314.9961 Z " fill="#000000"/><text fill="#000000" font-family="sans-serif" font-size="14" lengthAdjust="spacing" textLength="106" x="36" y="324.918">DispersionTypes</text><line style="stroke:#181818;stroke-width:0.5;" x1="8" x2="144" y1="335.1211" y2="335.1211"/><text fill="#000000" font-family="sans-serif" font-size="14" lengthAdjust="spacing" textLength="78" x="13" y="354.2285">dispersionID</text><text fill="#000000" font-family="sans-serif" font-size="14" lengthAdjust="spacing" textLength="73" x="13" y="372.8496">designation</text><line style="stroke:#181818;stroke-width:0.5;" x1="8" x2="144" y1="380.3633" y2="380.3633"/></g><!--class Watering--><g id="elem_Watering"><rect codeLine="23" fill="#F1F1F1" height="122.4844" id="Watering" rx="2.5" ry="2.5" style="stroke:#181818;stroke-width:0.5;" width="89" x="183.5" y="284.6211"/><ellipse cx="198.5" cy="300.6211" fill="#C2C2C2" rx="11" ry="11" style="stroke:#181818;stroke-width:1.0;"/><path d="M201.2656,296.4961 Q201.4219,296.2773 201.6094,296.168 Q201.7969,296.0586 202.0156,296.0586 Q202.3906,296.0586 202.625,296.3242 Q202.8594,296.5742 202.8594,297.1836 L202.8594,298.6367 Q202.8594,299.2461 202.625,299.5117 Q202.3906,299.7773 202.0156,299.7773 Q201.6719,299.7773 201.4688,299.5742 Q201.2656,299.3867 201.1563,298.8711 Q201.1094,298.5117 200.9219,298.3242 Q200.5938,297.9492 199.9844,297.7305 Q199.375,297.5117 198.75,297.5117 Q197.9844,297.5117 197.3438,297.8398 Q196.7188,298.168 196.2188,298.918 Q195.7344,299.668 195.7344,300.6992 L195.7344,301.793 Q195.7344,303.0273 196.625,303.8555 Q197.5156,304.668 199.1094,304.668 Q200.0469,304.668 200.7031,304.418 Q201.0938,304.2617 201.5156,303.8242 Q201.7813,303.5586 201.9219,303.4805 Q202.0781,303.4023 202.2813,303.4023 Q202.6094,303.4023 202.8594,303.668 Q203.125,303.918 203.125,304.2617 Q203.125,304.6055 202.7813,305.0117 Q202.2813,305.5898 201.4844,305.918 Q200.4063,306.3711 199.1094,306.3711 Q197.5938,306.3711 196.3906,305.7461 Q195.4063,305.2461 194.7188,304.1836 Q194.0313,303.1055 194.0313,301.8242 L194.0313,300.668 Q194.0313,299.3398 194.6406,298.1992 Q195.2656,297.043 196.3594,296.4336 Q197.4531,295.8086 198.6875,295.8086 Q199.4219,295.8086 200.0625,295.9805 Q200.7188,296.1367 201.2656,296.4961 Z " fill="#000000"/><text fill="#000000" font-family="sans-serif" font-size="14" lengthAdjust="spacing" textLength="57" x="212.5" y="306.418">Watering</text><line style="stroke:#181818;stroke-width:0.5;" x1="184.5" x2="271.5" y1="316.6211" y2="316.6211"/><text fill="#000000" font-family="sans-serif" font-size="14" lengthAdjust="spacing" textLength="73" x="189.5" y="335.7285">operationID</text><text fill="#000000" font-family="sans-serif" font-size="14" lengthAdjust="spacing" textLength="52" x="189.5" y="354.3496">duration</text><text fill="#000000" font-family="sans-serif" font-size="14" lengthAdjust="spacing" textLength="65" x="189.5" y="372.9707">inicialHour</text><text fill="#000000" font-family="sans-serif" font-size="14" lengthAdjust="spacing" textLength="45" x="189.5" y="391.5918">setorID</text><line style="stroke:#181818;stroke-width:0.5;" x1="184.5" x2="271.5" y1="399.1055" y2="399.1055"/></g><!--class ProductionFactorApplication--><g id="elem_ProductionFactorApplication"><rect codeLine="30" fill="#F1F1F1" height="85.2422" id="ProductionFactorApplication" rx="2.5" ry="2.5" style="stroke:#181818;stroke-width:0.5;" width="210" x="316" y="93.1211"/><ellipse cx="331" cy="109.1211" fill="#C2C2C2" rx="11" ry="11" style="stroke:#181818;stroke-width:1.0;"/><path d="M333.7656,104.9961 Q333.9219,104.7773 334.1094,104.668 Q334.2969,104.5586 334.5156,104.5586 Q334.8906,104.5586 335.125,104.8242 Q335.3594,105.0742 335.3594,105.6836 L335.3594,107.1367 Q335.3594,107.7461 335.125,108.0117 Q334.8906,108.2773 334.5156,108.2773 Q334.1719,108.2773 333.9688,108.0742 Q333.7656,107.8867 333.6563,107.3711 Q333.6094,107.0117 333.4219,106.8242 Q333.0938,106.4492 332.4844,106.2305 Q331.875,106.0117 331.25,106.0117 Q330.4844,106.0117 329.8438,106.3398 Q329.2188,106.668 328.7188,107.418 Q328.2344,108.168 328.2344,109.1992 L328.2344,110.293 Q328.2344,111.5273 329.125,112.3555 Q330.0156,113.168 331.6094,113.168 Q332.5469,113.168 333.2031,112.918 Q333.5938,112.7617 334.0156,112.3242 Q334.2813,112.0586 334.4219,111.9805 Q334.5781,111.9023 334.7813,111.9023 Q335.1094,111.9023 335.3594,112.168 Q335.625,112.418 335.625,112.7617 Q335.625,113.1055 335.2813,113.5117 Q334.7813,114.0898 333.9844,114.418 Q332.9063,114.8711 331.6094,114.8711 Q330.0938,114.8711 328.8906,114.2461 Q327.9063,113.7461 327.2188,112.6836 Q326.5313,111.6055 326.5313,110.3242 L326.5313,109.168 Q326.5313,107.8398 327.1406,106.6992 Q327.7656,105.543 328.8594,104.9336 Q329.9531,104.3086 331.1875,104.3086 Q331.9219,104.3086 332.5625,104.4805 Q333.2188,104.6367 333.7656,104.9961 Z " fill="#000000"/><text fill="#000000" font-family="sans-serif" font-size="14" lengthAdjust="spacing" textLength="178" x="345" y="114.918">ProductionFactorApplication</text><line style="stroke:#181818;stroke-width:0.5;" x1="317" x2="525" y1="125.1211" y2="125.1211"/><text fill="#000000" font-family="sans-serif" font-size="14" lengthAdjust="spacing" textLength="65" x="322" y="144.2285">revenueID</text><text fill="#000000" font-family="sans-serif" font-size="14" lengthAdjust="spacing" textLength="73" x="322" y="162.8496">operationID</text><line style="stroke:#181818;stroke-width:0.5;" x1="317" x2="525" y1="170.3633" y2="170.3633"/></g><!--class Revenue--><g id="elem_Revenue"><rect codeLine="35" fill="#F1F1F1" height="66.6211" id="Revenue" rx="2.5" ry="2.5" style="stroke:#181818;stroke-width:0.5;" width="89" x="376.5" y="312.1211"/><ellipse cx="391.5" cy="328.1211" fill="#C2C2C2" rx="11" ry="11" style="stroke:#181818;stroke-width:1.0;"/><path d="M394.2656,323.9961 Q394.4219,323.7773 394.6094,323.668 Q394.7969,323.5586 395.0156,323.5586 Q395.3906,323.5586 395.625,323.8242 Q395.8594,324.0742 395.8594,324.6836 L395.8594,326.1367 Q395.8594,326.7461 395.625,327.0117 Q395.3906,327.2773 395.0156,327.2773 Q394.6719,327.2773 394.4688,327.0742 Q394.2656,326.8867 394.1563,326.3711 Q394.1094,326.0117 393.9219,325.8242 Q393.5938,325.4492 392.9844,325.2305 Q392.375,325.0117 391.75,325.0117 Q390.9844,325.0117 390.3438,325.3398 Q389.7188,325.668 389.2188,326.418 Q388.7344,327.168 388.7344,328.1992 L388.7344,329.293 Q388.7344,330.5273 389.625,331.3555 Q390.5156,332.168 392.1094,332.168 Q393.0469,332.168 393.7031,331.918 Q394.0938,331.7617 394.5156,331.3242 Q394.7813,331.0586 394.9219,330.9805 Q395.0781,330.9023 395.2813,330.9023 Q395.6094,330.9023 395.8594,331.168 Q396.125,331.418 396.125,331.7617 Q396.125,332.1055 395.7813,332.5117 Q395.2813,333.0898 394.4844,333.418 Q393.4063,333.8711 392.1094,333.8711 Q390.5938,333.8711 389.3906,333.2461 Q388.4063,332.7461 387.7188,331.6836 Q387.0313,330.6055 387.0313,329.3242 L387.0313,328.168 Q387.0313,326.8398 387.6406,325.6992 Q388.2656,324.543 389.3594,323.9336 Q390.4531,323.3086 391.6875,323.3086 Q392.4219,323.3086 393.0625,323.4805 Q393.7188,323.6367 394.2656,323.9961 Z " fill="#000000"/><text fill="#000000" font-family="sans-serif" font-size="14" lengthAdjust="spacing" textLength="57" x="405.5" y="333.918">Revenue</text><line style="stroke:#181818;stroke-width:0.5;" x1="377.5" x2="464.5" y1="344.1211" y2="344.1211"/><text fill="#000000" font-family="sans-serif" font-size="14" lengthAdjust="spacing" textLength="65" x="382.5" y="363.2285">revenueID</text><line style="stroke:#181818;stroke-width:0.5;" x1="377.5" x2="464.5" y1="370.7422" y2="370.7422"/></g><!--class FormulationType--><g id="elem_FormulationType"><rect codeLine="39" fill="#F1F1F1" height="85.2422" id="FormulationType" rx="2.5" ry="2.5" style="stroke:#181818;stroke-width:0.5;" width="150" x="501" y="303.1211"/><ellipse cx="520.95" cy="319.1211" fill="#C2C2C2" rx="11" ry="11" style="stroke:#181818;stroke-width:1.0;"/><path d="M523.7156,314.9961 Q523.8719,314.7773 524.0594,314.668 Q524.2469,314.5586 524.4656,314.5586 Q524.8406,314.5586 525.075,314.8242 Q525.3094,315.0742 525.3094,315.6836 L525.3094,317.1367 Q525.3094,317.7461 525.075,318.0117 Q524.8406,318.2773 524.4656,318.2773 Q524.1219,318.2773 523.9188,318.0742 Q523.7156,317.8867 523.6063,317.3711 Q523.5594,317.0117 523.3719,316.8242 Q523.0438,316.4492 522.4344,316.2305 Q521.825,316.0117 521.2,316.0117 Q520.4344,316.0117 519.7938,316.3398 Q519.1688,316.668 518.6688,317.418 Q518.1844,318.168 518.1844,319.1992 L518.1844,320.293 Q518.1844,321.5273 519.075,322.3555 Q519.9656,323.168 521.5594,323.168 Q522.4969,323.168 523.1531,322.918 Q523.5438,322.7617 523.9656,322.3242 Q524.2313,322.0586 524.3719,321.9805 Q524.5281,321.9023 524.7313,321.9023 Q525.0594,321.9023 525.3094,322.168 Q525.575,322.418 525.575,322.7617 Q525.575,323.1055 525.2313,323.5117 Q524.7313,324.0898 523.9344,324.418 Q522.8563,324.8711 521.5594,324.8711 Q520.0438,324.8711 518.8406,324.2461 Q517.8563,323.7461 517.1688,322.6836 Q516.4813,321.6055 516.4813,320.3242 L516.4813,319.168 Q516.4813,317.8398 517.0906,316.6992 Q517.7156,315.543 518.8094,314.9336 Q519.9031,314.3086 521.1375,314.3086 Q521.8719,314.3086 522.5125,314.4805 Q523.1688,314.6367 523.7156,314.9961 Z " fill="#000000"/><text fill="#000000" font-family="sans-serif" font-size="14" lengthAdjust="spacing" textLength="107" x="536.05" y="324.918">FormulationType</text><line style="stroke:#181818;stroke-width:0.5;" x1="502" x2="650" y1="335.1211" y2="335.1211"/><text fill="#000000" font-family="sans-serif" font-size="14" lengthAdjust="spacing" textLength="115" x="507" y="354.2285">formulationTypeID</text><text fill="#000000" font-family="sans-serif" font-size="14" lengthAdjust="spacing" textLength="138" x="507" y="372.8496">formulationTypeName</text><line style="stroke:#181818;stroke-width:0.5;" x1="502" x2="650" y1="380.3633" y2="380.3633"/></g><!--class Classification--><g id="elem_Classification"><rect codeLine="44" fill="#F1F1F1" height="85.2422" id="Classification" rx="2.5" ry="2.5" style="stroke:#181818;stroke-width:0.5;" width="128" x="686" y="303.1211"/><ellipse cx="706.85" cy="319.1211" fill="#C2C2C2" rx="11" ry="11" style="stroke:#181818;stroke-width:1.0;"/><path d="M709.6156,314.9961 Q709.7719,314.7773 709.9594,314.668 Q710.1469,314.5586 710.3656,314.5586 Q710.7406,314.5586 710.975,314.8242 Q711.2094,315.0742 711.2094,315.6836 L711.2094,317.1367 Q711.2094,317.7461 710.975,318.0117 Q710.7406,318.2773 710.3656,318.2773 Q710.0219,318.2773 709.8188,318.0742 Q709.6156,317.8867 709.5063,317.3711 Q709.4594,317.0117 709.2719,316.8242 Q708.9438,316.4492 708.3344,316.2305 Q707.725,316.0117 707.1,316.0117 Q706.3344,316.0117 705.6938,316.3398 Q705.0688,316.668 704.5688,317.418 Q704.0844,318.168 704.0844,319.1992 L704.0844,320.293 Q704.0844,321.5273 704.975,322.3555 Q705.8656,323.168 707.4594,323.168 Q708.3969,323.168 709.0531,322.918 Q709.4438,322.7617 709.8656,322.3242 Q710.1313,322.0586 710.2719,321.9805 Q710.4281,321.9023 710.6313,321.9023 Q710.9594,321.9023 711.2094,322.168 Q711.475,322.418 711.475,322.7617 Q711.475,323.1055 711.1313,323.5117 Q710.6313,324.0898 709.8344,324.418 Q708.7563,324.8711 707.4594,324.8711 Q705.9438,324.8711 704.7406,324.2461 Q703.7563,323.7461 703.0688,322.6836 Q702.3813,321.6055 702.3813,320.3242 L702.3813,319.168 Q702.3813,317.8398 702.9906,316.6992 Q703.6156,315.543 704.7094,314.9336 Q705.8031,314.3086 707.0375,314.3086 Q707.7719,314.3086 708.4125,314.4805 Q709.0688,314.6367 709.6156,314.9961 Z " fill="#000000"/><text fill="#000000" font-family="sans-serif" font-size="14" lengthAdjust="spacing" textLength="83" x="722.15" y="324.918">Classification</text><line style="stroke:#181818;stroke-width:0.5;" x1="687" x2="813" y1="335.1211" y2="335.1211"/><text fill="#000000" font-family="sans-serif" font-size="14" lengthAdjust="spacing" textLength="93" x="692" y="354.2285">classificationID</text><text fill="#000000" font-family="sans-serif" font-size="14" lengthAdjust="spacing" textLength="116" x="692" y="372.8496">classificationName</text><line style="stroke:#181818;stroke-width:0.5;" x1="687" x2="813" y1="380.3633" y2="380.3633"/></g><!--class Datasheet--><g id="elem_Datasheet"><rect codeLine="49" fill="#F1F1F1" height="85.2422" id="Datasheet" rx="2.5" ry="2.5" style="stroke:#181818;stroke-width:0.5;" width="133" x="849.5" y="303.1211"/><ellipse cx="880.7" cy="319.1211" fill="#C2C2C2" rx="11" ry="11" style="stroke:#181818;stroke-width:1.0;"/><path d="M883.4656,314.9961 Q883.6219,314.7773 883.8094,314.668 Q883.9969,314.5586 884.2156,314.5586 Q884.5906,314.5586 884.825,314.8242 Q885.0594,315.0742 885.0594,315.6836 L885.0594,317.1367 Q885.0594,317.7461 884.825,318.0117 Q884.5906,318.2773 884.2156,318.2773 Q883.8719,318.2773 883.6688,318.0742 Q883.4656,317.8867 883.3563,317.3711 Q883.3094,317.0117 883.1219,316.8242 Q882.7938,316.4492 882.1844,316.2305 Q881.575,316.0117 880.95,316.0117 Q880.1844,316.0117 879.5438,316.3398 Q878.9188,316.668 878.4188,317.418 Q877.9344,318.168 877.9344,319.1992 L877.9344,320.293 Q877.9344,321.5273 878.825,322.3555 Q879.7156,323.168 881.3094,323.168 Q882.2469,323.168 882.9031,322.918 Q883.2938,322.7617 883.7156,322.3242 Q883.9813,322.0586 884.1219,321.9805 Q884.2781,321.9023 884.4813,321.9023 Q884.8094,321.9023 885.0594,322.168 Q885.325,322.418 885.325,322.7617 Q885.325,323.1055 884.9813,323.5117 Q884.4813,324.0898 883.6844,324.418 Q882.6063,324.8711 881.3094,324.8711 Q879.7938,324.8711 878.5906,324.2461 Q877.6063,323.7461 876.9188,322.6836 Q876.2313,321.6055 876.2313,320.3242 L876.2313,319.168 Q876.2313,317.8398 876.8406,316.6992 Q877.4656,315.543 878.5594,314.9336 Q879.6531,314.3086 880.8875,314.3086 Q881.6219,314.3086 882.2625,314.4805 Q882.9188,314.6367 883.4656,314.9961 Z " fill="#000000"/><text fill="#000000" font-family="sans-serif" font-size="14" lengthAdjust="spacing" textLength="65" x="898.3" y="324.918">Datasheet</text><line style="stroke:#181818;stroke-width:0.5;" x1="850.5" x2="981.5" y1="335.1211" y2="335.1211"/><text fill="#000000" font-family="sans-serif" font-size="14" lengthAdjust="spacing" textLength="88" x="855.5" y="354.2285">compositionID</text><text fill="#000000" font-family="sans-serif" font-size="14" lengthAdjust="spacing" textLength="121" x="855.5" y="372.8496">productionFactorID</text><line style="stroke:#181818;stroke-width:0.5;" x1="850.5" x2="981.5" y1="380.3633" y2="380.3633"/></g><!--class Component--><g id="elem_Component"><rect codeLine="54" fill="#F1F1F1" height="85.2422" id="Component" rx="2.5" ry="2.5" style="stroke:#181818;stroke-width:0.5;" width="118" x="857" y="466.6211"/><ellipse cx="877.85" cy="482.6211" fill="#C2C2C2" rx="11" ry="11" style="stroke:#181818;stroke-width:1.0;"/><path d="M880.6156,478.4961 Q880.7719,478.2773 880.9594,478.168 Q881.1469,478.0586 881.3656,478.0586 Q881.7406,478.0586 881.975,478.3242 Q882.2094,478.5742 882.2094,479.1836 L882.2094,480.6367 Q882.2094,481.2461 881.975,481.5117 Q881.7406,481.7773 881.3656,481.7773 Q881.0219,481.7773 880.8188,481.5742 Q880.6156,481.3867 880.5063,480.8711 Q880.4594,480.5117 880.2719,480.3242 Q879.9438,479.9492 879.3344,479.7305 Q878.725,479.5117 878.1,479.5117 Q877.3344,479.5117 876.6938,479.8398 Q876.0688,480.168 875.5688,480.918 Q875.0844,481.668 875.0844,482.6992 L875.0844,483.793 Q875.0844,485.0273 875.975,485.8555 Q876.8656,486.668 878.4594,486.668 Q879.3969,486.668 880.0531,486.418 Q880.4438,486.2617 880.8656,485.8242 Q881.1313,485.5586 881.2719,485.4805 Q881.4281,485.4023 881.6313,485.4023 Q881.9594,485.4023 882.2094,485.668 Q882.475,485.918 882.475,486.2617 Q882.475,486.6055 882.1313,487.0117 Q881.6313,487.5898 880.8344,487.918 Q879.7563,488.3711 878.4594,488.3711 Q876.9438,488.3711 875.7406,487.7461 Q874.7563,487.2461 874.0688,486.1836 Q873.3813,485.1055 873.3813,483.8242 L873.3813,482.668 Q873.3813,481.3398 873.9906,480.1992 Q874.6156,479.043 875.7094,478.4336 Q876.8031,477.8086 878.0375,477.8086 Q878.7719,477.8086 879.4125,477.9805 Q880.0688,478.1367 880.6156,478.4961 Z " fill="#000000"/><text fill="#000000" font-family="sans-serif" font-size="14" lengthAdjust="spacing" textLength="73" x="893.15" y="488.418">Component</text><line style="stroke:#181818;stroke-width:0.5;" x1="858" x2="974" y1="498.6211" y2="498.6211"/><text fill="#000000" font-family="sans-serif" font-size="14" lengthAdjust="spacing" textLength="83" x="863" y="517.7285">componentID</text><text fill="#000000" font-family="sans-serif" font-size="14" lengthAdjust="spacing" textLength="106" x="863" y="536.3496">componentName</text><line style="stroke:#181818;stroke-width:0.5;" x1="858" x2="974" y1="543.8633" y2="543.8633"/></g><!--class Manufacturer--><g id="elem_Manufacturer"><rect codeLine="59" fill="#F1F1F1" height="85.2422" id="Manufacturer" rx="2.5" ry="2.5" style="stroke:#181818;stroke-width:0.5;" width="116" x="1018" y="303.1211"/><ellipse cx="1033" cy="319.1211" fill="#C2C2C2" rx="11" ry="11" style="stroke:#181818;stroke-width:1.0;"/><path d="M1035.7656,314.9961 Q1035.9219,314.7773 1036.1094,314.668 Q1036.2969,314.5586 1036.5156,314.5586 Q1036.8906,314.5586 1037.125,314.8242 Q1037.3594,315.0742 1037.3594,315.6836 L1037.3594,317.1367 Q1037.3594,317.7461 1037.125,318.0117 Q1036.8906,318.2773 1036.5156,318.2773 Q1036.1719,318.2773 1035.9688,318.0742 Q1035.7656,317.8867 1035.6563,317.3711 Q1035.6094,317.0117 1035.4219,316.8242 Q1035.0938,316.4492 1034.4844,316.2305 Q1033.875,316.0117 1033.25,316.0117 Q1032.4844,316.0117 1031.8438,316.3398 Q1031.2188,316.668 1030.7188,317.418 Q1030.2344,318.168 1030.2344,319.1992 L1030.2344,320.293 Q1030.2344,321.5273 1031.125,322.3555 Q1032.0156,323.168 1033.6094,323.168 Q1034.5469,323.168 1035.2031,322.918 Q1035.5938,322.7617 1036.0156,322.3242 Q1036.2813,322.0586 1036.4219,321.9805 Q1036.5781,321.9023 1036.7813,321.9023 Q1037.1094,321.9023 1037.3594,322.168 Q1037.625,322.418 1037.625,322.7617 Q1037.625,323.1055 1037.2813,323.5117 Q1036.7813,324.0898 1035.9844,324.418 Q1034.9063,324.8711 1033.6094,324.8711 Q1032.0938,324.8711 1030.8906,324.2461 Q1029.9063,323.7461 1029.2188,322.6836 Q1028.5313,321.6055 1028.5313,320.3242 L1028.5313,319.168 Q1028.5313,317.8398 1029.1406,316.6992 Q1029.7656,315.543 1030.8594,314.9336 Q1031.9531,314.3086 1033.1875,314.3086 Q1033.9219,314.3086 1034.5625,314.4805 Q1035.2188,314.6367 1035.7656,314.9961 Z " fill="#000000"/><text fill="#000000" font-family="sans-serif" font-size="14" lengthAdjust="spacing" textLength="84" x="1047" y="324.918">Manufacturer</text><line style="stroke:#181818;stroke-width:0.5;" x1="1019" x2="1133" y1="335.1211" y2="335.1211"/><text fill="#000000" font-family="sans-serif" font-size="14" lengthAdjust="spacing" textLength="97" x="1024" y="354.2285">manufacturerID</text><text fill="#000000" font-family="sans-serif" font-size="14" lengthAdjust="spacing" textLength="35" x="1024" y="372.8496">name</text><line style="stroke:#181818;stroke-width:0.5;" x1="1019" x2="1133" y1="380.3633" y2="380.3633"/></g><!--class ApplicationType--><g id="elem_ApplicationType"><rect codeLine="64" fill="#F1F1F1" height="85.2422" id="ApplicationType" rx="2.5" ry="2.5" style="stroke:#181818;stroke-width:0.5;" width="133" x="1169.5" y="303.1211"/><ellipse cx="1184.5" cy="319.1211" fill="#C2C2C2" rx="11" ry="11" style="stroke:#181818;stroke-width:1.0;"/><path d="M1187.2656,314.9961 Q1187.4219,314.7773 1187.6094,314.668 Q1187.7969,314.5586 1188.0156,314.5586 Q1188.3906,314.5586 1188.625,314.8242 Q1188.8594,315.0742 1188.8594,315.6836 L1188.8594,317.1367 Q1188.8594,317.7461 1188.625,318.0117 Q1188.3906,318.2773 1188.0156,318.2773 Q1187.6719,318.2773 1187.4688,318.0742 Q1187.2656,317.8867 1187.1563,317.3711 Q1187.1094,317.0117 1186.9219,316.8242 Q1186.5938,316.4492 1185.9844,316.2305 Q1185.375,316.0117 1184.75,316.0117 Q1183.9844,316.0117 1183.3438,316.3398 Q1182.7188,316.668 1182.2188,317.418 Q1181.7344,318.168 1181.7344,319.1992 L1181.7344,320.293 Q1181.7344,321.5273 1182.625,322.3555 Q1183.5156,323.168 1185.1094,323.168 Q1186.0469,323.168 1186.7031,322.918 Q1187.0938,322.7617 1187.5156,322.3242 Q1187.7813,322.0586 1187.9219,321.9805 Q1188.0781,321.9023 1188.2813,321.9023 Q1188.6094,321.9023 1188.8594,322.168 Q1189.125,322.418 1189.125,322.7617 Q1189.125,323.1055 1188.7813,323.5117 Q1188.2813,324.0898 1187.4844,324.418 Q1186.4063,324.8711 1185.1094,324.8711 Q1183.5938,324.8711 1182.3906,324.2461 Q1181.4063,323.7461 1180.7188,322.6836 Q1180.0313,321.6055 1180.0313,320.3242 L1180.0313,319.168 Q1180.0313,317.8398 1180.6406,316.6992 Q1181.2656,315.543 1182.3594,314.9336 Q1183.4531,314.3086 1184.6875,314.3086 Q1185.4219,314.3086 1186.0625,314.4805 Q1186.7188,314.6367 1187.2656,314.9961 Z " fill="#000000"/><text fill="#000000" font-family="sans-serif" font-size="14" lengthAdjust="spacing" textLength="101" x="1198.5" y="324.918">ApplicationType</text><line style="stroke:#181818;stroke-width:0.5;" x1="1170.5" x2="1301.5" y1="335.1211" y2="335.1211"/><text fill="#000000" font-family="sans-serif" font-size="14" lengthAdjust="spacing" textLength="73" x="1175.5" y="354.2285">aplicationID</text><text fill="#000000" font-family="sans-serif" font-size="14" lengthAdjust="spacing" textLength="35" x="1175.5" y="372.8496">name</text><line style="stroke:#181818;stroke-width:0.5;" x1="1170.5" x2="1301.5" y1="380.3633" y2="380.3633"/></g><!--class ProductionFactor--><g id="elem_ProductionFactor"><rect codeLine="69" fill="#F1F1F1" height="141.1055" id="ProductionFactor" rx="2.5" ry="2.5" style="stroke:#181818;stroke-width:0.5;" width="141" x="925.5" y="65.1211"/><ellipse cx="940.5" cy="81.1211" fill="#C2C2C2" rx="11" ry="11" style="stroke:#181818;stroke-width:1.0;"/><path d="M943.2656,76.9961 Q943.4219,76.7773 943.6094,76.668 Q943.7969,76.5586 944.0156,76.5586 Q944.3906,76.5586 944.625,76.8242 Q944.8594,77.0742 944.8594,77.6836 L944.8594,79.1367 Q944.8594,79.7461 944.625,80.0117 Q944.3906,80.2773 944.0156,80.2773 Q943.6719,80.2773 943.4688,80.0742 Q943.2656,79.8867 943.1563,79.3711 Q943.1094,79.0117 942.9219,78.8242 Q942.5938,78.4492 941.9844,78.2305 Q941.375,78.0117 940.75,78.0117 Q939.9844,78.0117 939.3438,78.3398 Q938.7188,78.668 938.2188,79.418 Q937.7344,80.168 937.7344,81.1992 L937.7344,82.293 Q937.7344,83.5273 938.625,84.3555 Q939.5156,85.168 941.1094,85.168 Q942.0469,85.168 942.7031,84.918 Q943.0938,84.7617 943.5156,84.3242 Q943.7813,84.0586 943.9219,83.9805 Q944.0781,83.9023 944.2813,83.9023 Q944.6094,83.9023 944.8594,84.168 Q945.125,84.418 945.125,84.7617 Q945.125,85.1055 944.7813,85.5117 Q944.2813,86.0898 943.4844,86.418 Q942.4063,86.8711 941.1094,86.8711 Q939.5938,86.8711 938.3906,86.2461 Q937.4063,85.7461 936.7188,84.6836 Q936.0313,83.6055 936.0313,82.3242 L936.0313,81.168 Q936.0313,79.8398 936.6406,78.6992 Q937.2656,77.543 938.3594,76.9336 Q939.4531,76.3086 940.6875,76.3086 Q941.4219,76.3086 942.0625,76.4805 Q942.7188,76.6367 943.2656,76.9961 Z " fill="#000000"/><text fill="#000000" font-family="sans-serif" font-size="14" lengthAdjust="spacing" textLength="109" x="954.5" y="86.918">ProductionFactor</text><line style="stroke:#181818;stroke-width:0.5;" x1="926.5" x2="1065.5" y1="97.1211" y2="97.1211"/><text fill="#000000" font-family="sans-serif" font-size="14" lengthAdjust="spacing" textLength="121" x="931.5" y="116.2285">productionFactorID</text><text fill="#000000" font-family="sans-serif" font-size="14" lengthAdjust="spacing" textLength="107" x="931.5" y="134.8496">commercialName</text><text fill="#000000" font-family="sans-serif" font-size="14" lengthAdjust="spacing" textLength="93" x="931.5" y="153.4707">classificationID</text><text fill="#000000" font-family="sans-serif" font-size="14" lengthAdjust="spacing" textLength="115" x="931.5" y="172.0918">formulationTypeID</text><text fill="#000000" font-family="sans-serif" font-size="14" lengthAdjust="spacing" textLength="97" x="931.5" y="190.7129">manufacturerID</text><line style="stroke:#181818;stroke-width:0.5;" x1="926.5" x2="1065.5" y1="198.2266" y2="198.2266"/></g><!--class Operation--><g id="elem_Operation"><rect codeLine="77" fill="#F1F1F1" height="178.3477" id="Operation" rx="2.5" ry="2.5" style="stroke:#181818;stroke-width:0.5;" width="105" x="175.5" y="46.6211"/><ellipse cx="195" cy="62.6211" fill="#C2C2C2" rx="11" ry="11" style="stroke:#181818;stroke-width:1.0;"/><path d="M197.7656,58.4961 Q197.9219,58.2773 198.1094,58.168 Q198.2969,58.0586 198.5156,58.0586 Q198.8906,58.0586 199.125,58.3242 Q199.3594,58.5742 199.3594,59.1836 L199.3594,60.6367 Q199.3594,61.2461 199.125,61.5117 Q198.8906,61.7773 198.5156,61.7773 Q198.1719,61.7773 197.9688,61.5742 Q197.7656,61.3867 197.6563,60.8711 Q197.6094,60.5117 197.4219,60.3242 Q197.0938,59.9492 196.4844,59.7305 Q195.875,59.5117 195.25,59.5117 Q194.4844,59.5117 193.8438,59.8398 Q193.2188,60.168 192.7188,60.918 Q192.2344,61.668 192.2344,62.6992 L192.2344,63.793 Q192.2344,65.0273 193.125,65.8555 Q194.0156,66.668 195.6094,66.668 Q196.5469,66.668 197.2031,66.418 Q197.5938,66.2617 198.0156,65.8242 Q198.2813,65.5586 198.4219,65.4805 Q198.5781,65.4023 198.7813,65.4023 Q199.1094,65.4023 199.3594,65.668 Q199.625,65.918 199.625,66.2617 Q199.625,66.6055 199.2813,67.0117 Q198.7813,67.5898 197.9844,67.918 Q196.9063,68.3711 195.6094,68.3711 Q194.0938,68.3711 192.8906,67.7461 Q191.9063,67.2461 191.2188,66.1836 Q190.5313,65.1055 190.5313,63.8242 L190.5313,62.668 Q190.5313,61.3398 191.1406,60.1992 Q191.7656,59.043 192.8594,58.4336 Q193.9531,57.8086 195.1875,57.8086 Q195.9219,57.8086 196.5625,57.9805 Q197.2188,58.1367 197.7656,58.4961 Z " fill="#000000"/><text fill="#000000" font-family="sans-serif" font-size="14" lengthAdjust="spacing" textLength="63" x="210" y="68.418">Operation</text><line style="stroke:#181818;stroke-width:0.5;" x1="176.5" x2="279.5" y1="78.6211" y2="78.6211"/><text fill="#000000" font-family="sans-serif" font-size="14" lengthAdjust="spacing" textLength="73" x="181.5" y="97.7285">operationID</text><text fill="#000000" font-family="sans-serif" font-size="14" lengthAdjust="spacing" textLength="90" x="181.5" y="116.3496">operationDate</text><text fill="#000000" font-family="sans-serif" font-size="14" lengthAdjust="spacing" textLength="93" x="181.5" y="134.9707">operationState</text><text fill="#000000" font-family="sans-serif" font-size="14" lengthAdjust="spacing" textLength="73" x="181.5" y="153.5918">designation</text><text fill="#000000" font-family="sans-serif" font-size="14" lengthAdjust="spacing" textLength="41" x="181.5" y="172.2129">cropID</text><text fill="#000000" font-family="sans-serif" font-size="14" lengthAdjust="spacing" textLength="52" x="181.5" y="190.834">parcelID</text><text fill="#000000" font-family="sans-serif" font-size="14" lengthAdjust="spacing" textLength="42" x="181.5" y="209.4551">instant</text><line style="stroke:#181818;stroke-width:0.5;" x1="176.5" x2="279.5" y1="216.9688" y2="216.9688"/></g><!--class ParcelApplication--><g id="elem_ParcelApplication"><rect fill="#F1F1F1" height="48" id="ParcelApplication" rx="2.5" ry="2.5" style="stroke:#181818;stroke-width:0.5;" width="141" x="1337.5" y="321.6211"/><ellipse cx="1352.5" cy="337.6211" fill="#C2C2C2" rx="11" ry="11" style="stroke:#181818;stroke-width:1.0;"/><path d="M1355.2656,333.4961 Q1355.4219,333.2773 1355.6094,333.168 Q1355.7969,333.0586 1356.0156,333.0586 Q1356.3906,333.0586 1356.625,333.3242 Q1356.8594,333.5742 1356.8594,334.1836 L1356.8594,335.6367 Q1356.8594,336.2461 1356.625,336.5117 Q1356.3906,336.7773 1356.0156,336.7773 Q1355.6719,336.7773 1355.4688,336.5742 Q1355.2656,336.3867 1355.1563,335.8711 Q1355.1094,335.5117 1354.9219,335.3242 Q1354.5938,334.9492 1353.9844,334.7305 Q1353.375,334.5117 1352.75,334.5117 Q1351.9844,334.5117 1351.3438,334.8398 Q1350.7188,335.168 1350.2188,335.918 Q1349.7344,336.668 1349.7344,337.6992 L1349.7344,338.793 Q1349.7344,340.0273 1350.625,340.8555 Q1351.5156,341.668 1353.1094,341.668 Q1354.0469,341.668 1354.7031,341.418 Q1355.0938,341.2617 1355.5156,340.8242 Q1355.7813,340.5586 1355.9219,340.4805 Q1356.0781,340.4023 1356.2813,340.4023 Q1356.6094,340.4023 1356.8594,340.668 Q1357.125,340.918 1357.125,341.2617 Q1357.125,341.6055 1356.7813,342.0117 Q1356.2813,342.5898 1355.4844,342.918 Q1354.4063,343.3711 1353.1094,343.3711 Q1351.5938,343.3711 1350.3906,342.7461 Q1349.4063,342.2461 1348.7188,341.1836 Q1348.0313,340.1055 1348.0313,338.8242 L1348.0313,337.668 Q1348.0313,336.3398 1348.6406,335.1992 Q1349.2656,334.043 1350.3594,333.4336 Q1351.4531,332.8086 1352.6875,332.8086 Q1353.4219,332.8086 1354.0625,332.9805 Q1354.7188,333.1367 1355.2656,333.4961 Z " fill="#000000"/><text fill="#000000" font-family="sans-serif" font-size="14" lengthAdjust="spacing" textLength="109" x="1366.5" y="343.418">ParcelApplication</text><line style="stroke:#181818;stroke-width:0.5;" x1="1338.5" x2="1477.5" y1="353.6211" y2="353.6211"/><line style="stroke:#181818;stroke-width:0.5;" x1="1338.5" x2="1477.5" y1="361.6211" y2="361.6211"/></g><!--class CropApplication--><g id="elem_CropApplication"><rect fill="#F1F1F1" height="48" id="CropApplication" rx="2.5" ry="2.5" style="stroke:#181818;stroke-width:0.5;" width="132" x="1514" y="321.6211"/><ellipse cx="1529" cy="337.6211" fill="#C2C2C2" rx="11" ry="11" style="stroke:#181818;stroke-width:1.0;"/><path d="M1531.7656,333.4961 Q1531.9219,333.2773 1532.1094,333.168 Q1532.2969,333.0586 1532.5156,333.0586 Q1532.8906,333.0586 1533.125,333.3242 Q1533.3594,333.5742 1533.3594,334.1836 L1533.3594,335.6367 Q1533.3594,336.2461 1533.125,336.5117 Q1532.8906,336.7773 1532.5156,336.7773 Q1532.1719,336.7773 1531.9688,336.5742 Q1531.7656,336.3867 1531.6563,335.8711 Q1531.6094,335.5117 1531.4219,335.3242 Q1531.0938,334.9492 1530.4844,334.7305 Q1529.875,334.5117 1529.25,334.5117 Q1528.4844,334.5117 1527.8438,334.8398 Q1527.2188,335.168 1526.7188,335.918 Q1526.2344,336.668 1526.2344,337.6992 L1526.2344,338.793 Q1526.2344,340.0273 1527.125,340.8555 Q1528.0156,341.668 1529.6094,341.668 Q1530.5469,341.668 1531.2031,341.418 Q1531.5938,341.2617 1532.0156,340.8242 Q1532.2813,340.5586 1532.4219,340.4805 Q1532.5781,340.4023 1532.7813,340.4023 Q1533.1094,340.4023 1533.3594,340.668 Q1533.625,340.918 1533.625,341.2617 Q1533.625,341.6055 1533.2813,342.0117 Q1532.7813,342.5898 1531.9844,342.918 Q1530.9063,343.3711 1529.6094,343.3711 Q1528.0938,343.3711 1526.8906,342.7461 Q1525.9063,342.2461 1525.2188,341.1836 Q1524.5313,340.1055 1524.5313,338.8242 L1524.5313,337.668 Q1524.5313,336.3398 1525.1406,335.1992 Q1525.7656,334.043 1526.8594,333.4336 Q1527.9531,332.8086 1529.1875,332.8086 Q1529.9219,332.8086 1530.5625,332.9805 Q1531.2188,333.1367 1531.7656,333.4961 Z " fill="#000000"/><text fill="#000000" font-family="sans-serif" font-size="14" lengthAdjust="spacing" textLength="100" x="1543" y="343.418">CropApplication</text><line style="stroke:#181818;stroke-width:0.5;" x1="1515" x2="1645" y1="353.6211" y2="353.6211"/><line style="stroke:#181818;stroke-width:0.5;" x1="1515" x2="1645" y1="361.6211" y2="361.6211"/></g><!--link ProductionFactor to Classification--><g id="link_ProductionFactor_Classification"><path codeLine="87" d="M925.18,199.6211 C852.5,199.6211 750,199.6211 750,199.6211 C750,199.6211 750,259.9011 750,303.0011 " fill="none" id="ProductionFactor-Classification" style="stroke:#181818;stroke-width:1.0;"/><text fill="#000000" font-family="sans-serif" font-size="13" lengthAdjust="spacing" textLength="5" x="912.5835" y="227.0337">*</text><text fill="#000000" font-family="sans-serif" font-size="13" lengthAdjust="spacing" textLength="7" x="742.4422" y="291.8861">1</text></g><!--link ProductionFactor to FormulationType--><g id="link_ProductionFactor_FormulationType"><path codeLine="88" d="M925.48,192.6211 C808.85,192.6211 588.5,192.6211 588.5,192.6211 C588.5,192.6211 588.5,257.7311 588.5,303.0011 " fill="none" id="ProductionFactor-FormulationType" style="stroke:#181818;stroke-width:1.0;"/><text fill="#000000" font-family="sans-serif" font-size="13" lengthAdjust="spacing" textLength="5" x="912.4934" y="213.8236">*</text><text fill="#000000" font-family="sans-serif" font-size="13" lengthAdjust="spacing" textLength="7" x="582.9344" y="291.8861">1</text></g><!--link ProductionFactor to Manufacturer--><g id="link_ProductionFactor_Manufacturer"><path codeLine="89" d="M1042.25,206.1311 C1042.25,238.1811 1042.25,275.0611 1042.25,302.8411 " fill="none" id="ProductionFactor-Manufacturer" style="stroke:#181818;stroke-width:1.0;"/><text fill="#000000" font-family="sans-serif" font-size="13" lengthAdjust="spacing" textLength="5" x="1041.7617" y="228.3169">*</text><text fill="#000000" font-family="sans-serif" font-size="13" lengthAdjust="spacing" textLength="7" x="1029.3133" y="291.7006">1</text></g><!--link ProductionFactor to ApplicationType--><g id="link_ProductionFactor_ApplicationType"><path codeLine="90" d="M1066.71,171.6211 C1137.5,171.6211 1236,171.6211 1236,171.6211 C1236,171.6211 1236,251.5411 1236,303.0511 " fill="none" id="ProductionFactor-ApplicationType" style="stroke:#181818;stroke-width:1.0;"/><text fill="#000000" font-family="sans-serif" font-size="13" lengthAdjust="spacing" textLength="5" x="1074.7173" y="171.6674">*</text><text fill="#000000" font-family="sans-serif" font-size="13" lengthAdjust="spacing" textLength="5" x="1230.6016" y="291.944">*</text></g><!--link ProductionFactor to Datasheet--><g id="link_ProductionFactor_Datasheet"><path codeLine="91" d="M954,206.1311 C954,238.1811 954,275.0611 954,302.8411 " fill="none" id="ProductionFactor-Datasheet" style="stroke:#181818;stroke-width:1.0;"/><text fill="#000000" font-family="sans-serif" font-size="13" lengthAdjust="spacing" textLength="7" x="942.3078" y="228.3169">1</text><text fill="#000000" font-family="sans-serif" font-size="13" lengthAdjust="spacing" textLength="7" x="952.4984" y="291.7006">1</text></g><!--link ProductionFactor to ParcelApplication--><g id="link_ProductionFactor_ParcelApplication"><path codeLine="92" d="M1066.83,135.6211 C1184.62,135.6211 1408,135.6211 1408,135.6211 C1408,135.6211 1408,266.3711 1408,321.5311 " fill="none" id="ProductionFactor-ParcelApplication" style="stroke:#181818;stroke-width:1.0;"/><text fill="#000000" font-family="sans-serif" font-size="13" lengthAdjust="spacing" textLength="7" x="1074.4953" y="131.7824">1</text><text fill="#000000" font-family="sans-serif" font-size="13" lengthAdjust="spacing" textLength="5" x="1402.3594" y="310.2455">*</text></g><!--link ProductionFactor to Revenue--><g id="link_ProductionFactor_Revenue"><path codeLine="93" d="M925.34,185.6211 C774.75,185.6211 435.83,185.6211 435.83,185.6211 C435.83,185.6211 435.83,265.1611 435.83,312.0811 " fill="none" id="ProductionFactor-Revenue" style="stroke:#181818;stroke-width:1.0;"/><text fill="#000000" font-family="sans-serif" font-size="13" lengthAdjust="spacing" textLength="5" x="912.3381" y="187.1986">*</text><text fill="#000000" font-family="sans-serif" font-size="13" lengthAdjust="spacing" textLength="5" x="433.2575" y="300.8987">*</text></g><!--link ProductionFactor to CropApplication--><g id="link_ProductionFactor_CropApplication"><path codeLine="94" d="M1066.73,100.6211 C1222.22,100.6211 1580,100.6211 1580,100.6211 C1580,100.6211 1580,259.2611 1580,321.2311 " fill="none" id="ProductionFactor-CropApplication" style="stroke:#181818;stroke-width:1.0;"/><text fill="#000000" font-family="sans-serif" font-size="13" lengthAdjust="spacing" textLength="7" x="1074.385" y="93.173">1</text><text fill="#000000" font-family="sans-serif" font-size="13" lengthAdjust="spacing" textLength="5" x="1574.3906" y="310.2779">*</text></g><!--link Datasheet to Component--><g id="link_Datasheet_Component"><path codeLine="96" d="M916,388.1511 C916,412.2811 916,442.3811 916,466.5211 " fill="none" id="Datasheet-Component" style="stroke:#181818;stroke-width:1.0;"/><text fill="#000000" font-family="sans-serif" font-size="13" lengthAdjust="spacing" textLength="5" x="910.6016" y="410.3162">*</text><text fill="#000000" font-family="sans-serif" font-size="13" lengthAdjust="spacing" textLength="5" x="910.6016" y="455.4092">*</text></g><!--link Operation to Watering--><g id="link_Operation_Watering"><path codeLine="98" d="M228,224.6811 C228,244.8011 228,265.7211 228,284.3911 " fill="none" id="Operation-Watering" style="stroke:#181818;stroke-width:1.0;"/><text fill="#000000" font-family="sans-serif" font-size="13" lengthAdjust="spacing" textLength="7" x="220.6992" y="247.091">1</text><text fill="#000000" font-family="sans-serif" font-size="13" lengthAdjust="spacing" textLength="7" x="220.5953" y="273.3457">1</text></g><!--link ProductionFactorApplication to Watering--><g id="link_ProductionFactorApplication_Watering"><path codeLine="100" d="M346.25,178.2311 C346.25,225.3311 346.25,294.6211 346.25,294.6211 C346.25,294.6211 306.19,294.6211 272.71,294.6211 " fill="none" id="ProductionFactorApplication-Watering" style="stroke:#181818;stroke-width:1.0;"/><text fill="#000000" font-family="sans-serif" font-size="13" lengthAdjust="spacing" textLength="7" x="326.7789" y="200.409">1</text><text fill="#000000" font-family="sans-serif" font-size="13" lengthAdjust="spacing" textLength="7" x="280.3935" y="282.1512">1</text></g><!--link ProductionFactorApplication to Revenue--><g id="link_ProductionFactorApplication_Revenue"><path codeLine="101" d="M406.17,178.3711 C406.17,217.8211 406.17,275.6311 406.17,311.9211 " fill="none" id="ProductionFactorApplication-Revenue" style="stroke:#181818;stroke-width:1.0;"/><text fill="#000000" font-family="sans-serif" font-size="13" lengthAdjust="spacing" textLength="7" x="396.3632" y="200.2508">1</text><text fill="#000000" font-family="sans-serif" font-size="13" lengthAdjust="spacing" textLength="5" x="397.8665" y="300.9689">*</text></g><!--link IrrigationSector to Watering--><g id="link_IrrigationSector_Watering"><path codeLine="103" d="M97.33,206.2911 C97.33,248.7511 97.33,294.6211 97.33,294.6211 C97.33,294.6211 145.54,294.6211 183.4,294.6211 " fill="none" id="IrrigationSector-Watering" style="stroke:#181818;stroke-width:1.0;"/><text fill="#000000" font-family="sans-serif" font-size="13" lengthAdjust="spacing" textLength="5" x="94.2718" y="228.4934">*</text><text fill="#000000" font-family="sans-serif" font-size="13" lengthAdjust="spacing" textLength="7" x="168.4334" y="281.7787">1</text></g><!--link IrrigationSector to DispersionTypes--><g id="link_IrrigationSector_DispersionTypes"><path codeLine="104" d="M54.67,206.1311 C54.67,238.1811 54.67,275.0611 54.67,302.8411 " fill="none" id="IrrigationSector-DispersionTypes" style="stroke:#181818;stroke-width:1.0;"/><text fill="#000000" font-family="sans-serif" font-size="13" lengthAdjust="spacing" textLength="5" x="47.2125" y="228.3169">*</text><text fill="#000000" font-family="sans-serif" font-size="13" lengthAdjust="spacing" textLength="7" x="43.7127" y="291.7006">1</text></g><!--SRC=[ZLHDRnCn4BtxLrYv8265a2itb2YYXq95G9n7tid6gh_a3qgruhyptdHThvEkk6J7zdjldcScVdUEqOLFcurJO6BIweEmUYCKXB3k9FGUD6FXKHe7579jZHLdRpNow1DM9mx48_HuZCyAkKSHmVIg1eGpTFP9cfwVG8NwH4c3yTaXjpwUBMDHHjBuUTn-v6k-jngauVUsGyNOQ8pVUIzxYDAQ8oMoVc01wNEtPo62Ztk8oD1qurV37wcJFYZxn3eP7Ff0F8B-dTJsPVS7cGZ37DPXaBqPaxrIVf6ofwiCp19oFCpGT0cPD598K5ziyiLPuJvusoMHSGV8vZyxfwGOYGFp-1jDGiBNmeNx_N9SuyhPmNgTr4Z9znZOQRv1s6RdAsXyvU_ohpmLAsAs9lPyOqwcKaCu8qRYMUria2yarzosThpBI8Dc8kKmvvdYUOfxCEb46iaZDLnNA-AO6RGgwQKKKDPNsBOTmotBP4cZppqTFLsLvhhKZR-IxjlKrldeb7YSsR8wnhoiHr1uwt9PmGjK54X38szYJj3UXA_Uh_XwpLVRLTFSHMWpHulOkYTl0-dJTEG6Tbj4ooozZIB5Xx42bUvY_fS_pgBYZafRwx5Yf5OgGyjOwMNjVdeQhljHQTya_0- -kWfhNy6wCKLq2TGyVEmV]--></g></svg>