<?xml version="1.0" encoding="us-ascii" standalone="no"?><svg xmlns="http://www.w3.org/2000/svg" xmlns:xlink="http://www.w3.org/1999/xlink" contentStyleType="text/css" height="4709px" preserveAspectRatio="none" style="width:1494px;height:4709px;background:#FFFFFF;" version="1.1" viewBox="0 0 1494 4709" width="1494px" zoomAndPan="magnify"><defs/><g><!--cluster Agricultural facility app--><g id="cluster_Agricultural facility app"><rect fill="none" height="4696" rx="2.5" ry="2.5" style="stroke:#181818;stroke-width:1.0;" width="1307" x="181" y="7"/><text fill="#000000" font-family="sans-serif" font-size="14" font-weight="bold" lengthAdjust="spacing" textLength="160" x="754.5" y="24.1074">Agricultural facility app</text></g><g id="elem_UC1"><ellipse cx="834.2673" cy="3110.1535" fill="#F1F1F1" rx="193.7673" ry="41.1535" style="stroke:#181818;stroke-width:0.5;"/><text fill="#000000" font-family="sans-serif" font-size="14" lengthAdjust="spacing" textLength="358" x="655.2673" y="3113.9503">USBD01 - I intend to create a dictionary of data/glossary.</text></g><g id="elem_UC2"><ellipse cx="834.6823" cy="3231.8365" fill="#F1F1F1" rx="214.6823" ry="45.3365" style="stroke:#181818;stroke-width:0.5;"/><text fill="#000000" font-family="sans-serif" font-size="14" lengthAdjust="spacing" textLength="401" x="634.1823" y="3235.6333">USBD02 - I intend to develop the relational model (logical level).</text></g><g id="elem_UC3"><ellipse cx="834.6939" cy="3362.1388" fill="#F1F1F1" rx="236.1939" ry="49.6388" style="stroke:#181818;stroke-width:0.5;"/><text fill="#000000" font-family="sans-serif" font-size="14" lengthAdjust="spacing" textLength="445" x="612.1939" y="3365.9357">USBD03 - I want the relational model to be instantiated (physical level).</text></g><g id="elem_UC4"><ellipse cx="834.3777" cy="3505.7755" fill="#F1F1F1" rx="284.3777" ry="59.2755" style="stroke:#181818;stroke-width:0.5;"/><text fill="#000000" font-family="sans-serif" font-size="14" lengthAdjust="spacing" textLength="543" x="562.8777" y="3509.5724">USBD04 - I want data to be imported from a legacy system, provided in a spreadsheet.</text></g><g id="elem_UC5"><ellipse cx="834.3261" cy="2190.9652" fill="#F1F1F1" rx="387.8261" ry="79.9652" style="stroke:#181818;stroke-width:0.5;"/><text fill="#000000" font-family="sans-serif" font-size="14" lengthAdjust="spacing" textLength="752" x="458.3261" y="2194.7621">USBD05 - I want to know the quantity of products harvested in a given portion, for each product, in a given time interval.</text></g><g id="elem_UC6"><ellipse cx="834.5361" cy="2395.2072" fill="#F1F1F1" rx="431.5361" ry="88.7072" style="stroke:#181818;stroke-width:0.5;"/><text fill="#000000" font-family="sans-serif" font-size="14" lengthAdjust="spacing" textLength="840" x="414.5361" y="2399.0041">USBD06 - I want to know the number of protection factors applied to a given portion, for each type of factor, in a given interval of time.</text></g><g id="elem_UC7"><ellipse cx="834.5097" cy="2608.1019" fill="#F1F1F1" rx="436.0097" ry="89.6019" style="stroke:#181818;stroke-width:0.5;"/><text fill="#000000" font-family="sans-serif" font-size="14" lengthAdjust="spacing" textLength="849" x="410.0097" y="2611.8988">USBD07 - I want to know the number of operations carried out in a given installment, for each type of operation, in a given time interval.</text></g><g id="elem_UC8"><ellipse cx="834.7441" cy="2815.2488" fill="#F1F1F1" rx="399.2441" ry="82.2488" style="stroke:#181818;stroke-width:0.5;"/><text fill="#000000" font-family="sans-serif" font-size="14" lengthAdjust="spacing" textLength="775" x="447.2441" y="2819.0457">USBD08 - I intend to know the production factor with more applications in the agricultural installation in a given time interval.</text></g><g id="elem_UC9"><ellipse cx="834.2877" cy="141.9575" fill="#F1F1F1" rx="477.7877" ry="97.9575" style="stroke:#181818;stroke-width:0.5;"/><text fill="#000000" font-family="sans-serif" font-size="14" lengthAdjust="spacing" textLength="933" x="367.7877" y="145.7544">USBD09 - I want to know the number of applications of each type of production factor applied in the agricultural installation in a given interval of time.</text></g><g id="elem_UC10"><ellipse cx="834.4053" cy="341.9811" fill="#F1F1F1" rx="322.9053" ry="66.9811" style="stroke:#181818;stroke-width:0.5;"/><text fill="#000000" font-family="sans-serif" font-size="14" lengthAdjust="spacing" textLength="621" x="523.9053" y="345.7779">USBD10 - I intend to know what is the parcel with more irrigation operations in a given time interval.</text></g><g id="elem_UC11"><ellipse cx="834.3611" cy="479.7722" fill="#F1F1F1" rx="164.3611" ry="35.2722" style="stroke:#181818;stroke-width:0.5;"/><text fill="#000000" font-family="sans-serif" font-size="14" lengthAdjust="spacing" textLength="297" x="685.8611" y="483.5691">USBD11 - I want to register a sowing operation.</text></g><g id="elem_UC12"><ellipse cx="834.6749" cy="587.135" fill="#F1F1F1" rx="168.6749" ry="36.135" style="stroke:#181818;stroke-width:0.5;"/><text fill="#000000" font-family="sans-serif" font-size="14" lengthAdjust="spacing" textLength="306" x="681.6749" y="590.9318">USBD12 - I want to register a weeding operation.</text></g><g id="elem_UC13"><ellipse cx="834.4041" cy="695.9808" fill="#F1F1F1" rx="175.4041" ry="37.4808" style="stroke:#181818;stroke-width:0.5;"/><text fill="#000000" font-family="sans-serif" font-size="14" lengthAdjust="spacing" textLength="320" x="674.4041" y="699.7777">USBD13 - I want to register a harvesting operation.</text></g><g id="elem_UC14"><ellipse cx="834.3179" cy="816.9636" fill="#F1F1F1" rx="230.3179" ry="48.4636" style="stroke:#181818;stroke-width:0.5;"/><text fill="#000000" font-family="sans-serif" font-size="14" lengthAdjust="spacing" textLength="433" x="617.8179" y="820.7604">USBD14 - I want to register a production factor application operation.</text></g><g id="elem_UC15"><ellipse cx="834.2564" cy="936.7513" fill="#F1F1F1" rx="166.7564" ry="35.7513" style="stroke:#181818;stroke-width:0.5;"/><text fill="#000000" font-family="sans-serif" font-size="14" lengthAdjust="spacing" textLength="302" x="683.2564" y="940.5482">USBD15 - I want to register a pruning operation.</text></g><g id="elem_UC16"><ellipse cx="834.477" cy="1084.0954" fill="#F1F1F1" rx="368.477" ry="76.0954" style="stroke:#181818;stroke-width:0.5;"/><text fill="#000000" font-family="sans-serif" font-size="14" lengthAdjust="spacing" textLength="713" x="477.977" y="1087.8923">USBD16 - I intend to obtain the list of factors collected from a given plot, for each species, in a given time interval.</text></g><g id="elem_UC17"><ellipse cx="834.4955" cy="1306.7991" fill="#F1F1F1" rx="546.9955" ry="111.7991" style="stroke:#181818;stroke-width:0.5;"/><text fill="#000000" font-family="sans-serif" font-size="14" lengthAdjust="spacing" textLength="1072" x="298.4955" y="1310.596">USBD17 - I want to obtain a list of production factors applied to a given plot, and their respective quantities, for each type of component substance, in a given time interval.</text></g><g id="elem_UC18"><ellipse cx="834.7066" cy="1537.8413" fill="#F1F1F1" rx="404.7066" ry="83.3413" style="stroke:#181818;stroke-width:0.5;"/><text fill="#000000" font-family="sans-serif" font-size="14" lengthAdjust="spacing" textLength="786" x="441.7066" y="1541.6382">USBD18 - I want to obtain the list of operations carried out on a given plot, for each type of operation, in a given time interval.</text></g><g id="elem_UC19"><ellipse cx="834.7095" cy="1786.9419" fill="#F1F1F1" rx="637.7095" ry="129.9419" style="stroke:#181818;stroke-width:0.5;"/><text fill="#000000" font-family="sans-serif" font-size="14" lengthAdjust="spacing" textLength="1254" x="207.7095" y="1790.7388">USBD19 - I intend to obtain the list of production factor applications applied in the agricultural installation, including the plot and crop (if applicable), by type of production factor, in a given time interval.</text></g><g id="elem_UC20"><ellipse cx="834.6938" cy="2014.0388" fill="#F1F1F1" rx="298.1938" ry="62.0388" style="stroke:#181818;stroke-width:0.5;"/><text fill="#000000" font-family="sans-serif" font-size="14" lengthAdjust="spacing" textLength="571" x="549.1938" y="2017.8356">USBD20 - I want to obtain the monthly irrigation totals for each plot, in a given time interval.</text></g><g id="elem_UC21"><ellipse cx="834.5666" cy="2982.9133" fill="#F1F1F1" rx="242.5666" ry="50.9133" style="stroke:#181818;stroke-width:0.5;"/><text fill="#000000" font-family="sans-serif" font-size="14" lengthAdjust="spacing" textLength="458" x="605.5666" y="2986.7102">USLP01 - I want to the domain model to be developed (conceptual level).</text></g><g id="elem_UC22"><ellipse cx="834.4649" cy="4089.893" fill="#F1F1F1" rx="317.4649" ry="65.893" style="stroke:#181818;stroke-width:0.5;"/><text fill="#000000" font-family="sans-serif" font-size="14" lengthAdjust="spacing" textLength="610" x="529.4649" y="4093.6898">USLP02 - I want to define a functionality that consists of simulating an irrigation system controller.</text></g><g id="elem_UC23"><ellipse cx="834.5897" cy="4297.9179" fill="#F1F1F1" rx="522.5897" ry="106.9179" style="stroke:#181818;stroke-width:0.5;"/><text fill="#000000" font-family="sans-serif" font-size="14" lengthAdjust="spacing" textLength="1023" x="323.0897" y="4301.7148">USLP03 - I intend to develop a functionality that allows the irrigation plan generated by the controller simulator developed at UC22 to be automatically compressed.</text></g><g id="elem_UC24"><ellipse cx="834.3573" cy="4493.1715" fill="#F1F1F1" rx="253.8573" ry="53.1715" style="stroke:#181818;stroke-width:0.5;"/><text fill="#000000" font-family="sans-serif" font-size="14" lengthAdjust="spacing" textLength="481" x="593.8573" y="4496.9683">USLP04 - I intend to develop functionalities that allow the evocation of UC11.</text></g><g id="elem_UC25"><ellipse cx="834.3573" cy="4634.1715" fill="#F1F1F1" rx="253.8573" ry="53.1715" style="stroke:#181818;stroke-width:0.5;"/><text fill="#000000" font-family="sans-serif" font-size="14" lengthAdjust="spacing" textLength="481" x="593.8573" y="4637.9683">USLP05 - I intend to develop functionalities that allow the evocation of UC12.</text></g><g id="elem_UC26"><ellipse cx="834.3573" cy="3654.1715" fill="#F1F1F1" rx="253.8573" ry="53.1715" style="stroke:#181818;stroke-width:0.5;"/><text fill="#000000" font-family="sans-serif" font-size="14" lengthAdjust="spacing" textLength="481" x="593.8573" y="3657.9683">USLP06 - I intend to develop functionalities that allow the evocation of UC13.</text></g><g id="elem_UC27"><ellipse cx="834.3573" cy="3795.1715" fill="#F1F1F1" rx="253.8573" ry="53.1715" style="stroke:#181818;stroke-width:0.5;"/><text fill="#000000" font-family="sans-serif" font-size="14" lengthAdjust="spacing" textLength="481" x="593.8573" y="3798.9683">USLP07 - I intend to develop functionalities that allow the evocation of UC14.</text></g><g id="elem_UC28"><ellipse cx="834.3573" cy="3936.1715" fill="#F1F1F1" rx="253.8573" ry="53.1715" style="stroke:#181818;stroke-width:0.5;"/><text fill="#000000" font-family="sans-serif" font-size="14" lengthAdjust="spacing" textLength="481" x="593.8573" y="3939.9683">USLP08 - I intend to develop functionalities that allow the evocation of UC15.</text></g><!--entity AG--><g id="elem_AG"><ellipse cx="71.5" cy="1276" fill="#808080" rx="8" ry="8" style="stroke:#181818;stroke-width:0.5;"/><path d="M71.5,1284 L71.5,1311 M58.5,1292 L84.5,1292 M71.5,1311 L58.5,1326 M71.5,1311 L84.5,1326 " fill="none" style="stroke:#181818;stroke-width:0.5;"/><text fill="#000000" font-family="sans-serif" font-size="14" lengthAdjust="spacing" textLength="131" x="6" y="1342.6074">Agricultural Manager</text></g><!--entity PO--><g id="elem_PO"><ellipse cx="71.5" cy="3693" fill="#008000" rx="8" ry="8" style="stroke:#181818;stroke-width:0.5;"/><path d="M71.5,3701 L71.5,3728 M58.5,3709 L84.5,3709 M71.5,3728 L58.5,3743 M71.5,3728 L84.5,3743 " fill="none" style="stroke:#181818;stroke-width:0.5;"/><text fill="#000000" font-family="sans-serif" font-size="14" lengthAdjust="spacing" textLength="94" x="24.5" y="3759.6074">Product Owner</text></g><!--link PO to UC1--><g id="link_PO_UC1"><path d="M73.69,3684.22 C78.01,3568.96 96.92,3238.52 173,3169 C315.57,3038.72 554.9,3053.85 702.97,3079.76 " fill="none" id="PO-UC1" style="stroke:#181818;stroke-width:1.0;"/></g><!--link PO to UC2--><g id="link_PO_UC2"><path d="M75.98,3684.44 C85.31,3588.27 114.23,3346.32 173,3295 C310.84,3174.62 531.99,3179.39 679.95,3200.34 " fill="none" id="PO-UC2" style="stroke:#181818;stroke-width:1.0;"/></g><!--link PO to UC3--><g id="link_PO_UC3"><path d="M73.24,3684.46 C76.78,3619.67 94.02,3491.8 173,3429 C306.29,3323.01 505.74,3317.05 650.58,3330.96 " fill="none" id="PO-UC3" style="stroke:#181818;stroke-width:1.0;"/></g><!--link PO to UC4--><g id="link_PO_UC4"><path d="M89.47,3684.28 C105.79,3651.3 133.79,3606.17 173,3583 C288.78,3514.57 435.97,3492.47 562.01,3488.71 " fill="none" id="PO-UC4" style="stroke:#181818;stroke-width:1.0;"/></g><!--link PO to UC21--><g id="link_PO_UC21"><path d="M72.34,3684.49 C72.7,3553.79 81.17,3138.73 173,3051 C300.01,2929.66 509.82,2928.68 658.87,2947.76 " fill="none" id="PO-UC21" style="stroke:#181818;stroke-width:1.0;"/></g><!--link PO to UC22--><g id="link_PO_UC22"><path d="M74.15,3763.64 C79.06,3825.95 98.28,3945.89 173,4006 C276.01,4088.87 418.82,4114.46 545.3,4117.41 " fill="none" id="PO-UC22" style="stroke:#181818;stroke-width:1.0;"/></g><!--link PO to UC23--><g id="link_PO_UC23"><path d="M75.87,3763.58 C85.11,3862.4 114.15,4116.07 173,4173 C217.88,4216.41 272.84,4247.14 331.72,4268.59 " fill="none" id="PO-UC23" style="stroke:#181818;stroke-width:1.0;"/></g><!--link PO to UC24--><g id="link_PO_UC24"><path d="M72.12,3763.54 C71.73,3897.4 77.95,4330.3 173,4422 C296.26,4540.91 498.77,4545.76 647.11,4528.86 " fill="none" id="PO-UC24" style="stroke:#181818;stroke-width:1.0;"/></g><!--link PO to UC25--><g id="link_PO_UC25"><path d="M74.39,3763.57 C82.34,3922.16 115.34,4506.04 173,4563 C295.55,4684.08 499.97,4688.03 648.99,4670.32 " fill="none" id="PO-UC25" style="stroke:#181818;stroke-width:1.0;"/></g><!--link PO to UC26--><g id="link_PO_UC26"><path d="M118.67,3719.75 C212.46,3711.13 430.86,3691.04 601.75,3675.32 " fill="none" id="PO-UC26" style="stroke:#181818;stroke-width:1.0;"/></g><!--link PO to UC27--><g id="link_PO_UC27"><path d="M118.67,3728.31 C212.54,3737.07 431.23,3757.47 602.19,3773.42 " fill="none" id="PO-UC27" style="stroke:#181818;stroke-width:1.0;"/></g><!--link PO to UC28--><g id="link_PO_UC28"><path d="M89.42,3763.81 C105.71,3796.84 133.69,3842 173,3865 C300.79,3939.76 466.51,3957.4 599.99,3956.4 " fill="none" id="PO-UC28" style="stroke:#181818;stroke-width:1.0;"/></g><!--link AG to UC5--><g id="link_AG_UC5"><path d="M74.79,1346.57 C83.97,1498.55 120.1,2039.02 173,2093 C249.27,2170.82 358.59,2204.71 466.39,2216.43 " fill="none" id="AG-UC5" style="stroke:#181818;stroke-width:1.0;"/></g><!--link AG to UC6--><g id="link_AG_UC6"><path d="M73.76,1346.76 C79.7,1521.82 107.33,2218.37 173,2288 C234.47,2353.18 318.85,2388.79 406.76,2406.75 " fill="none" id="AG-UC6" style="stroke:#181818;stroke-width:1.0;"/></g><!--link AG to UC7--><g id="link_AG_UC7"><path d="M73,1346.81 C75.84,1544.49 92.87,2414.48 173,2501 C232.99,2565.77 315.57,2601.52 402.05,2619.76 " fill="none" id="AG-UC7" style="stroke:#181818;stroke-width:1.0;"/></g><!--link AG to UC8--><g id="link_AG_UC8"><path d="M72.44,1346.53 C72.49,1564.32 77.68,2611.84 173,2715 C245.11,2793.05 350.22,2828.04 455.46,2840.79 " fill="none" id="AG-UC8" style="stroke:#181818;stroke-width:1.0;"/></g><!--link AG to UC9--><g id="link_AG_UC9"><path d="M73.5,1267.26 C78.47,1084.73 103.1,332.5 173,257 C222.52,203.51 287.34,169.31 357.01,148.16 " fill="none" id="AG-UC9" style="stroke:#181818;stroke-width:1.0;"/></g><!--link AG to UC10--><g id="link_AG_UC10"><path d="M74.19,1267.5 C81.54,1104.22 113.12,487.74 173,427 C272.94,325.63 429.53,302.1 565.16,304.99 " fill="none" id="AG-UC10" style="stroke:#181818;stroke-width:1.0;"/></g><!--link AG to UC11--><g id="link_AG_UC11"><path d="M74.76,1267.41 C83.76,1116.64 119.15,584.27 173,533 C321.61,391.5 583.8,421.46 729.13,452.63 " fill="none" id="AG-UC11" style="stroke:#181818;stroke-width:1.0;"/></g><!--link AG to UC12--><g id="link_AG_UC12"><path d="M72.34,1267.37 C72.71,1137.28 81.24,726.7 173,641 C321.72,502.09 580.23,529.36 725.83,559.48 " fill="none" id="AG-UC12" style="stroke:#181818;stroke-width:1.0;"/></g><!--link AG to UC13--><g id="link_AG_UC13"><path d="M73.65,1267.13 C77.89,1151.6 96.59,820.43 173,751 C320.97,616.56 572.34,639.27 718.59,667.75 " fill="none" id="AG-UC13" style="stroke:#181818;stroke-width:1.0;"/></g><!--link AG to UC14--><g id="link_AG_UC14"><path d="M76.14,1267.21 C85.73,1171.72 115.07,933.69 173,883 C306.02,766.61 516.73,765.99 664.3,784.2 " fill="none" id="AG-UC14" style="stroke:#181818;stroke-width:1.0;"/></g><!--link AG to UC15--><g id="link_AG_UC15"><path d="M71.99,1267.46 C73.48,1198.71 87.49,1058.02 173,990 C328.64,866.2 575.28,885.43 719.04,910.98 " fill="none" id="AG-UC15" style="stroke:#181818;stroke-width:1.0;"/></g><!--link AG to UC16--><g id="link_AG_UC16"><path d="M92.27,1267.21 C109.36,1237.26 136.99,1197.92 173,1177 C260.74,1126.03 365.8,1099.05 466.04,1085.62 " fill="none" id="AG-UC16" style="stroke:#181818;stroke-width:1.0;"/></g><!--link AG to UC17--><g id="link_AG_UC17"><path d="M137.05,1307 C175.37,1307 227.98,1307 287.26,1307 " fill="none" id="AG-UC17" style="stroke:#181818;stroke-width:1.0;"/></g><!--link AG to UC18--><g id="link_AG_UC18"><path d="M92.6,1346.66 C109.79,1376.27 137.38,1415.08 173,1436 C251.54,1482.13 344.01,1509.56 434.5,1525.42 " fill="none" id="AG-UC18" style="stroke:#181818;stroke-width:1.0;"/></g><!--link AG to UC19--><g id="link_AG_UC19"><path d="M72.39,1346.57 C74.46,1416.35 89.28,1561.22 173,1639 C208.19,1671.69 248.98,1697.72 292.69,1718.38 " fill="none" id="AG-UC19" style="stroke:#181818;stroke-width:1.0;"/></g><!--link AG to UC20--><g id="link_AG_UC20"><path d="M72.89,1346.8 C74.97,1471.7 88.3,1852.49 173,1934 C282.13,2039.02 452.76,2057.45 593.25,2050.43 " fill="none" id="AG-UC20" style="stroke:#181818;stroke-width:1.0;"/></g><!--link AG to UC21--><g id="link_AG_UC21"><path d="M73.55,1346.73 C80.1,1588.7 117,2855.62 173,2914 C296.81,3043.07 513.1,3041.05 664.33,3019.42 " fill="none" id="AG-UC21" style="stroke:#181818;stroke-width:1.0;"/></g><!--SRC=[hLVRRkCs47ttLn3fInP8MbE-vd4lG56WnGOezWDeQYmHfKWjITaGYlvxXzJ5easjqo9vcuWyvt1cU3YMS7J4QM94KJgI2mFS2QqM2yQTDkJXOs44RwHh39Fa3wPO0UQ1C4i-_af-AWoqmy9Ne_E6E_BrhFeLhr_32a0mZyfK8U4AyCYuaCArXDNrmzyBWd-D1SuiBlpsvwSlIqgUoMz4A0SgzpAv0UQ0C5GQT3BJ4dqaENFibq9gQ_4VFmVsRvzf0Y-xmilX15BNn9L034WMC2MfT0wIF4fT28wXzAi-3BXP0dSLSCzCkJGKKXq0UIscmGayGauUwxAr2VXL0dvzWVT77U2gMXiFTJIwmfn8A1XlYMsjW-g9r4QVH8wVXSAFjiRKvRO4S0FJEi6qcHn4ax-KFeS3VM-yRXUINNULjgHavWJM3Go5E84YNXAU_8aSiIk0yN9O_pHTvKG5eGpcnEIWPvFGiqthKKrr0DEhSLtF-cx2LhI-cQI0KDzvLQwjmU_lDaNY1bt-inSwwDiczEtkwTCrcD0Bbd1cZDUb6nVJOLT8MO5o2NtZ_llvsoNqxQyQVbJOL-MIDt8MhiHsDT0baFUgaTMlPzDxsqiEA-xAsYTalTnBMoG1uoWdjzg7alyNiNDbVhdLIvUfD9vBXeMqNJgPuNZFBpaKMEkYuvoqmBrSqMM2d4R9Cb08l7J6tsbz5gguu8ye2UkZsHpA6I1FmoISZgxcO7etI2CbJ8skvv1coikliZc29toCRkR16vNMcB0VkhsgkpuurlUOHCIBWU3jrbAY4Ltik7SUgQVNsjR01TZxbvact8R6RjEBOQEKcyIblJ0eOlv09GY3oV6Y77uRR3u8l74Yhl6zKUXIn3O7_v1nUCCn4gP4zwbZJ7CwOvfQpQNrVxWbJVWIVRbVxnzsftsp4tc1N3RXvWK3mGE5ed23yyYZ62tm8E734pcqy-xtXhCcF2rRpbMXqigLifrQcDCet4xUz93-UxJPZPlz_hgCtSppvRhorDD9gP_B_9Z4DJPQxPhREOmcq6ENo-4eb1yNZutgviKmRJflt8XhiQJXTR6YQdnPi1PCJS_TpL9-hJF-VfkHF4kGhsQcooG_De8-Tu_7XB2MAA00vTiOJ-_BZWik_8DKBCGbHuZc5VMvOut3X3e_Mc8H_Qt56suX7wMl4jBNCzAdmj4M9jA3C3ZfmPQFuU4PITO9aitxa6GZoIP1idqVajL8iasGxDw7P3sIx18a-_SXsOma-qLWmHzcpy_Z3wGXog9e5KNhUENLndXd5c_DhlPkud0RXxiux2mQVsg6S1D5soZQHL6yxoMA-X5h36aSPd6uYiDr7CQAQ2o9nffeB8h6gh9O5QPuyS-_]--></g></svg>