<?xml version="1.0" encoding="us-ascii" standalone="no"?><svg xmlns="http://www.w3.org/2000/svg" xmlns:xlink="http://www.w3.org/1999/xlink" contentStyleType="text/css" height="2076px" preserveAspectRatio="none" style="width:2040px;height:2076px;background:#FFFFFF;" version="1.1" viewBox="0 0 2040 2076" width="2040px" zoomAndPan="magnify"><defs/><g><!--class Repositories--><g id="elem_Repositories"><rect codeLine="4" fill="#F1F1F1" height="141.1055" id="Repositories" rx="2.5" ry="2.5" style="stroke:#181818;stroke-width:0.5;" width="233" x="721" y="1046"/><ellipse cx="793.75" cy="1062" fill="#ADD1B2" rx="11" ry="11" style="stroke:#181818;stroke-width:1.0;"/><path d="M796.5156,1057.875 Q796.6719,1057.6563 796.8594,1057.5469 Q797.0469,1057.4375 797.2656,1057.4375 Q797.6406,1057.4375 797.875,1057.7031 Q798.1094,1057.9531 798.1094,1058.5625 L798.1094,1060.0156 Q798.1094,1060.625 797.875,1060.8906 Q797.6406,1061.1563 797.2656,1061.1563 Q796.9219,1061.1563 796.7188,1060.9531 Q796.5156,1060.7656 796.4063,1060.25 Q796.3594,1059.8906 796.1719,1059.7031 Q795.8438,1059.3281 795.2344,1059.1094 Q794.625,1058.8906 794,1058.8906 Q793.2344,1058.8906 792.5938,1059.2188 Q791.9688,1059.5469 791.4688,1060.2969 Q790.9844,1061.0469 790.9844,1062.0781 L790.9844,1063.1719 Q790.9844,1064.4063 791.875,1065.2344 Q792.7656,1066.0469 794.3594,1066.0469 Q795.2969,1066.0469 795.9531,1065.7969 Q796.3438,1065.6406 796.7656,1065.2031 Q797.0313,1064.9375 797.1719,1064.8594 Q797.3281,1064.7813 797.5313,1064.7813 Q797.8594,1064.7813 798.1094,1065.0469 Q798.375,1065.2969 798.375,1065.6406 Q798.375,1065.9844 798.0313,1066.3906 Q797.5313,1066.9688 796.7344,1067.2969 Q795.6563,1067.75 794.3594,1067.75 Q792.8438,1067.75 791.6406,1067.125 Q790.6563,1066.625 789.9688,1065.5625 Q789.2813,1064.4844 789.2813,1063.2031 L789.2813,1062.0469 Q789.2813,1060.7188 789.8906,1059.5781 Q790.5156,1058.4219 791.6094,1057.8125 Q792.7031,1057.1875 793.9375,1057.1875 Q794.6719,1057.1875 795.3125,1057.3594 Q795.9688,1057.5156 796.5156,1057.875 Z " fill="#000000"/><text fill="#000000" font-family="sans-serif" font-size="14" lengthAdjust="spacing" textLength="79" x="814.25" y="1067.7969">Repositories</text><line style="stroke:#181818;stroke-width:0.5;" x1="722" x2="953" y1="1078" y2="1078"/><line style="stroke:#181818;stroke-width:0.5;" x1="722" x2="953" y1="1086" y2="1086"/><rect fill="#F24D5C" height="6" style="stroke:#C82930;stroke-width:1.0;" width="6" x="729" y="1097.8105"/><text fill="#000000" font-family="sans-serif" font-size="14" lengthAdjust="spacing" textLength="89" x="741" y="1105.1074">Repositories()</text><rect fill="#F24D5C" height="6" style="stroke:#C82930;stroke-width:1.0;" width="6" x="729" y="1116.4316"/><text fill="#000000" font-family="sans-serif" font-size="14" lengthAdjust="spacing" textLength="63" x="741" y="1123.7285">instance()</text><ellipse cx="732" cy="1138.0527" fill="#84BE84" rx="3" ry="3" style="stroke:#038048;stroke-width:1.0;"/><text fill="#000000" font-family="sans-serif" font-size="14" lengthAdjust="spacing" textLength="83" x="741" y="1142.3496">getInstance()</text><ellipse cx="732" cy="1156.6738" fill="#84BE84" rx="3" ry="3" style="stroke:#038048;stroke-width:1.0;"/><text fill="#000000" font-family="sans-serif" font-size="14" lengthAdjust="spacing" textLength="161" x="741" y="1160.9707">getOperationRepository()</text><ellipse cx="732" cy="1175.2949" fill="#84BE84" rx="3" ry="3" style="stroke:#038048;stroke-width:1.0;"/><text fill="#000000" font-family="sans-serif" font-size="14" lengthAdjust="spacing" textLength="207" x="741" y="1179.5918">getIrrigationProgramRepository()</text></g><!--class OperationRepository--><g id="elem_OperationRepository"><rect codeLine="12" fill="#F1F1F1" height="271.4531" id="OperationRepository" rx="2.5" ry="2.5" style="stroke:#181818;stroke-width:0.5;" width="440" x="443.5" y="1247"/><ellipse cx="593.75" cy="1263" fill="#ADD1B2" rx="11" ry="11" style="stroke:#181818;stroke-width:1.0;"/><path d="M596.5156,1258.875 Q596.6719,1258.6563 596.8594,1258.5469 Q597.0469,1258.4375 597.2656,1258.4375 Q597.6406,1258.4375 597.875,1258.7031 Q598.1094,1258.9531 598.1094,1259.5625 L598.1094,1261.0156 Q598.1094,1261.625 597.875,1261.8906 Q597.6406,1262.1563 597.2656,1262.1563 Q596.9219,1262.1563 596.7188,1261.9531 Q596.5156,1261.7656 596.4063,1261.25 Q596.3594,1260.8906 596.1719,1260.7031 Q595.8438,1260.3281 595.2344,1260.1094 Q594.625,1259.8906 594,1259.8906 Q593.2344,1259.8906 592.5938,1260.2188 Q591.9688,1260.5469 591.4688,1261.2969 Q590.9844,1262.0469 590.9844,1263.0781 L590.9844,1264.1719 Q590.9844,1265.4063 591.875,1266.2344 Q592.7656,1267.0469 594.3594,1267.0469 Q595.2969,1267.0469 595.9531,1266.7969 Q596.3438,1266.6406 596.7656,1266.2031 Q597.0313,1265.9375 597.1719,1265.8594 Q597.3281,1265.7813 597.5313,1265.7813 Q597.8594,1265.7813 598.1094,1266.0469 Q598.375,1266.2969 598.375,1266.6406 Q598.375,1266.9844 598.0313,1267.3906 Q597.5313,1267.9688 596.7344,1268.2969 Q595.6563,1268.75 594.3594,1268.75 Q592.8438,1268.75 591.6406,1268.125 Q590.6563,1267.625 589.9688,1266.5625 Q589.2813,1265.4844 589.2813,1264.2031 L589.2813,1263.0469 Q589.2813,1261.7188 589.8906,1260.5781 Q590.5156,1259.4219 591.6094,1258.8125 Q592.7031,1258.1875 593.9375,1258.1875 Q594.6719,1258.1875 595.3125,1258.3594 Q595.9688,1258.5156 596.5156,1258.875 Z " fill="#000000"/><text fill="#000000" font-family="sans-serif" font-size="14" lengthAdjust="spacing" textLength="131" x="614.25" y="1268.7969">OperationRepository</text><line style="stroke:#181818;stroke-width:0.5;" x1="444.5" x2="882.5" y1="1279" y2="1279"/><line style="stroke:#181818;stroke-width:0.5;" x1="444.5" x2="882.5" y1="1287" y2="1287"/><ellipse cx="454.5" cy="1301.8105" fill="#84BE84" rx="3" ry="3" style="stroke:#038048;stroke-width:1.0;"/><text fill="#000000" font-family="sans-serif" font-size="14" lengthAdjust="spacing" textLength="141" x="463.5" y="1306.1074">OperationRepository()</text><ellipse cx="454.5" cy="1320.4316" fill="#84BE84" rx="3" ry="3" style="stroke:#038048;stroke-width:1.0;"/><text fill="#000000" font-family="sans-serif" font-size="14" lengthAdjust="spacing" textLength="277" x="463.5" y="1324.7285">registerSowingOperation(date, plantationID)</text><ellipse cx="454.5" cy="1339.0527" fill="#84BE84" rx="3" ry="3" style="stroke:#038048;stroke-width:1.0;"/><text fill="#000000" font-family="sans-serif" font-size="14" lengthAdjust="spacing" textLength="269" x="463.5" y="1343.3496">registerWeedOperation(date, plantationID)</text><ellipse cx="454.5" cy="1357.6738" fill="#84BE84" rx="3" ry="3" style="stroke:#038048;stroke-width:1.0;"/><text fill="#000000" font-family="sans-serif" font-size="14" lengthAdjust="spacing" textLength="338" x="463.5" y="1361.9707">registerHarvestOperation(date, plantationID, quantity)</text><ellipse cx="454.5" cy="1376.2949" fill="#84BE84" rx="3" ry="3" style="stroke:#038048;stroke-width:1.0;"/><text fill="#000000" font-family="sans-serif" font-size="14" lengthAdjust="spacing" textLength="281" x="463.5" y="1380.5918">registerPruningOperation(date, plantationID)</text><ellipse cx="454.5" cy="1394.916" fill="#84BE84" rx="3" ry="3" style="stroke:#038048;stroke-width:1.0;"/><text fill="#000000" font-family="sans-serif" font-size="14" lengthAdjust="spacing" textLength="414" x="463.5" y="1399.2129">registerFertilizationOperation(date, plantationID, productId, mode)</text><ellipse cx="454.5" cy="1413.5371" fill="#84BE84" rx="3" ry="3" style="stroke:#038048;stroke-width:1.0;"/><text fill="#000000" font-family="sans-serif" font-size="14" lengthAdjust="spacing" textLength="199" x="463.5" y="1417.834">wateringRegister(wateringData)</text><ellipse cx="454.5" cy="1432.1582" fill="#84BE84" rx="3" ry="3" style="stroke:#038048;stroke-width:1.0;"/><text fill="#000000" font-family="sans-serif" font-size="14" lengthAdjust="spacing" textLength="217" x="463.5" y="1436.4551">sowingRegister(date, plantationID)</text><ellipse cx="454.5" cy="1450.7793" fill="#84BE84" rx="3" ry="3" style="stroke:#038048;stroke-width:1.0;"/><text fill="#000000" font-family="sans-serif" font-size="14" lengthAdjust="spacing" textLength="222" x="463.5" y="1455.0762">pruningRegister(date, plantationID)</text><ellipse cx="454.5" cy="1469.4004" fill="#84BE84" rx="3" ry="3" style="stroke:#038048;stroke-width:1.0;"/><text fill="#000000" font-family="sans-serif" font-size="14" lengthAdjust="spacing" textLength="207" x="463.5" y="1473.6973">weedRegister(date, plantationID)</text><ellipse cx="454.5" cy="1488.0215" fill="#84BE84" rx="3" ry="3" style="stroke:#038048;stroke-width:1.0;"/><text fill="#000000" font-family="sans-serif" font-size="14" lengthAdjust="spacing" textLength="279" x="463.5" y="1492.3184">harvestRegister(date, plantationID, quantity)</text><ellipse cx="454.5" cy="1506.6426" fill="#84BE84" rx="3" ry="3" style="stroke:#038048;stroke-width:1.0;"/><text fill="#000000" font-family="sans-serif" font-size="14" lengthAdjust="spacing" textLength="353" x="463.5" y="1510.9395">fertilizationRegister(date, plantationID, productID, mode)</text></g><!--class IrrigationProgramRepository--><g id="elem_IrrigationProgramRepository"><rect codeLine="27" fill="#F1F1F1" height="66.6211" id="IrrigationProgramRepository" rx="2.5" ry="2.5" style="stroke:#181818;stroke-width:0.5;" width="228" x="845.5" y="1615"/><ellipse cx="869.05" cy="1631" fill="#ADD1B2" rx="11" ry="11" style="stroke:#181818;stroke-width:1.0;"/><path d="M871.8156,1626.875 Q871.9719,1626.6563 872.1594,1626.5469 Q872.3469,1626.4375 872.5656,1626.4375 Q872.9406,1626.4375 873.175,1626.7031 Q873.4094,1626.9531 873.4094,1627.5625 L873.4094,1629.0156 Q873.4094,1629.625 873.175,1629.8906 Q872.9406,1630.1563 872.5656,1630.1563 Q872.2219,1630.1563 872.0188,1629.9531 Q871.8156,1629.7656 871.7063,1629.25 Q871.6594,1628.8906 871.4719,1628.7031 Q871.1438,1628.3281 870.5344,1628.1094 Q869.925,1627.8906 869.3,1627.8906 Q868.5344,1627.8906 867.8938,1628.2188 Q867.2688,1628.5469 866.7688,1629.2969 Q866.2844,1630.0469 866.2844,1631.0781 L866.2844,1632.1719 Q866.2844,1633.4063 867.175,1634.2344 Q868.0656,1635.0469 869.6594,1635.0469 Q870.5969,1635.0469 871.2531,1634.7969 Q871.6438,1634.6406 872.0656,1634.2031 Q872.3313,1633.9375 872.4719,1633.8594 Q872.6281,1633.7813 872.8313,1633.7813 Q873.1594,1633.7813 873.4094,1634.0469 Q873.675,1634.2969 873.675,1634.6406 Q873.675,1634.9844 873.3313,1635.3906 Q872.8313,1635.9688 872.0344,1636.2969 Q870.9563,1636.75 869.6594,1636.75 Q868.1438,1636.75 866.9406,1636.125 Q865.9563,1635.625 865.2688,1634.5625 Q864.5813,1633.4844 864.5813,1632.2031 L864.5813,1631.0469 Q864.5813,1629.7188 865.1906,1628.5781 Q865.8156,1627.4219 866.9094,1626.8125 Q868.0031,1626.1875 869.2375,1626.1875 Q869.9719,1626.1875 870.6125,1626.3594 Q871.2688,1626.5156 871.8156,1626.875 Z " fill="#000000"/><text fill="#000000" font-family="sans-serif" font-size="14" lengthAdjust="spacing" textLength="177" x="884.95" y="1636.7969">IrrigationProgramRepository</text><line style="stroke:#181818;stroke-width:0.5;" x1="846.5" x2="1072.5" y1="1647" y2="1647"/><line style="stroke:#181818;stroke-width:0.5;" x1="846.5" x2="1072.5" y1="1655" y2="1655"/><ellipse cx="856.5" cy="1669.8105" fill="#84BE84" rx="3" ry="3" style="stroke:#038048;stroke-width:1.0;"/><text fill="#000000" font-family="sans-serif" font-size="14" lengthAdjust="spacing" textLength="202" x="865.5" y="1674.1074">registerWatering (wateringData)</text></g><!--class DatabaseConnection--><g id="elem_DatabaseConnection"><rect codeLine="31" fill="#F1F1F1" height="196.9688" id="DatabaseConnection" rx="2.5" ry="2.5" style="stroke:#181818;stroke-width:0.5;" width="169" x="306" y="1825.5"/><ellipse cx="322.8" cy="1841.5" fill="#ADD1B2" rx="11" ry="11" style="stroke:#181818;stroke-width:1.0;"/><path d="M325.5656,1837.375 Q325.7219,1837.1563 325.9094,1837.0469 Q326.0969,1836.9375 326.3156,1836.9375 Q326.6906,1836.9375 326.925,1837.2031 Q327.1594,1837.4531 327.1594,1838.0625 L327.1594,1839.5156 Q327.1594,1840.125 326.925,1840.3906 Q326.6906,1840.6563 326.3156,1840.6563 Q325.9719,1840.6563 325.7688,1840.4531 Q325.5656,1840.2656 325.4563,1839.75 Q325.4094,1839.3906 325.2219,1839.2031 Q324.8938,1838.8281 324.2844,1838.6094 Q323.675,1838.3906 323.05,1838.3906 Q322.2844,1838.3906 321.6438,1838.7188 Q321.0188,1839.0469 320.5188,1839.7969 Q320.0344,1840.5469 320.0344,1841.5781 L320.0344,1842.6719 Q320.0344,1843.9063 320.925,1844.7344 Q321.8156,1845.5469 323.4094,1845.5469 Q324.3469,1845.5469 325.0031,1845.2969 Q325.3938,1845.1406 325.8156,1844.7031 Q326.0813,1844.4375 326.2219,1844.3594 Q326.3781,1844.2813 326.5813,1844.2813 Q326.9094,1844.2813 327.1594,1844.5469 Q327.425,1844.7969 327.425,1845.1406 Q327.425,1845.4844 327.0813,1845.8906 Q326.5813,1846.4688 325.7844,1846.7969 Q324.7063,1847.25 323.4094,1847.25 Q321.8938,1847.25 320.6906,1846.625 Q319.7063,1846.125 319.0188,1845.0625 Q318.3313,1843.9844 318.3313,1842.7031 L318.3313,1841.5469 Q318.3313,1840.2188 318.9406,1839.0781 Q319.5656,1837.9219 320.6594,1837.3125 Q321.7531,1836.6875 322.9875,1836.6875 Q323.7219,1836.6875 324.3625,1836.8594 Q325.0188,1837.0156 325.5656,1837.375 Z " fill="#000000"/><text fill="#000000" font-family="sans-serif" font-size="14" lengthAdjust="spacing" textLength="133" x="337.2" y="1847.2969">DatabaseConnection</text><line style="stroke:#181818;stroke-width:0.5;" x1="307" x2="474" y1="1857.5" y2="1857.5"/><line style="stroke:#181818;stroke-width:0.5;" x1="307" x2="474" y1="1865.5" y2="1865.5"/><ellipse cx="317" cy="1880.3105" fill="#84BE84" rx="3" ry="3" style="stroke:#038048;stroke-width:1.0;"/><text fill="#000000" font-family="sans-serif" font-size="14" lengthAdjust="spacing" textLength="143" x="326" y="1884.6074">DatabaseConnection()</text><ellipse cx="317" cy="1898.9316" fill="#84BE84" rx="3" ry="3" style="stroke:#038048;stroke-width:1.0;"/><text fill="#000000" font-family="sans-serif" font-size="14" lengthAdjust="spacing" textLength="102" x="326" y="1903.2285">getConnection()</text><ellipse cx="317" cy="1917.5527" fill="#84BE84" rx="3" ry="3" style="stroke:#038048;stroke-width:1.0;"/><text fill="#000000" font-family="sans-serif" font-size="14" lengthAdjust="spacing" textLength="105" x="326" y="1921.8496">testConnection()</text><ellipse cx="317" cy="1936.1738" fill="#84BE84" rx="3" ry="3" style="stroke:#038048;stroke-width:1.0;"/><text fill="#000000" font-family="sans-serif" font-size="14" lengthAdjust="spacing" textLength="115" x="326" y="1940.4707">closeConnection()</text><rect fill="#F24D5C" height="6" style="stroke:#C82930;stroke-width:1.0;" width="6" x="314" y="1951.7949"/><text fill="#000000" font-family="sans-serif" font-size="14" lengthAdjust="spacing" textLength="26" x="326" y="1959.0918">url()</text><rect fill="#F24D5C" height="6" style="stroke:#C82930;stroke-width:1.0;" width="6" x="314" y="1970.416"/><text fill="#000000" font-family="sans-serif" font-size="14" lengthAdjust="spacing" textLength="38" x="326" y="1977.7129">user()</text><rect fill="#F24D5C" height="6" style="stroke:#C82930;stroke-width:1.0;" width="6" x="314" y="1989.0371"/><text fill="#000000" font-family="sans-serif" font-size="14" lengthAdjust="spacing" textLength="70" x="326" y="1996.334">password()</text><ellipse cx="317" cy="2010.6582" fill="#84BE84" rx="3" ry="3" style="stroke:#038048;stroke-width:1.0;"/><text fill="#000000" font-family="sans-serif" font-size="14" lengthAdjust="spacing" textLength="83" x="326" y="2014.9551">getInstance()</text></g><!--class DatabaseConnectionTestController--><g id="elem_DatabaseConnectionTestController"><rect codeLine="42" fill="#F1F1F1" height="85.2422" id="DatabaseConnectionTestController" rx="2.5" ry="2.5" style="stroke:#181818;stroke-width:0.5;" width="259" x="7" y="1606"/><ellipse cx="23.8" cy="1622" fill="#ADD1B2" rx="11" ry="11" style="stroke:#181818;stroke-width:1.0;"/><path d="M26.5656,1617.875 Q26.7219,1617.6563 26.9094,1617.5469 Q27.0969,1617.4375 27.3156,1617.4375 Q27.6906,1617.4375 27.925,1617.7031 Q28.1594,1617.9531 28.1594,1618.5625 L28.1594,1620.0156 Q28.1594,1620.625 27.925,1620.8906 Q27.6906,1621.1563 27.3156,1621.1563 Q26.9719,1621.1563 26.7688,1620.9531 Q26.5656,1620.7656 26.4563,1620.25 Q26.4094,1619.8906 26.2219,1619.7031 Q25.8938,1619.3281 25.2844,1619.1094 Q24.675,1618.8906 24.05,1618.8906 Q23.2844,1618.8906 22.6438,1619.2188 Q22.0188,1619.5469 21.5188,1620.2969 Q21.0344,1621.0469 21.0344,1622.0781 L21.0344,1623.1719 Q21.0344,1624.4063 21.925,1625.2344 Q22.8156,1626.0469 24.4094,1626.0469 Q25.3469,1626.0469 26.0031,1625.7969 Q26.3938,1625.6406 26.8156,1625.2031 Q27.0813,1624.9375 27.2219,1624.8594 Q27.3781,1624.7813 27.5813,1624.7813 Q27.9094,1624.7813 28.1594,1625.0469 Q28.425,1625.2969 28.425,1625.6406 Q28.425,1625.9844 28.0813,1626.3906 Q27.5813,1626.9688 26.7844,1627.2969 Q25.7063,1627.75 24.4094,1627.75 Q22.8938,1627.75 21.6906,1627.125 Q20.7063,1626.625 20.0188,1625.5625 Q19.3313,1624.4844 19.3313,1623.2031 L19.3313,1622.0469 Q19.3313,1620.7188 19.9406,1619.5781 Q20.5656,1618.4219 21.6594,1617.8125 Q22.7531,1617.1875 23.9875,1617.1875 Q24.7219,1617.1875 25.3625,1617.3594 Q26.0188,1617.5156 26.5656,1617.875 Z " fill="#000000"/><text fill="#000000" font-family="sans-serif" font-size="14" lengthAdjust="spacing" textLength="223" x="38.2" y="1627.7969">DatabaseConnectionTestController</text><line style="stroke:#181818;stroke-width:0.5;" x1="8" x2="265" y1="1638" y2="1638"/><line style="stroke:#181818;stroke-width:0.5;" x1="8" x2="265" y1="1646" y2="1646"/><ellipse cx="18" cy="1660.8105" fill="#84BE84" rx="3" ry="3" style="stroke:#038048;stroke-width:1.0;"/><text fill="#000000" font-family="sans-serif" font-size="14" lengthAdjust="spacing" textLength="233" x="27" y="1665.1074">DatabaseConnectionTestController()</text><ellipse cx="18" cy="1679.4316" fill="#84BE84" rx="3" ry="3" style="stroke:#038048;stroke-width:1.0;"/><text fill="#000000" font-family="sans-serif" font-size="14" lengthAdjust="spacing" textLength="171" x="27" y="1683.7285">DatabaseConnectionTest()</text></g><!--class ExitController--><g id="elem_ExitController"><rect codeLine="47" fill="#F1F1F1" height="85.2422" id="ExitController" rx="2.5" ry="2.5" style="stroke:#181818;stroke-width:0.5;" width="120" x="420.5" y="835.5"/><ellipse cx="437.3" cy="851.5" fill="#ADD1B2" rx="11" ry="11" style="stroke:#181818;stroke-width:1.0;"/><path d="M440.0656,847.375 Q440.2219,847.1563 440.4094,847.0469 Q440.5969,846.9375 440.8156,846.9375 Q441.1906,846.9375 441.425,847.2031 Q441.6594,847.4531 441.6594,848.0625 L441.6594,849.5156 Q441.6594,850.125 441.425,850.3906 Q441.1906,850.6563 440.8156,850.6563 Q440.4719,850.6563 440.2688,850.4531 Q440.0656,850.2656 439.9563,849.75 Q439.9094,849.3906 439.7219,849.2031 Q439.3938,848.8281 438.7844,848.6094 Q438.175,848.3906 437.55,848.3906 Q436.7844,848.3906 436.1438,848.7188 Q435.5188,849.0469 435.0188,849.7969 Q434.5344,850.5469 434.5344,851.5781 L434.5344,852.6719 Q434.5344,853.9063 435.425,854.7344 Q436.3156,855.5469 437.9094,855.5469 Q438.8469,855.5469 439.5031,855.2969 Q439.8938,855.1406 440.3156,854.7031 Q440.5813,854.4375 440.7219,854.3594 Q440.8781,854.2813 441.0813,854.2813 Q441.4094,854.2813 441.6594,854.5469 Q441.925,854.7969 441.925,855.1406 Q441.925,855.4844 441.5813,855.8906 Q441.0813,856.4688 440.2844,856.7969 Q439.2063,857.25 437.9094,857.25 Q436.3938,857.25 435.1906,856.625 Q434.2063,856.125 433.5188,855.0625 Q432.8313,853.9844 432.8313,852.7031 L432.8313,851.5469 Q432.8313,850.2188 433.4406,849.0781 Q434.0656,847.9219 435.1594,847.3125 Q436.2531,846.6875 437.4875,846.6875 Q438.2219,846.6875 438.8625,846.8594 Q439.5188,847.0156 440.0656,847.375 Z " fill="#000000"/><text fill="#000000" font-family="sans-serif" font-size="14" lengthAdjust="spacing" textLength="84" x="451.7" y="857.2969">ExitController</text><line style="stroke:#181818;stroke-width:0.5;" x1="421.5" x2="539.5" y1="867.5" y2="867.5"/><line style="stroke:#181818;stroke-width:0.5;" x1="421.5" x2="539.5" y1="875.5" y2="875.5"/><ellipse cx="431.5" cy="890.3105" fill="#84BE84" rx="3" ry="3" style="stroke:#038048;stroke-width:1.0;"/><text fill="#000000" font-family="sans-serif" font-size="14" lengthAdjust="spacing" textLength="94" x="440.5" y="894.6074">ExitController()</text><ellipse cx="431.5" cy="908.9316" fill="#84BE84" rx="3" ry="3" style="stroke:#038048;stroke-width:1.0;"/><text fill="#000000" font-family="sans-serif" font-size="14" lengthAdjust="spacing" textLength="31" x="440.5" y="913.2285">exit()</text></g><!--class OperationRegisterController--><g id="elem_OperationRegisterController"><rect codeLine="52" fill="#F1F1F1" height="215.5898" id="OperationRegisterController" rx="2.5" ry="2.5" style="stroke:#181818;stroke-width:0.5;" width="429" x="645" y="770"/><ellipse cx="766.25" cy="786" fill="#ADD1B2" rx="11" ry="11" style="stroke:#181818;stroke-width:1.0;"/><path d="M769.0156,781.875 Q769.1719,781.6563 769.3594,781.5469 Q769.5469,781.4375 769.7656,781.4375 Q770.1406,781.4375 770.375,781.7031 Q770.6094,781.9531 770.6094,782.5625 L770.6094,784.0156 Q770.6094,784.625 770.375,784.8906 Q770.1406,785.1563 769.7656,785.1563 Q769.4219,785.1563 769.2188,784.9531 Q769.0156,784.7656 768.9063,784.25 Q768.8594,783.8906 768.6719,783.7031 Q768.3438,783.3281 767.7344,783.1094 Q767.125,782.8906 766.5,782.8906 Q765.7344,782.8906 765.0938,783.2188 Q764.4688,783.5469 763.9688,784.2969 Q763.4844,785.0469 763.4844,786.0781 L763.4844,787.1719 Q763.4844,788.4063 764.375,789.2344 Q765.2656,790.0469 766.8594,790.0469 Q767.7969,790.0469 768.4531,789.7969 Q768.8438,789.6406 769.2656,789.2031 Q769.5313,788.9375 769.6719,788.8594 Q769.8281,788.7813 770.0313,788.7813 Q770.3594,788.7813 770.6094,789.0469 Q770.875,789.2969 770.875,789.6406 Q770.875,789.9844 770.5313,790.3906 Q770.0313,790.9688 769.2344,791.2969 Q768.1563,791.75 766.8594,791.75 Q765.3438,791.75 764.1406,791.125 Q763.1563,790.625 762.4688,789.5625 Q761.7813,788.4844 761.7813,787.2031 L761.7813,786.0469 Q761.7813,784.7188 762.3906,783.5781 Q763.0156,782.4219 764.1094,781.8125 Q765.2031,781.1875 766.4375,781.1875 Q767.1719,781.1875 767.8125,781.3594 Q768.4688,781.5156 769.0156,781.875 Z " fill="#000000"/><text fill="#000000" font-family="sans-serif" font-size="14" lengthAdjust="spacing" textLength="178" x="786.75" y="791.7969">OperationRegisterController</text><line style="stroke:#181818;stroke-width:0.5;" x1="646" x2="1073" y1="802" y2="802"/><line style="stroke:#181818;stroke-width:0.5;" x1="646" x2="1073" y1="810" y2="810"/><ellipse cx="656" cy="824.8105" fill="#84BE84" rx="3" ry="3" style="stroke:#038048;stroke-width:1.0;"/><text fill="#000000" font-family="sans-serif" font-size="14" lengthAdjust="spacing" textLength="188" x="665" y="829.1074">OperationRegisterController()</text><ellipse cx="656" cy="843.4316" fill="#84BE84" rx="3" ry="3" style="stroke:#038048;stroke-width:1.0;"/><text fill="#000000" font-family="sans-serif" font-size="14" lengthAdjust="spacing" textLength="161" x="665" y="847.7285">getOperationRepository()</text><ellipse cx="656" cy="862.0527" fill="#84BE84" rx="3" ry="3" style="stroke:#038048;stroke-width:1.0;"/><text fill="#000000" font-family="sans-serif" font-size="14" lengthAdjust="spacing" textLength="207" x="665" y="866.3496">getIrrigationProgramRepository()</text><ellipse cx="656" cy="880.6738" fill="#84BE84" rx="3" ry="3" style="stroke:#038048;stroke-width:1.0;"/><text fill="#000000" font-family="sans-serif" font-size="14" lengthAdjust="spacing" textLength="277" x="665" y="884.9707">registerSowingOperation(plantationID, date)</text><ellipse cx="656" cy="899.2949" fill="#84BE84" rx="3" ry="3" style="stroke:#038048;stroke-width:1.0;"/><text fill="#000000" font-family="sans-serif" font-size="14" lengthAdjust="spacing" textLength="256" x="665" y="903.5918">registerWeedOperation(plantation, date)</text><ellipse cx="656" cy="917.916" fill="#84BE84" rx="3" ry="3" style="stroke:#038048;stroke-width:1.0;"/><text fill="#000000" font-family="sans-serif" font-size="14" lengthAdjust="spacing" textLength="338" x="665" y="922.2129">registerHarvestOperation(date, plantationID, quantity)</text><ellipse cx="656" cy="936.5371" fill="#84BE84" rx="3" ry="3" style="stroke:#038048;stroke-width:1.0;"/><text fill="#000000" font-family="sans-serif" font-size="14" lengthAdjust="spacing" textLength="281" x="665" y="940.834">registerPruningOperation(date, plantationID)</text><ellipse cx="656" cy="955.1582" fill="#84BE84" rx="3" ry="3" style="stroke:#038048;stroke-width:1.0;"/><text fill="#000000" font-family="sans-serif" font-size="14" lengthAdjust="spacing" textLength="403" x="665" y="959.4551">registerFertilizationOperation(date, plantation, productID, mode)</text><ellipse cx="656" cy="973.7793" fill="#84BE84" rx="3" ry="3" style="stroke:#038048;stroke-width:1.0;"/><text fill="#000000" font-family="sans-serif" font-size="14" lengthAdjust="spacing" textLength="251" x="665" y="978.0762">registerWateringOperation(wateringDay</text></g><!--class SprinklingSystem--><g id="elem_SprinklingSystem"><rect codeLine="64" fill="#F1F1F1" height="141.1055" id="SprinklingSystem" rx="2.5" ry="2.5" style="stroke:#181818;stroke-width:0.5;" width="318" x="1415.5" y="1578"/><ellipse cx="1516.25" cy="1594" fill="#ADD1B2" rx="11" ry="11" style="stroke:#181818;stroke-width:1.0;"/><path d="M1519.0156,1589.875 Q1519.1719,1589.6563 1519.3594,1589.5469 Q1519.5469,1589.4375 1519.7656,1589.4375 Q1520.1406,1589.4375 1520.375,1589.7031 Q1520.6094,1589.9531 1520.6094,1590.5625 L1520.6094,1592.0156 Q1520.6094,1592.625 1520.375,1592.8906 Q1520.1406,1593.1563 1519.7656,1593.1563 Q1519.4219,1593.1563 1519.2188,1592.9531 Q1519.0156,1592.7656 1518.9063,1592.25 Q1518.8594,1591.8906 1518.6719,1591.7031 Q1518.3438,1591.3281 1517.7344,1591.1094 Q1517.125,1590.8906 1516.5,1590.8906 Q1515.7344,1590.8906 1515.0938,1591.2188 Q1514.4688,1591.5469 1513.9688,1592.2969 Q1513.4844,1593.0469 1513.4844,1594.0781 L1513.4844,1595.1719 Q1513.4844,1596.4063 1514.375,1597.2344 Q1515.2656,1598.0469 1516.8594,1598.0469 Q1517.7969,1598.0469 1518.4531,1597.7969 Q1518.8438,1597.6406 1519.2656,1597.2031 Q1519.5313,1596.9375 1519.6719,1596.8594 Q1519.8281,1596.7813 1520.0313,1596.7813 Q1520.3594,1596.7813 1520.6094,1597.0469 Q1520.875,1597.2969 1520.875,1597.6406 Q1520.875,1597.9844 1520.5313,1598.3906 Q1520.0313,1598.9688 1519.2344,1599.2969 Q1518.1563,1599.75 1516.8594,1599.75 Q1515.3438,1599.75 1514.1406,1599.125 Q1513.1563,1598.625 1512.4688,1597.5625 Q1511.7813,1596.4844 1511.7813,1595.2031 L1511.7813,1594.0469 Q1511.7813,1592.7188 1512.3906,1591.5781 Q1513.0156,1590.4219 1514.1094,1589.8125 Q1515.2031,1589.1875 1516.4375,1589.1875 Q1517.1719,1589.1875 1517.8125,1589.3594 Q1518.4688,1589.5156 1519.0156,1589.875 Z " fill="#000000"/><text fill="#000000" font-family="sans-serif" font-size="14" lengthAdjust="spacing" textLength="108" x="1536.75" y="1599.7969">SprinklingSystem</text><line style="stroke:#181818;stroke-width:0.5;" x1="1416.5" x2="1732.5" y1="1610" y2="1610"/><line style="stroke:#181818;stroke-width:0.5;" x1="1416.5" x2="1732.5" y1="1618" y2="1618"/><ellipse cx="1426.5" cy="1632.8105" fill="#84BE84" rx="3" ry="3" style="stroke:#038048;stroke-width:1.0;"/><text fill="#000000" font-family="sans-serif" font-size="14" lengthAdjust="spacing" textLength="176" x="1435.5" y="1637.1074">SprinklingSystem(partitions)</text><ellipse cx="1426.5" cy="1651.4316" fill="#84BE84" rx="3" ry="3" style="stroke:#038048;stroke-width:1.0;"/><text fill="#000000" font-family="sans-serif" font-size="14" lengthAdjust="spacing" textLength="292" x="1435.5" y="1655.7285">generateSimulation(days, startTime, endTime)</text><rect fill="#F24D5C" height="6" style="stroke:#C82930;stroke-width:1.0;" width="6" x="1423.5" y="1667.0527"/><text fill="#000000" font-family="sans-serif" font-size="14" lengthAdjust="spacing" textLength="258" x="1435.5" y="1674.3496">formattHour(int startHour, int startMinute)</text><ellipse cx="1426.5" cy="1688.6738" fill="#84BE84" rx="3" ry="3" style="stroke:#038048;stroke-width:1.0;"/><text fill="#000000" font-family="sans-serif" font-size="14" lengthAdjust="spacing" textLength="127" x="1435.5" y="1692.9707">getHour(String time)</text><ellipse cx="1426.5" cy="1707.2949" fill="#84BE84" rx="3" ry="3" style="stroke:#038048;stroke-width:1.0;"/><text fill="#000000" font-family="sans-serif" font-size="14" lengthAdjust="spacing" textLength="139" x="1435.5" y="1711.5918">getMinute(String time)</text></g><!--class ResultEntry--><g id="elem_ResultEntry"><rect codeLine="72" fill="#F1F1F1" height="252.832" id="ResultEntry" rx="2.5" ry="2.5" style="stroke:#181818;stroke-width:0.5;" width="640" x="864.5" y="1797.5"/><ellipse cx="1143.75" cy="1813.5" fill="#ADD1B2" rx="11" ry="11" style="stroke:#181818;stroke-width:1.0;"/><path d="M1146.5156,1809.375 Q1146.6719,1809.1563 1146.8594,1809.0469 Q1147.0469,1808.9375 1147.2656,1808.9375 Q1147.6406,1808.9375 1147.875,1809.2031 Q1148.1094,1809.4531 1148.1094,1810.0625 L1148.1094,1811.5156 Q1148.1094,1812.125 1147.875,1812.3906 Q1147.6406,1812.6563 1147.2656,1812.6563 Q1146.9219,1812.6563 1146.7188,1812.4531 Q1146.5156,1812.2656 1146.4063,1811.75 Q1146.3594,1811.3906 1146.1719,1811.2031 Q1145.8438,1810.8281 1145.2344,1810.6094 Q1144.625,1810.3906 1144,1810.3906 Q1143.2344,1810.3906 1142.5938,1810.7188 Q1141.9688,1811.0469 1141.4688,1811.7969 Q1140.9844,1812.5469 1140.9844,1813.5781 L1140.9844,1814.6719 Q1140.9844,1815.9063 1141.875,1816.7344 Q1142.7656,1817.5469 1144.3594,1817.5469 Q1145.2969,1817.5469 1145.9531,1817.2969 Q1146.3438,1817.1406 1146.7656,1816.7031 Q1147.0313,1816.4375 1147.1719,1816.3594 Q1147.3281,1816.2813 1147.5313,1816.2813 Q1147.8594,1816.2813 1148.1094,1816.5469 Q1148.375,1816.7969 1148.375,1817.1406 Q1148.375,1817.4844 1148.0313,1817.8906 Q1147.5313,1818.4688 1146.7344,1818.7969 Q1145.6563,1819.25 1144.3594,1819.25 Q1142.8438,1819.25 1141.6406,1818.625 Q1140.6563,1818.125 1139.9688,1817.0625 Q1139.2813,1815.9844 1139.2813,1814.7031 L1139.2813,1813.5469 Q1139.2813,1812.2188 1139.8906,1811.0781 Q1140.5156,1809.9219 1141.6094,1809.3125 Q1142.7031,1808.6875 1143.9375,1808.6875 Q1144.6719,1808.6875 1145.3125,1808.8594 Q1145.9688,1809.0156 1146.5156,1809.375 Z " fill="#000000"/><text fill="#000000" font-family="sans-serif" font-size="14" lengthAdjust="spacing" textLength="73" x="1164.25" y="1819.2969">ResultEntry</text><line style="stroke:#181818;stroke-width:0.5;" x1="865.5" x2="1503.5" y1="1829.5" y2="1829.5"/><line style="stroke:#181818;stroke-width:0.5;" x1="865.5" x2="1503.5" y1="1837.5" y2="1837.5"/><ellipse cx="875.5" cy="1852.3105" fill="#84BE84" rx="3" ry="3" style="stroke:#038048;stroke-width:1.0;"/><text fill="#000000" font-family="sans-serif" font-size="14" lengthAdjust="spacing" textLength="382" x="884.5" y="1856.6074">ResultEntry(date, designation, duration, startTime, endTime)</text><ellipse cx="875.5" cy="1870.9316" fill="#84BE84" rx="3" ry="3" style="stroke:#038048;stroke-width:1.0;"/><text fill="#000000" font-family="sans-serif" font-size="14" lengthAdjust="spacing" textLength="614" x="884.5" y="1875.2285">ResultEntry(date, designation, duration, startTime, endTime, mixDesignation, recurrenceFormule)</text><ellipse cx="875.5" cy="1889.5527" fill="#84BE84" rx="3" ry="3" style="stroke:#038048;stroke-width:1.0;"/><text fill="#000000" font-family="sans-serif" font-size="14" lengthAdjust="spacing" textLength="60" x="884.5" y="1893.8496">getDate()</text><ellipse cx="875.5" cy="1908.1738" fill="#84BE84" rx="3" ry="3" style="stroke:#038048;stroke-width:1.0;"/><text fill="#000000" font-family="sans-serif" font-size="14" lengthAdjust="spacing" textLength="105" x="884.5" y="1912.4707">getDesignation()</text><ellipse cx="875.5" cy="1926.7949" fill="#84BE84" rx="3" ry="3" style="stroke:#038048;stroke-width:1.0;"/><text fill="#000000" font-family="sans-serif" font-size="14" lengthAdjust="spacing" textLength="84" x="884.5" y="1931.0918">getDuration()</text><ellipse cx="875.5" cy="1945.416" fill="#84BE84" rx="3" ry="3" style="stroke:#038048;stroke-width:1.0;"/><text fill="#000000" font-family="sans-serif" font-size="14" lengthAdjust="spacing" textLength="91" x="884.5" y="1949.7129">getStartTime()</text><ellipse cx="875.5" cy="1964.0371" fill="#84BE84" rx="3" ry="3" style="stroke:#038048;stroke-width:1.0;"/><text fill="#000000" font-family="sans-serif" font-size="14" lengthAdjust="spacing" textLength="86" x="884.5" y="1968.334">getEndTime()</text><ellipse cx="875.5" cy="1982.6582" fill="#84BE84" rx="3" ry="3" style="stroke:#038048;stroke-width:1.0;"/><text fill="#000000" font-family="sans-serif" font-size="14" lengthAdjust="spacing" textLength="156" x="884.5" y="1986.9551">getRecurrenceFormule()</text><ellipse cx="875.5" cy="2001.2793" fill="#84BE84" rx="3" ry="3" style="stroke:#038048;stroke-width:1.0;"/><text fill="#000000" font-family="sans-serif" font-size="14" lengthAdjust="spacing" textLength="125" x="884.5" y="2005.5762">getMixDesignation()</text><ellipse cx="875.5" cy="2019.9004" fill="#84BE84" rx="3" ry="3" style="stroke:#038048;stroke-width:1.0;"/><text fill="#000000" font-family="sans-serif" font-size="14" lengthAdjust="spacing" textLength="219" x="884.5" y="2024.1973">setMixDesignation(mixDesignation)</text><ellipse cx="875.5" cy="2038.5215" fill="#84BE84" rx="3" ry="3" style="stroke:#038048;stroke-width:1.0;"/><text fill="#000000" font-family="sans-serif" font-size="14" lengthAdjust="spacing" textLength="59" x="884.5" y="2042.8184">toString()</text></g><!--class Partition--><g id="elem_Partition"><rect codeLine="86" fill="#F1F1F1" height="290.0742" id="Partition" rx="2.5" ry="2.5" style="stroke:#181818;stroke-width:0.5;" width="494" x="1539.5" y="1779"/><ellipse cx="1756.25" cy="1795" fill="#ADD1B2" rx="11" ry="11" style="stroke:#181818;stroke-width:1.0;"/><path d="M1759.0156,1790.875 Q1759.1719,1790.6563 1759.3594,1790.5469 Q1759.5469,1790.4375 1759.7656,1790.4375 Q1760.1406,1790.4375 1760.375,1790.7031 Q1760.6094,1790.9531 1760.6094,1791.5625 L1760.6094,1793.0156 Q1760.6094,1793.625 1760.375,1793.8906 Q1760.1406,1794.1563 1759.7656,1794.1563 Q1759.4219,1794.1563 1759.2188,1793.9531 Q1759.0156,1793.7656 1758.9063,1793.25 Q1758.8594,1792.8906 1758.6719,1792.7031 Q1758.3438,1792.3281 1757.7344,1792.1094 Q1757.125,1791.8906 1756.5,1791.8906 Q1755.7344,1791.8906 1755.0938,1792.2188 Q1754.4688,1792.5469 1753.9688,1793.2969 Q1753.4844,1794.0469 1753.4844,1795.0781 L1753.4844,1796.1719 Q1753.4844,1797.4063 1754.375,1798.2344 Q1755.2656,1799.0469 1756.8594,1799.0469 Q1757.7969,1799.0469 1758.4531,1798.7969 Q1758.8438,1798.6406 1759.2656,1798.2031 Q1759.5313,1797.9375 1759.6719,1797.8594 Q1759.8281,1797.7813 1760.0313,1797.7813 Q1760.3594,1797.7813 1760.6094,1798.0469 Q1760.875,1798.2969 1760.875,1798.6406 Q1760.875,1798.9844 1760.5313,1799.3906 Q1760.0313,1799.9688 1759.2344,1800.2969 Q1758.1563,1800.75 1756.8594,1800.75 Q1755.3438,1800.75 1754.1406,1800.125 Q1753.1563,1799.625 1752.4688,1798.5625 Q1751.7813,1797.4844 1751.7813,1796.2031 L1751.7813,1795.0469 Q1751.7813,1793.7188 1752.3906,1792.5781 Q1753.0156,1791.4219 1754.1094,1790.8125 Q1755.2031,1790.1875 1756.4375,1790.1875 Q1757.1719,1790.1875 1757.8125,1790.3594 Q1758.4688,1790.5156 1759.0156,1790.875 Z " fill="#000000"/><text fill="#000000" font-family="sans-serif" font-size="14" lengthAdjust="spacing" textLength="52" x="1776.75" y="1800.7969">Partition</text><line style="stroke:#181818;stroke-width:0.5;" x1="1540.5" x2="2032.5" y1="1811" y2="1811"/><line style="stroke:#181818;stroke-width:0.5;" x1="1540.5" x2="2032.5" y1="1819" y2="1819"/><ellipse cx="1550.5" cy="1833.8105" fill="#84BE84" rx="3" ry="3" style="stroke:#038048;stroke-width:1.0;"/><text fill="#000000" font-family="sans-serif" font-size="14" lengthAdjust="spacing" textLength="236" x="1559.5" y="1838.1074">Partition(designation, time, regularity)</text><ellipse cx="1550.5" cy="1852.4316" fill="#84BE84" rx="3" ry="3" style="stroke:#038048;stroke-width:1.0;"/><text fill="#000000" font-family="sans-serif" font-size="14" lengthAdjust="spacing" textLength="468" x="1559.5" y="1856.7285">Partition(designation, time, regularity, mixDesignation, recurrenceFormule)</text><ellipse cx="1550.5" cy="1871.0527" fill="#84BE84" rx="3" ry="3" style="stroke:#038048;stroke-width:1.0;"/><text fill="#000000" font-family="sans-serif" font-size="14" lengthAdjust="spacing" textLength="105" x="1559.5" y="1875.3496">getDesignation()</text><ellipse cx="1550.5" cy="1889.6738" fill="#84BE84" rx="3" ry="3" style="stroke:#038048;stroke-width:1.0;"/><text fill="#000000" font-family="sans-serif" font-size="14" lengthAdjust="spacing" textLength="61" x="1559.5" y="1893.9707">getTime()</text><ellipse cx="1550.5" cy="1908.2949" fill="#84BE84" rx="3" ry="3" style="stroke:#038048;stroke-width:1.0;"/><text fill="#000000" font-family="sans-serif" font-size="14" lengthAdjust="spacing" textLength="94" x="1559.5" y="1912.5918">getRegularity()</text><ellipse cx="1550.5" cy="1926.916" fill="#84BE84" rx="3" ry="3" style="stroke:#038048;stroke-width:1.0;"/><text fill="#000000" font-family="sans-serif" font-size="14" lengthAdjust="spacing" textLength="156" x="1559.5" y="1931.2129">getRecurrenceFormule()</text><ellipse cx="1550.5" cy="1945.5371" fill="#84BE84" rx="3" ry="3" style="stroke:#038048;stroke-width:1.0;"/><text fill="#000000" font-family="sans-serif" font-size="14" lengthAdjust="spacing" textLength="220" x="1559.5" y="1949.834">getMixDesignation(mixDesignation)</text><ellipse cx="1550.5" cy="1964.1582" fill="#84BE84" rx="3" ry="3" style="stroke:#038048;stroke-width:1.0;"/><text fill="#000000" font-family="sans-serif" font-size="14" lengthAdjust="spacing" textLength="276" x="1559.5" y="1968.4551">setRecurrenceFormule(recurrenceFormule)</text><ellipse cx="1550.5" cy="1982.7793" fill="#84BE84" rx="3" ry="3" style="stroke:#038048;stroke-width:1.0;"/><text fill="#000000" font-family="sans-serif" font-size="14" lengthAdjust="spacing" textLength="152" x="1559.5" y="1987.0762">setRegularity(regularity)</text><ellipse cx="1550.5" cy="2001.4004" fill="#84BE84" rx="3" ry="3" style="stroke:#038048;stroke-width:1.0;"/><text fill="#000000" font-family="sans-serif" font-size="14" lengthAdjust="spacing" textLength="86" x="1559.5" y="2005.6973">setTime(time)</text><ellipse cx="1550.5" cy="2020.0215" fill="#84BE84" rx="3" ry="3" style="stroke:#038048;stroke-width:1.0;"/><text fill="#000000" font-family="sans-serif" font-size="14" lengthAdjust="spacing" textLength="177" x="1559.5" y="2024.3184">setDesignation(designation)</text><ellipse cx="1550.5" cy="2038.6426" fill="#84BE84" rx="3" ry="3" style="stroke:#038048;stroke-width:1.0;"/><text fill="#000000" font-family="sans-serif" font-size="14" lengthAdjust="spacing" textLength="59" x="1559.5" y="2042.9395">toString()</text><ellipse cx="1550.5" cy="2057.2637" fill="#84BE84" rx="3" ry="3" style="stroke:#038048;stroke-width:1.0;"/><text fill="#000000" font-family="sans-serif" font-size="14" lengthAdjust="spacing" textLength="68" x="1559.5" y="2061.5605">isDay(day)</text></g><!--class ReadInstructionsFromFile--><g id="elem_ReadInstructionsFromFile"><rect codeLine="102" fill="#F1F1F1" height="66.6211" id="ReadInstructionsFromFile" rx="2.5" ry="2.5" style="stroke:#181818;stroke-width:0.5;" width="194" x="1411.5" y="1349"/><ellipse cx="1426.5" cy="1365" fill="#ADD1B2" rx="11" ry="11" style="stroke:#181818;stroke-width:1.0;"/><path d="M1429.2656,1360.875 Q1429.4219,1360.6563 1429.6094,1360.5469 Q1429.7969,1360.4375 1430.0156,1360.4375 Q1430.3906,1360.4375 1430.625,1360.7031 Q1430.8594,1360.9531 1430.8594,1361.5625 L1430.8594,1363.0156 Q1430.8594,1363.625 1430.625,1363.8906 Q1430.3906,1364.1563 1430.0156,1364.1563 Q1429.6719,1364.1563 1429.4688,1363.9531 Q1429.2656,1363.7656 1429.1563,1363.25 Q1429.1094,1362.8906 1428.9219,1362.7031 Q1428.5938,1362.3281 1427.9844,1362.1094 Q1427.375,1361.8906 1426.75,1361.8906 Q1425.9844,1361.8906 1425.3438,1362.2188 Q1424.7188,1362.5469 1424.2188,1363.2969 Q1423.7344,1364.0469 1423.7344,1365.0781 L1423.7344,1366.1719 Q1423.7344,1367.4063 1424.625,1368.2344 Q1425.5156,1369.0469 1427.1094,1369.0469 Q1428.0469,1369.0469 1428.7031,1368.7969 Q1429.0938,1368.6406 1429.5156,1368.2031 Q1429.7813,1367.9375 1429.9219,1367.8594 Q1430.0781,1367.7813 1430.2813,1367.7813 Q1430.6094,1367.7813 1430.8594,1368.0469 Q1431.125,1368.2969 1431.125,1368.6406 Q1431.125,1368.9844 1430.7813,1369.3906 Q1430.2813,1369.9688 1429.4844,1370.2969 Q1428.4063,1370.75 1427.1094,1370.75 Q1425.5938,1370.75 1424.3906,1370.125 Q1423.4063,1369.625 1422.7188,1368.5625 Q1422.0313,1367.4844 1422.0313,1366.2031 L1422.0313,1365.0469 Q1422.0313,1363.7188 1422.6406,1362.5781 Q1423.2656,1361.4219 1424.3594,1360.8125 Q1425.4531,1360.1875 1426.6875,1360.1875 Q1427.4219,1360.1875 1428.0625,1360.3594 Q1428.7188,1360.5156 1429.2656,1360.875 Z " fill="#000000"/><text fill="#000000" font-family="sans-serif" font-size="14" lengthAdjust="spacing" textLength="162" x="1440.5" y="1370.7969">ReadInstructionsFromFile</text><line style="stroke:#181818;stroke-width:0.5;" x1="1412.5" x2="1604.5" y1="1381" y2="1381"/><line style="stroke:#181818;stroke-width:0.5;" x1="1412.5" x2="1604.5" y1="1389" y2="1389"/><ellipse cx="1422.5" cy="1403.8105" fill="#84BE84" rx="3" ry="3" style="stroke:#038048;stroke-width:1.0;"/><text fill="#000000" font-family="sans-serif" font-size="14" lengthAdjust="spacing" textLength="163" x="1431.5" y="1408.1074">readInformation(fileName)</text></g><!--class ProductOwnerUI--><g id="elem_ProductOwnerUI"><rect codeLine="106" fill="#F1F1F1" height="66.6211" id="ProductOwnerUI" rx="2.5" ry="2.5" style="stroke:#181818;stroke-width:0.5;" width="134" x="1010.5" y="479"/><ellipse cx="1025.5" cy="495" fill="#ADD1B2" rx="11" ry="11" style="stroke:#181818;stroke-width:1.0;"/><path d="M1028.2656,490.875 Q1028.4219,490.6563 1028.6094,490.5469 Q1028.7969,490.4375 1029.0156,490.4375 Q1029.3906,490.4375 1029.625,490.7031 Q1029.8594,490.9531 1029.8594,491.5625 L1029.8594,493.0156 Q1029.8594,493.625 1029.625,493.8906 Q1029.3906,494.1563 1029.0156,494.1563 Q1028.6719,494.1563 1028.4688,493.9531 Q1028.2656,493.7656 1028.1563,493.25 Q1028.1094,492.8906 1027.9219,492.7031 Q1027.5938,492.3281 1026.9844,492.1094 Q1026.375,491.8906 1025.75,491.8906 Q1024.9844,491.8906 1024.3438,492.2188 Q1023.7188,492.5469 1023.2188,493.2969 Q1022.7344,494.0469 1022.7344,495.0781 L1022.7344,496.1719 Q1022.7344,497.4063 1023.625,498.2344 Q1024.5156,499.0469 1026.1094,499.0469 Q1027.0469,499.0469 1027.7031,498.7969 Q1028.0938,498.6406 1028.5156,498.2031 Q1028.7813,497.9375 1028.9219,497.8594 Q1029.0781,497.7813 1029.2813,497.7813 Q1029.6094,497.7813 1029.8594,498.0469 Q1030.125,498.2969 1030.125,498.6406 Q1030.125,498.9844 1029.7813,499.3906 Q1029.2813,499.9688 1028.4844,500.2969 Q1027.4063,500.75 1026.1094,500.75 Q1024.5938,500.75 1023.3906,500.125 Q1022.4063,499.625 1021.7188,498.5625 Q1021.0313,497.4844 1021.0313,496.2031 L1021.0313,495.0469 Q1021.0313,493.7188 1021.6406,492.5781 Q1022.2656,491.4219 1023.3594,490.8125 Q1024.4531,490.1875 1025.6875,490.1875 Q1026.4219,490.1875 1027.0625,490.3594 Q1027.7188,490.5156 1028.2656,490.875 Z " fill="#000000"/><text fill="#000000" font-family="sans-serif" font-size="14" lengthAdjust="spacing" textLength="102" x="1039.5" y="500.7969">ProductOwnerUI</text><line style="stroke:#181818;stroke-width:0.5;" x1="1011.5" x2="1143.5" y1="511" y2="511"/><line style="stroke:#181818;stroke-width:0.5;" x1="1011.5" x2="1143.5" y1="519" y2="519"/><ellipse cx="1021.5" cy="533.8105" fill="#84BE84" rx="3" ry="3" style="stroke:#038048;stroke-width:1.0;"/><text fill="#000000" font-family="sans-serif" font-size="14" lengthAdjust="spacing" textLength="31" x="1030.5" y="538.1074">run()</text></g><!--class MenuItem--><g id="elem_MenuItem"><rect codeLine="110" fill="#F1F1F1" height="122.4844" id="MenuItem" rx="2.5" ry="2.5" style="stroke:#181818;stroke-width:0.5;" width="185" x="869" y="7"/><ellipse cx="926.75" cy="23" fill="#ADD1B2" rx="11" ry="11" style="stroke:#181818;stroke-width:1.0;"/><path d="M929.5156,18.875 Q929.6719,18.6563 929.8594,18.5469 Q930.0469,18.4375 930.2656,18.4375 Q930.6406,18.4375 930.875,18.7031 Q931.1094,18.9531 931.1094,19.5625 L931.1094,21.0156 Q931.1094,21.625 930.875,21.8906 Q930.6406,22.1563 930.2656,22.1563 Q929.9219,22.1563 929.7188,21.9531 Q929.5156,21.7656 929.4063,21.25 Q929.3594,20.8906 929.1719,20.7031 Q928.8438,20.3281 928.2344,20.1094 Q927.625,19.8906 927,19.8906 Q926.2344,19.8906 925.5938,20.2188 Q924.9688,20.5469 924.4688,21.2969 Q923.9844,22.0469 923.9844,23.0781 L923.9844,24.1719 Q923.9844,25.4063 924.875,26.2344 Q925.7656,27.0469 927.3594,27.0469 Q928.2969,27.0469 928.9531,26.7969 Q929.3438,26.6406 929.7656,26.2031 Q930.0313,25.9375 930.1719,25.8594 Q930.3281,25.7813 930.5313,25.7813 Q930.8594,25.7813 931.1094,26.0469 Q931.375,26.2969 931.375,26.6406 Q931.375,26.9844 931.0313,27.3906 Q930.5313,27.9688 929.7344,28.2969 Q928.6563,28.75 927.3594,28.75 Q925.8438,28.75 924.6406,28.125 Q923.6563,27.625 922.9688,26.5625 Q922.2813,25.4844 922.2813,24.2031 L922.2813,23.0469 Q922.2813,21.7188 922.8906,20.5781 Q923.5156,19.4219 924.6094,18.8125 Q925.7031,18.1875 926.9375,18.1875 Q927.6719,18.1875 928.3125,18.3594 Q928.9688,18.5156 929.5156,18.875 Z " fill="#000000"/><text fill="#000000" font-family="sans-serif" font-size="14" lengthAdjust="spacing" textLength="61" x="947.25" y="28.7969">MenuItem</text><line style="stroke:#181818;stroke-width:0.5;" x1="870" x2="1053" y1="39" y2="39"/><line style="stroke:#181818;stroke-width:0.5;" x1="870" x2="1053" y1="47" y2="47"/><ellipse cx="880" cy="61.8105" fill="#84BE84" rx="3" ry="3" style="stroke:#038048;stroke-width:1.0;"/><text fill="#000000" font-family="sans-serif" font-size="14" lengthAdjust="spacing" textLength="159" x="889" y="66.1074">MenuItem(description, ui)</text><ellipse cx="880" cy="80.4316" fill="#84BE84" rx="3" ry="3" style="stroke:#038048;stroke-width:1.0;"/><text fill="#000000" font-family="sans-serif" font-size="14" lengthAdjust="spacing" textLength="31" x="889" y="84.7285">run()</text><ellipse cx="880" cy="99.0527" fill="#84BE84" rx="3" ry="3" style="stroke:#038048;stroke-width:1.0;"/><text fill="#000000" font-family="sans-serif" font-size="14" lengthAdjust="spacing" textLength="104" x="889" y="103.3496">hasDescription()</text><ellipse cx="880" cy="117.6738" fill="#84BE84" rx="3" ry="3" style="stroke:#038048;stroke-width:1.0;"/><text fill="#000000" font-family="sans-serif" font-size="14" lengthAdjust="spacing" textLength="59" x="889" y="121.9707">toString()</text></g><!--class MainMenuUI--><g id="elem_MainMenuUI"><rect codeLine="117" fill="#F1F1F1" height="66.6211" id="MainMenuUI" rx="2.5" ry="2.5" style="stroke:#181818;stroke-width:0.5;" width="109" x="578" y="198"/><ellipse cx="593" cy="214" fill="#ADD1B2" rx="11" ry="11" style="stroke:#181818;stroke-width:1.0;"/><path d="M595.7656,209.875 Q595.9219,209.6563 596.1094,209.5469 Q596.2969,209.4375 596.5156,209.4375 Q596.8906,209.4375 597.125,209.7031 Q597.3594,209.9531 597.3594,210.5625 L597.3594,212.0156 Q597.3594,212.625 597.125,212.8906 Q596.8906,213.1563 596.5156,213.1563 Q596.1719,213.1563 595.9688,212.9531 Q595.7656,212.7656 595.6563,212.25 Q595.6094,211.8906 595.4219,211.7031 Q595.0938,211.3281 594.4844,211.1094 Q593.875,210.8906 593.25,210.8906 Q592.4844,210.8906 591.8438,211.2188 Q591.2188,211.5469 590.7188,212.2969 Q590.2344,213.0469 590.2344,214.0781 L590.2344,215.1719 Q590.2344,216.4063 591.125,217.2344 Q592.0156,218.0469 593.6094,218.0469 Q594.5469,218.0469 595.2031,217.7969 Q595.5938,217.6406 596.0156,217.2031 Q596.2813,216.9375 596.4219,216.8594 Q596.5781,216.7813 596.7813,216.7813 Q597.1094,216.7813 597.3594,217.0469 Q597.625,217.2969 597.625,217.6406 Q597.625,217.9844 597.2813,218.3906 Q596.7813,218.9688 595.9844,219.2969 Q594.9063,219.75 593.6094,219.75 Q592.0938,219.75 590.8906,219.125 Q589.9063,218.625 589.2188,217.5625 Q588.5313,216.4844 588.5313,215.2031 L588.5313,214.0469 Q588.5313,212.7188 589.1406,211.5781 Q589.7656,210.4219 590.8594,209.8125 Q591.9531,209.1875 593.1875,209.1875 Q593.9219,209.1875 594.5625,209.3594 Q595.2188,209.5156 595.7656,209.875 Z " fill="#000000"/><text fill="#000000" font-family="sans-serif" font-size="14" lengthAdjust="spacing" textLength="77" x="607" y="219.7969">MainMenuUI</text><line style="stroke:#181818;stroke-width:0.5;" x1="579" x2="686" y1="230" y2="230"/><line style="stroke:#181818;stroke-width:0.5;" x1="579" x2="686" y1="238" y2="238"/><ellipse cx="589" cy="252.8105" fill="#84BE84" rx="3" ry="3" style="stroke:#038048;stroke-width:1.0;"/><text fill="#000000" font-family="sans-serif" font-size="14" lengthAdjust="spacing" textLength="31" x="598" y="257.1074">run()</text></g><!--class GestorAgricolaUI--><g id="elem_GestorAgricolaUI"><rect codeLine="121" fill="#F1F1F1" height="85.2422" id="GestorAgricolaUI" rx="2.5" ry="2.5" style="stroke:#181818;stroke-width:0.5;" width="142" x="766.5" y="189"/><ellipse cx="783.3" cy="205" fill="#ADD1B2" rx="11" ry="11" style="stroke:#181818;stroke-width:1.0;"/><path d="M786.0656,200.875 Q786.2219,200.6563 786.4094,200.5469 Q786.5969,200.4375 786.8156,200.4375 Q787.1906,200.4375 787.425,200.7031 Q787.6594,200.9531 787.6594,201.5625 L787.6594,203.0156 Q787.6594,203.625 787.425,203.8906 Q787.1906,204.1563 786.8156,204.1563 Q786.4719,204.1563 786.2688,203.9531 Q786.0656,203.7656 785.9563,203.25 Q785.9094,202.8906 785.7219,202.7031 Q785.3938,202.3281 784.7844,202.1094 Q784.175,201.8906 783.55,201.8906 Q782.7844,201.8906 782.1438,202.2188 Q781.5188,202.5469 781.0188,203.2969 Q780.5344,204.0469 780.5344,205.0781 L780.5344,206.1719 Q780.5344,207.4063 781.425,208.2344 Q782.3156,209.0469 783.9094,209.0469 Q784.8469,209.0469 785.5031,208.7969 Q785.8938,208.6406 786.3156,208.2031 Q786.5813,207.9375 786.7219,207.8594 Q786.8781,207.7813 787.0813,207.7813 Q787.4094,207.7813 787.6594,208.0469 Q787.925,208.2969 787.925,208.6406 Q787.925,208.9844 787.5813,209.3906 Q787.0813,209.9688 786.2844,210.2969 Q785.2063,210.75 783.9094,210.75 Q782.3938,210.75 781.1906,210.125 Q780.2063,209.625 779.5188,208.5625 Q778.8313,207.4844 778.8313,206.2031 L778.8313,205.0469 Q778.8313,203.7188 779.4406,202.5781 Q780.0656,201.4219 781.1594,200.8125 Q782.2531,200.1875 783.4875,200.1875 Q784.2219,200.1875 784.8625,200.3594 Q785.5188,200.5156 786.0656,200.875 Z " fill="#000000"/><text fill="#000000" font-family="sans-serif" font-size="14" lengthAdjust="spacing" textLength="106" x="797.7" y="210.7969">GestorAgricolaUI</text><line style="stroke:#181818;stroke-width:0.5;" x1="767.5" x2="907.5" y1="221" y2="221"/><line style="stroke:#181818;stroke-width:0.5;" x1="767.5" x2="907.5" y1="229" y2="229"/><ellipse cx="777.5" cy="243.8105" fill="#84BE84" rx="3" ry="3" style="stroke:#038048;stroke-width:1.0;"/><text fill="#000000" font-family="sans-serif" font-size="14" lengthAdjust="spacing" textLength="116" x="786.5" y="248.1074">GestorAgricolaUI()</text><ellipse cx="777.5" cy="262.4316" fill="#84BE84" rx="3" ry="3" style="stroke:#038048;stroke-width:1.0;"/><text fill="#000000" font-family="sans-serif" font-size="14" lengthAdjust="spacing" textLength="31" x="786.5" y="266.7285">run()</text></g><!--class ExitUI--><g id="elem_ExitUI"><rect codeLine="126" fill="#F1F1F1" height="85.2422" id="ExitUI" rx="2.5" ry="2.5" style="stroke:#181818;stroke-width:0.5;" width="70" x="554.5" y="334"/><ellipse cx="571.3" cy="350" fill="#ADD1B2" rx="11" ry="11" style="stroke:#181818;stroke-width:1.0;"/><path d="M574.0656,345.875 Q574.2219,345.6563 574.4094,345.5469 Q574.5969,345.4375 574.8156,345.4375 Q575.1906,345.4375 575.425,345.7031 Q575.6594,345.9531 575.6594,346.5625 L575.6594,348.0156 Q575.6594,348.625 575.425,348.8906 Q575.1906,349.1563 574.8156,349.1563 Q574.4719,349.1563 574.2688,348.9531 Q574.0656,348.7656 573.9563,348.25 Q573.9094,347.8906 573.7219,347.7031 Q573.3938,347.3281 572.7844,347.1094 Q572.175,346.8906 571.55,346.8906 Q570.7844,346.8906 570.1438,347.2188 Q569.5188,347.5469 569.0188,348.2969 Q568.5344,349.0469 568.5344,350.0781 L568.5344,351.1719 Q568.5344,352.4063 569.425,353.2344 Q570.3156,354.0469 571.9094,354.0469 Q572.8469,354.0469 573.5031,353.7969 Q573.8938,353.6406 574.3156,353.2031 Q574.5813,352.9375 574.7219,352.8594 Q574.8781,352.7813 575.0813,352.7813 Q575.4094,352.7813 575.6594,353.0469 Q575.925,353.2969 575.925,353.6406 Q575.925,353.9844 575.5813,354.3906 Q575.0813,354.9688 574.2844,355.2969 Q573.2063,355.75 571.9094,355.75 Q570.3938,355.75 569.1906,355.125 Q568.2063,354.625 567.5188,353.5625 Q566.8313,352.4844 566.8313,351.2031 L566.8313,350.0469 Q566.8313,348.7188 567.4406,347.5781 Q568.0656,346.4219 569.1594,345.8125 Q570.2531,345.1875 571.4875,345.1875 Q572.2219,345.1875 572.8625,345.3594 Q573.5188,345.5156 574.0656,345.875 Z " fill="#000000"/><text fill="#000000" font-family="sans-serif" font-size="14" lengthAdjust="spacing" textLength="34" x="585.7" y="355.7969">ExitUI</text><line style="stroke:#181818;stroke-width:0.5;" x1="555.5" x2="623.5" y1="366" y2="366"/><line style="stroke:#181818;stroke-width:0.5;" x1="555.5" x2="623.5" y1="374" y2="374"/><ellipse cx="565.5" cy="388.8105" fill="#84BE84" rx="3" ry="3" style="stroke:#038048;stroke-width:1.0;"/><text fill="#000000" font-family="sans-serif" font-size="14" lengthAdjust="spacing" textLength="44" x="574.5" y="393.1074">ExitUI()</text><ellipse cx="565.5" cy="407.4316" fill="#84BE84" rx="3" ry="3" style="stroke:#038048;stroke-width:1.0;"/><text fill="#000000" font-family="sans-serif" font-size="14" lengthAdjust="spacing" textLength="31" x="574.5" y="411.7285">run()</text></g><!--class DatabaseConnectionTestUI--><g id="elem_DatabaseConnectionTestUI"><rect codeLine="131" fill="#F1F1F1" height="85.2422" id="DatabaseConnectionTestUI" rx="2.5" ry="2.5" style="stroke:#181818;stroke-width:0.5;" width="209" x="128" y="1340"/><ellipse cx="144.8" cy="1356" fill="#ADD1B2" rx="11" ry="11" style="stroke:#181818;stroke-width:1.0;"/><path d="M147.5656,1351.875 Q147.7219,1351.6563 147.9094,1351.5469 Q148.0969,1351.4375 148.3156,1351.4375 Q148.6906,1351.4375 148.925,1351.7031 Q149.1594,1351.9531 149.1594,1352.5625 L149.1594,1354.0156 Q149.1594,1354.625 148.925,1354.8906 Q148.6906,1355.1563 148.3156,1355.1563 Q147.9719,1355.1563 147.7688,1354.9531 Q147.5656,1354.7656 147.4563,1354.25 Q147.4094,1353.8906 147.2219,1353.7031 Q146.8938,1353.3281 146.2844,1353.1094 Q145.675,1352.8906 145.05,1352.8906 Q144.2844,1352.8906 143.6438,1353.2188 Q143.0188,1353.5469 142.5188,1354.2969 Q142.0344,1355.0469 142.0344,1356.0781 L142.0344,1357.1719 Q142.0344,1358.4063 142.925,1359.2344 Q143.8156,1360.0469 145.4094,1360.0469 Q146.3469,1360.0469 147.0031,1359.7969 Q147.3938,1359.6406 147.8156,1359.2031 Q148.0813,1358.9375 148.2219,1358.8594 Q148.3781,1358.7813 148.5813,1358.7813 Q148.9094,1358.7813 149.1594,1359.0469 Q149.425,1359.2969 149.425,1359.6406 Q149.425,1359.9844 149.0813,1360.3906 Q148.5813,1360.9688 147.7844,1361.2969 Q146.7063,1361.75 145.4094,1361.75 Q143.8938,1361.75 142.6906,1361.125 Q141.7063,1360.625 141.0188,1359.5625 Q140.3313,1358.4844 140.3313,1357.2031 L140.3313,1356.0469 Q140.3313,1354.7188 140.9406,1353.5781 Q141.5656,1352.4219 142.6594,1351.8125 Q143.7531,1351.1875 144.9875,1351.1875 Q145.7219,1351.1875 146.3625,1351.3594 Q147.0188,1351.5156 147.5656,1351.875 Z " fill="#000000"/><text fill="#000000" font-family="sans-serif" font-size="14" lengthAdjust="spacing" textLength="173" x="159.2" y="1361.7969">DatabaseConnectionTestUI</text><line style="stroke:#181818;stroke-width:0.5;" x1="129" x2="336" y1="1372" y2="1372"/><line style="stroke:#181818;stroke-width:0.5;" x1="129" x2="336" y1="1380" y2="1380"/><ellipse cx="139" cy="1394.8105" fill="#84BE84" rx="3" ry="3" style="stroke:#038048;stroke-width:1.0;"/><text fill="#000000" font-family="sans-serif" font-size="14" lengthAdjust="spacing" textLength="183" x="148" y="1399.1074">DatabaseConnectionTestUI()</text><ellipse cx="139" cy="1413.4316" fill="#84BE84" rx="3" ry="3" style="stroke:#038048;stroke-width:1.0;"/><text fill="#000000" font-family="sans-serif" font-size="14" lengthAdjust="spacing" textLength="31" x="148" y="1417.7285">run()</text></g><!--class AuthenticationUI--><g id="elem_AuthenticationUI"><rect codeLine="136" fill="#F1F1F1" height="66.6211" id="AuthenticationUI" rx="2.5" ry="2.5" style="stroke:#181818;stroke-width:0.5;" width="134" x="890.5" y="343"/><ellipse cx="905.5" cy="359" fill="#ADD1B2" rx="11" ry="11" style="stroke:#181818;stroke-width:1.0;"/><path d="M908.2656,354.875 Q908.4219,354.6563 908.6094,354.5469 Q908.7969,354.4375 909.0156,354.4375 Q909.3906,354.4375 909.625,354.7031 Q909.8594,354.9531 909.8594,355.5625 L909.8594,357.0156 Q909.8594,357.625 909.625,357.8906 Q909.3906,358.1563 909.0156,358.1563 Q908.6719,358.1563 908.4688,357.9531 Q908.2656,357.7656 908.1563,357.25 Q908.1094,356.8906 907.9219,356.7031 Q907.5938,356.3281 906.9844,356.1094 Q906.375,355.8906 905.75,355.8906 Q904.9844,355.8906 904.3438,356.2188 Q903.7188,356.5469 903.2188,357.2969 Q902.7344,358.0469 902.7344,359.0781 L902.7344,360.1719 Q902.7344,361.4063 903.625,362.2344 Q904.5156,363.0469 906.1094,363.0469 Q907.0469,363.0469 907.7031,362.7969 Q908.0938,362.6406 908.5156,362.2031 Q908.7813,361.9375 908.9219,361.8594 Q909.0781,361.7813 909.2813,361.7813 Q909.6094,361.7813 909.8594,362.0469 Q910.125,362.2969 910.125,362.6406 Q910.125,362.9844 909.7813,363.3906 Q909.2813,363.9688 908.4844,364.2969 Q907.4063,364.75 906.1094,364.75 Q904.5938,364.75 903.3906,364.125 Q902.4063,363.625 901.7188,362.5625 Q901.0313,361.4844 901.0313,360.2031 L901.0313,359.0469 Q901.0313,357.7188 901.6406,356.5781 Q902.2656,355.4219 903.3594,354.8125 Q904.4531,354.1875 905.6875,354.1875 Q906.4219,354.1875 907.0625,354.3594 Q907.7188,354.5156 908.2656,354.875 Z " fill="#000000"/><text fill="#000000" font-family="sans-serif" font-size="14" lengthAdjust="spacing" textLength="102" x="919.5" y="364.7969">AuthenticationUI</text><line style="stroke:#181818;stroke-width:0.5;" x1="891.5" x2="1023.5" y1="375" y2="375"/><line style="stroke:#181818;stroke-width:0.5;" x1="891.5" x2="1023.5" y1="383" y2="383"/><ellipse cx="901.5" cy="397.8105" fill="#84BE84" rx="3" ry="3" style="stroke:#038048;stroke-width:1.0;"/><text fill="#000000" font-family="sans-serif" font-size="14" lengthAdjust="spacing" textLength="31" x="910.5" y="402.1074">run()</text></g><!--class WateringRegisterUI--><g id="elem_WateringRegisterUI"><rect codeLine="140" fill="#F1F1F1" height="85.2422" id="WateringRegisterUI" rx="2.5" ry="2.5" style="stroke:#181818;stroke-width:0.5;" width="158" x="977.5" y="615.5"/><ellipse cx="994.3" cy="631.5" fill="#ADD1B2" rx="11" ry="11" style="stroke:#181818;stroke-width:1.0;"/><path d="M997.0656,627.375 Q997.2219,627.1563 997.4094,627.0469 Q997.5969,626.9375 997.8156,626.9375 Q998.1906,626.9375 998.425,627.2031 Q998.6594,627.4531 998.6594,628.0625 L998.6594,629.5156 Q998.6594,630.125 998.425,630.3906 Q998.1906,630.6563 997.8156,630.6563 Q997.4719,630.6563 997.2688,630.4531 Q997.0656,630.2656 996.9563,629.75 Q996.9094,629.3906 996.7219,629.2031 Q996.3938,628.8281 995.7844,628.6094 Q995.175,628.3906 994.55,628.3906 Q993.7844,628.3906 993.1438,628.7188 Q992.5188,629.0469 992.0188,629.7969 Q991.5344,630.5469 991.5344,631.5781 L991.5344,632.6719 Q991.5344,633.9063 992.425,634.7344 Q993.3156,635.5469 994.9094,635.5469 Q995.8469,635.5469 996.5031,635.2969 Q996.8938,635.1406 997.3156,634.7031 Q997.5813,634.4375 997.7219,634.3594 Q997.8781,634.2813 998.0813,634.2813 Q998.4094,634.2813 998.6594,634.5469 Q998.925,634.7969 998.925,635.1406 Q998.925,635.4844 998.5813,635.8906 Q998.0813,636.4688 997.2844,636.7969 Q996.2063,637.25 994.9094,637.25 Q993.3938,637.25 992.1906,636.625 Q991.2063,636.125 990.5188,635.0625 Q989.8313,633.9844 989.8313,632.7031 L989.8313,631.5469 Q989.8313,630.2188 990.4406,629.0781 Q991.0656,627.9219 992.1594,627.3125 Q993.2531,626.6875 994.4875,626.6875 Q995.2219,626.6875 995.8625,626.8594 Q996.5188,627.0156 997.0656,627.375 Z " fill="#000000"/><text fill="#000000" font-family="sans-serif" font-size="14" lengthAdjust="spacing" textLength="122" x="1008.7" y="637.2969">WateringRegisterUI</text><line style="stroke:#181818;stroke-width:0.5;" x1="978.5" x2="1134.5" y1="647.5" y2="647.5"/><line style="stroke:#181818;stroke-width:0.5;" x1="978.5" x2="1134.5" y1="655.5" y2="655.5"/><ellipse cx="988.5" cy="670.3105" fill="#84BE84" rx="3" ry="3" style="stroke:#038048;stroke-width:1.0;"/><text fill="#000000" font-family="sans-serif" font-size="14" lengthAdjust="spacing" textLength="132" x="997.5" y="674.6074">WateringRegisterUI()</text><ellipse cx="988.5" cy="688.9316" fill="#84BE84" rx="3" ry="3" style="stroke:#038048;stroke-width:1.0;"/><text fill="#000000" font-family="sans-serif" font-size="14" lengthAdjust="spacing" textLength="31" x="997.5" y="693.2285">run()</text></g><!--class SecheduleSetterUI--><g id="elem_SecheduleSetterUI"><rect codeLine="145" fill="#F1F1F1" height="103.8633" id="SecheduleSetterUI" rx="2.5" ry="2.5" style="stroke:#181818;stroke-width:0.5;" width="163" x="1171" y="606"/><ellipse cx="1192.3" cy="622" fill="#ADD1B2" rx="11" ry="11" style="stroke:#181818;stroke-width:1.0;"/><path d="M1195.0656,617.875 Q1195.2219,617.6563 1195.4094,617.5469 Q1195.5969,617.4375 1195.8156,617.4375 Q1196.1906,617.4375 1196.425,617.7031 Q1196.6594,617.9531 1196.6594,618.5625 L1196.6594,620.0156 Q1196.6594,620.625 1196.425,620.8906 Q1196.1906,621.1563 1195.8156,621.1563 Q1195.4719,621.1563 1195.2688,620.9531 Q1195.0656,620.7656 1194.9563,620.25 Q1194.9094,619.8906 1194.7219,619.7031 Q1194.3938,619.3281 1193.7844,619.1094 Q1193.175,618.8906 1192.55,618.8906 Q1191.7844,618.8906 1191.1438,619.2188 Q1190.5188,619.5469 1190.0188,620.2969 Q1189.5344,621.0469 1189.5344,622.0781 L1189.5344,623.1719 Q1189.5344,624.4063 1190.425,625.2344 Q1191.3156,626.0469 1192.9094,626.0469 Q1193.8469,626.0469 1194.5031,625.7969 Q1194.8938,625.6406 1195.3156,625.2031 Q1195.5813,624.9375 1195.7219,624.8594 Q1195.8781,624.7813 1196.0813,624.7813 Q1196.4094,624.7813 1196.6594,625.0469 Q1196.925,625.2969 1196.925,625.6406 Q1196.925,625.9844 1196.5813,626.3906 Q1196.0813,626.9688 1195.2844,627.2969 Q1194.2063,627.75 1192.9094,627.75 Q1191.3938,627.75 1190.1906,627.125 Q1189.2063,626.625 1188.5188,625.5625 Q1187.8313,624.4844 1187.8313,623.2031 L1187.8313,622.0469 Q1187.8313,620.7188 1188.4406,619.5781 Q1189.0656,618.4219 1190.1594,617.8125 Q1191.2531,617.1875 1192.4875,617.1875 Q1193.2219,617.1875 1193.8625,617.3594 Q1194.5188,617.5156 1195.0656,617.875 Z " fill="#000000"/><text fill="#000000" font-family="sans-serif" font-size="14" lengthAdjust="spacing" textLength="117" x="1207.7" y="627.7969">SecheduleSetterUI</text><line style="stroke:#181818;stroke-width:0.5;" x1="1172" x2="1333" y1="638" y2="638"/><line style="stroke:#181818;stroke-width:0.5;" x1="1172" x2="1333" y1="646" y2="646"/><ellipse cx="1182" cy="660.8105" fill="#84BE84" rx="3" ry="3" style="stroke:#038048;stroke-width:1.0;"/><text fill="#000000" font-family="sans-serif" font-size="14" lengthAdjust="spacing" textLength="31" x="1191" y="665.1074">run()</text><rect fill="#F24D5C" height="6" style="stroke:#C82930;stroke-width:1.0;" width="6" x="1179" y="676.4316"/><text fill="#000000" font-family="sans-serif" font-size="14" lengthAdjust="spacing" textLength="137" x="1191" y="683.7285">fileValidation(filePath)</text><rect fill="#F24D5C" height="6" style="stroke:#C82930;stroke-width:1.0;" width="6" x="1179" y="695.0527"/><text fill="#000000" font-family="sans-serif" font-size="14" lengthAdjust="spacing" textLength="128" x="1191" y="702.3496">promptForFilePath()</text></g><!--class IrrigationUI--><g id="elem_IrrigationUI"><rect codeLine="151" fill="#F1F1F1" height="66.6211" id="IrrigationUI" rx="2.5" ry="2.5" style="stroke:#181818;stroke-width:0.5;" width="99" x="1338" y="1083"/><ellipse cx="1353" cy="1099" fill="#ADD1B2" rx="11" ry="11" style="stroke:#181818;stroke-width:1.0;"/><path d="M1355.7656,1094.875 Q1355.9219,1094.6563 1356.1094,1094.5469 Q1356.2969,1094.4375 1356.5156,1094.4375 Q1356.8906,1094.4375 1357.125,1094.7031 Q1357.3594,1094.9531 1357.3594,1095.5625 L1357.3594,1097.0156 Q1357.3594,1097.625 1357.125,1097.8906 Q1356.8906,1098.1563 1356.5156,1098.1563 Q1356.1719,1098.1563 1355.9688,1097.9531 Q1355.7656,1097.7656 1355.6563,1097.25 Q1355.6094,1096.8906 1355.4219,1096.7031 Q1355.0938,1096.3281 1354.4844,1096.1094 Q1353.875,1095.8906 1353.25,1095.8906 Q1352.4844,1095.8906 1351.8438,1096.2188 Q1351.2188,1096.5469 1350.7188,1097.2969 Q1350.2344,1098.0469 1350.2344,1099.0781 L1350.2344,1100.1719 Q1350.2344,1101.4063 1351.125,1102.2344 Q1352.0156,1103.0469 1353.6094,1103.0469 Q1354.5469,1103.0469 1355.2031,1102.7969 Q1355.5938,1102.6406 1356.0156,1102.2031 Q1356.2813,1101.9375 1356.4219,1101.8594 Q1356.5781,1101.7813 1356.7813,1101.7813 Q1357.1094,1101.7813 1357.3594,1102.0469 Q1357.625,1102.2969 1357.625,1102.6406 Q1357.625,1102.9844 1357.2813,1103.3906 Q1356.7813,1103.9688 1355.9844,1104.2969 Q1354.9063,1104.75 1353.6094,1104.75 Q1352.0938,1104.75 1350.8906,1104.125 Q1349.9063,1103.625 1349.2188,1102.5625 Q1348.5313,1101.4844 1348.5313,1100.2031 L1348.5313,1099.0469 Q1348.5313,1097.7188 1349.1406,1096.5781 Q1349.7656,1095.4219 1350.8594,1094.8125 Q1351.9531,1094.1875 1353.1875,1094.1875 Q1353.9219,1094.1875 1354.5625,1094.3594 Q1355.2188,1094.5156 1355.7656,1094.875 Z " fill="#000000"/><text fill="#000000" font-family="sans-serif" font-size="14" lengthAdjust="spacing" textLength="67" x="1367" y="1104.7969">IrrigationUI</text><line style="stroke:#181818;stroke-width:0.5;" x1="1339" x2="1436" y1="1115" y2="1115"/><line style="stroke:#181818;stroke-width:0.5;" x1="1339" x2="1436" y1="1123" y2="1123"/><ellipse cx="1349" cy="1137.8105" fill="#84BE84" rx="3" ry="3" style="stroke:#038048;stroke-width:1.0;"/><text fill="#000000" font-family="sans-serif" font-size="14" lengthAdjust="spacing" textLength="31" x="1358" y="1142.1074">run()</text></g><!--link DatabaseConnectionTestUI to DatabaseConnectionTestController--><g id="link_DatabaseConnectionTestUI_DatabaseConnectionTestController"><path codeLine="155" d="M197,1425.24 C197,1474.88 197,1550.28 197,1599.87 " fill="none" id="DatabaseConnectionTestUI-to-DatabaseConnectionTestController" style="stroke:#181818;stroke-width:1.0;stroke-dasharray:7.0,7.0;"/><polygon fill="#181818" points="197,1605.87,201,1596.87,197,1600.87,193,1596.87,197,1605.87" style="stroke:#181818;stroke-width:1.0;"/></g><!--link ExitUI to ExitController--><g id="link_ExitUI_ExitController"><path codeLine="156" d="M589.5,419.26 C589.5,540.53 589.5,878 589.5,878 C589.5,878 571.95,878 546.74,878 " fill="none" id="ExitUI-to-ExitController" style="stroke:#181818;stroke-width:1.0;stroke-dasharray:7.0,7.0;"/><polygon fill="#181818" points="540.74,878,549.74,882,545.74,878,549.74,874,540.74,878" style="stroke:#181818;stroke-width:1.0;"/></g><!--link WateringRegisterUI to OperationRegisterController--><g id="link_WateringRegisterUI_OperationRegisterController"><path codeLine="157" d="M1025.75,700.68 C1025.75,720.55 1025.75,739.18 1025.75,763.69 " fill="none" id="WateringRegisterUI-to-OperationRegisterController" style="stroke:#181818;stroke-width:1.0;stroke-dasharray:7.0,7.0;"/><polygon fill="#181818" points="1025.75,769.69,1029.75,760.69,1025.75,764.69,1021.75,760.69,1025.75,769.69" style="stroke:#181818;stroke-width:1.0;"/></g><!--link GestorAgricolaUI to OperationRegisterController--><g id="link_GestorAgricolaUI_OperationRegisterController"><path codeLine="158" d="M828.5,274.17 C828.5,373.88 828.5,618.68 828.5,763.75 " fill="none" id="GestorAgricolaUI-to-OperationRegisterController" style="stroke:#181818;stroke-width:1.0;stroke-dasharray:7.0,7.0;"/><polygon fill="#181818" points="828.5,769.75,832.5,760.75,828.5,764.75,824.5,760.75,828.5,769.75" style="stroke:#181818;stroke-width:1.0;"/></g><!--link DatabaseConnectionTestUI to DatabaseConnection--><g id="link_DatabaseConnectionTestUI_DatabaseConnection"><path codeLine="159" d="M326.67,1425.44 C326.67,1511.37 326.67,1700.4 326.67,1819.47 " fill="none" id="DatabaseConnectionTestUI-to-DatabaseConnection" style="stroke:#181818;stroke-width:1.0;stroke-dasharray:7.0,7.0;"/><polygon fill="#181818" points="326.67,1825.47,330.67,1816.47,326.67,1820.47,322.67,1816.47,326.67,1825.47" style="stroke:#181818;stroke-width:1.0;"/></g><!--link DatabaseConnectionTestController to DatabaseConnection--><g id="link_DatabaseConnectionTestController_DatabaseConnection"><path codeLine="160" d="M266.24,1687 C294.6,1687 316.33,1687 316.33,1687 C316.33,1687 316.33,1754.18 316.33,1819.21 " fill="none" id="DatabaseConnectionTestController-to-DatabaseConnection" style="stroke:#181818;stroke-width:1.0;stroke-dasharray:7.0,7.0;"/><polygon fill="#181818" points="316.33,1825.21,320.33,1816.21,316.33,1820.21,312.33,1816.21,316.33,1825.21" style="stroke:#181818;stroke-width:1.0;"/></g><!--link ExitController to DatabaseConnection--><g id="link_ExitController_DatabaseConnection"><path codeLine="161" d="M432,920.63 C432,1074.53 432,1598.07 432,1819.47 " fill="none" id="ExitController-to-DatabaseConnection" style="stroke:#181818;stroke-width:1.0;stroke-dasharray:7.0,7.0;"/><polygon fill="#181818" points="432,1825.47,436,1816.47,432,1820.47,428,1816.47,432,1825.47" style="stroke:#181818;stroke-width:1.0;"/></g><!--link IrrigationProgramRepository to DatabaseConnection--><g id="link_IrrigationProgramRepository_DatabaseConnection"><path codeLine="162" d="M845.32,1649 C699.13,1649 464.5,1649 464.5,1649 C464.5,1649 464.5,1740.59 464.5,1819.5 " fill="none" id="IrrigationProgramRepository-to-DatabaseConnection" style="stroke:#181818;stroke-width:1.0;stroke-dasharray:7.0,7.0;"/><polygon fill="#181818" points="464.5,1825.5,468.5,1816.5,464.5,1820.5,460.5,1816.5,464.5,1825.5" style="stroke:#181818;stroke-width:1.0;"/></g><!--link OperationRepository to DatabaseConnection--><g id="link_OperationRepository_DatabaseConnection"><path codeLine="163" d="M454,1518.1 C454,1613.64 454,1733.4 454,1819.46 " fill="none" id="OperationRepository-to-DatabaseConnection" style="stroke:#181818;stroke-width:1.0;stroke-dasharray:7.0,7.0;"/><polygon fill="#181818" points="454,1825.46,458,1816.46,454,1820.46,450,1816.46,454,1825.46" style="stroke:#181818;stroke-width:1.0;"/></g><!--link WateringRegisterUI to IrrigationProgramRepository--><g id="link_WateringRegisterUI_IrrigationProgramRepository"><path codeLine="164" d="M1104.75,700.58 C1104.75,890.27 1104.75,1649 1104.75,1649 C1104.75,1649 1097.78,1649 1079.59,1649 " fill="none" id="WateringRegisterUI-to-IrrigationProgramRepository" style="stroke:#181818;stroke-width:1.0;stroke-dasharray:7.0,7.0;"/><polygon fill="#181818" points="1073.59,1649,1082.59,1653,1078.59,1649,1082.59,1645,1073.59,1649" style="stroke:#181818;stroke-width:1.0;"/></g><!--link OperationRegisterController to IrrigationProgramRepository--><g id="link_OperationRegisterController_IrrigationProgramRepository"><path codeLine="165" d="M1013.75,986.35 C1013.75,1163.55 1013.75,1500.46 1013.75,1608.83 " fill="none" id="OperationRegisterController-to-IrrigationProgramRepository" style="stroke:#181818;stroke-width:1.0;stroke-dasharray:7.0,7.0;"/><polygon fill="#181818" points="1013.75,1614.83,1017.75,1605.83,1013.75,1609.83,1009.75,1605.83,1013.75,1614.83" style="stroke:#181818;stroke-width:1.0;"/></g><!--link OperationRepository to IrrigationProgramRepository--><g id="link_OperationRepository_IrrigationProgramRepository"><path codeLine="166" d="M864.5,1518.23 C864.5,1554.22 864.5,1583.94 864.5,1608.85 " fill="none" id="OperationRepository-to-IrrigationProgramRepository" style="stroke:#181818;stroke-width:1.0;stroke-dasharray:7.0,7.0;"/><polygon fill="#181818" points="864.5,1614.85,868.5,1605.85,864.5,1609.85,860.5,1605.85,864.5,1614.85" style="stroke:#181818;stroke-width:1.0;"/></g><!--link Repositories to IrrigationProgramRepository--><g id="link_Repositories_IrrigationProgramRepository"><path codeLine="167" d="M918.75,1187.15 C918.75,1303.17 918.75,1523.71 918.75,1608.97 " fill="none" id="Repositories-to-IrrigationProgramRepository" style="stroke:#181818;stroke-width:1.0;stroke-dasharray:7.0,7.0;"/><polygon fill="#181818" points="918.75,1614.97,922.75,1605.97,918.75,1609.97,914.75,1605.97,918.75,1614.97" style="stroke:#181818;stroke-width:1.0;"/></g><!--link OperationRegisterController to OperationRepository--><g id="link_OperationRegisterController_OperationRepository"><path codeLine="168" d="M683,986.23 C683,1062.52 683,1159.24 683,1240.98 " fill="none" id="OperationRegisterController-to-OperationRepository" style="stroke:#181818;stroke-width:1.0;stroke-dasharray:7.0,7.0;"/><polygon fill="#181818" points="683,1246.98,687,1237.98,683,1241.98,679,1237.98,683,1246.98" style="stroke:#181818;stroke-width:1.0;"/></g><!--link Repositories to OperationRepository--><g id="link_Repositories_OperationRepository"><path codeLine="169" d="M802.25,1187.08 C802.25,1205.63 802.25,1220.27 802.25,1240.99 " fill="none" id="Repositories-to-OperationRepository" style="stroke:#181818;stroke-width:1.0;stroke-dasharray:7.0,7.0;"/><polygon fill="#181818" points="802.25,1246.99,806.25,1237.99,802.25,1241.99,798.25,1237.99,802.25,1246.99" style="stroke:#181818;stroke-width:1.0;"/></g><!--link OperationRegisterController to Repositories--><g id="link_OperationRegisterController_Repositories"><path codeLine="170" d="M837.5,986.08 C837.5,1006.3 837.5,1020.94 837.5,1039.67 " fill="none" id="OperationRegisterController-to-Repositories" style="stroke:#181818;stroke-width:1.0;stroke-dasharray:7.0,7.0;"/><polygon fill="#181818" points="837.5,1045.67,841.5,1036.67,837.5,1040.67,833.5,1036.67,837.5,1045.67" style="stroke:#181818;stroke-width:1.0;"/></g><!--link ReadInstructionsFromFile to SprinklingSystem--><g id="link_ReadInstructionsFromFile_SprinklingSystem"><path codeLine="171" d="M1510.5,1416.19 C1510.5,1456.66 1510.5,1519.64 1510.5,1571.94 " fill="none" id="ReadInstructionsFromFile-to-SprinklingSystem" style="stroke:#181818;stroke-width:1.0;stroke-dasharray:7.0,7.0;"/><polygon fill="#181818" points="1510.5,1577.94,1514.5,1568.94,1510.5,1572.94,1506.5,1568.94,1510.5,1577.94" style="stroke:#181818;stroke-width:1.0;"/></g><!--link ReadInstructionsFromFile to ResultEntry--><g id="link_ReadInstructionsFromFile_ResultEntry"><path codeLine="172" d="M1411.3,1383 C1397.02,1383 1387,1383 1387,1383 C1387,1383 1387,1631.26 1387,1791.16 " fill="none" id="ReadInstructionsFromFile-to-ResultEntry" style="stroke:#181818;stroke-width:1.0;stroke-dasharray:7.0,7.0;"/><polygon fill="#181818" points="1387,1797.16,1391,1788.16,1387,1792.16,1383,1788.16,1387,1797.16" style="stroke:#181818;stroke-width:1.0;"/></g><!--link IrrigationUI to ResultEntry--><g id="link_IrrigationUI_ResultEntry"><path codeLine="173" d="M1362.5,1150.17 C1362.5,1259.34 1362.5,1601.43 1362.5,1791.38 " fill="none" id="IrrigationUI-to-ResultEntry" style="stroke:#181818;stroke-width:1.0;stroke-dasharray:7.0,7.0;"/><polygon fill="#181818" points="1362.5,1797.38,1366.5,1788.38,1362.5,1792.38,1358.5,1788.38,1362.5,1797.38" style="stroke:#181818;stroke-width:1.0;"/></g><!--link WateringRegisterUI to ResultEntry--><g id="link_WateringRegisterUI_ResultEntry"><path codeLine="174" d="M1120.12,700.85 C1120.12,873.29 1120.12,1514.55 1120.12,1791.26 " fill="none" id="WateringRegisterUI-to-ResultEntry" style="stroke:#181818;stroke-width:1.0;stroke-dasharray:7.0,7.0;"/><polygon fill="#181818" points="1120.12,1797.26,1124.12,1788.26,1120.12,1792.26,1116.12,1788.26,1120.12,1797.26" style="stroke:#181818;stroke-width:1.0;"/></g><!--link OperationRegisterController to ResultEntry--><g id="link_OperationRegisterController_ResultEntry"><path codeLine="175" d="M1074.29,878 C1083.76,878 1089.38,878 1089.38,878 C1089.38,878 1089.38,1512.82 1089.38,1791.31 " fill="none" id="OperationRegisterController-to-ResultEntry" style="stroke:#181818;stroke-width:1.0;stroke-dasharray:7.0,7.0;"/><polygon fill="#181818" points="1089.38,1797.31,1093.38,1788.31,1089.38,1792.31,1085.38,1788.31,1089.38,1797.31" style="stroke:#181818;stroke-width:1.0;"/></g><!--link IrrigationProgramRepository to ResultEntry--><g id="link_IrrigationProgramRepository_ResultEntry"><path codeLine="176" d="M969,1682.01 C969,1711.04 969,1748.97 969,1791.46 " fill="none" id="IrrigationProgramRepository-to-ResultEntry" style="stroke:#181818;stroke-width:1.0;stroke-dasharray:7.0,7.0;"/><polygon fill="#181818" points="969,1797.46,973,1788.46,969,1792.46,965,1788.46,969,1797.46" style="stroke:#181818;stroke-width:1.0;"/></g><!--link OperationRepository to ResultEntry--><g id="link_OperationRepository_ResultEntry"><path codeLine="177" d="M660.25,1518.1 C660.25,1643.96 660.25,1812 660.25,1812 C660.25,1812 749.29,1812 858.44,1812 " fill="none" id="OperationRepository-to-ResultEntry" style="stroke:#181818;stroke-width:1.0;stroke-dasharray:7.0,7.0;"/><polygon fill="#181818" points="864.44,1812,855.44,1808,859.44,1812,855.44,1816,864.44,1812" style="stroke:#181818;stroke-width:1.0;"/></g><!--link SprinklingSystem to ResultEntry--><g id="link_SprinklingSystem_ResultEntry"><path codeLine="178" d="M1460,1719.09 C1460,1743 1460,1764.49 1460,1791.41 " fill="none" id="SprinklingSystem-to-ResultEntry" style="stroke:#181818;stroke-width:1.0;stroke-dasharray:7.0,7.0;"/><polygon fill="#181818" points="1460,1797.41,1464,1788.41,1460,1792.41,1456,1788.41,1460,1797.41" style="stroke:#181818;stroke-width:1.0;"/></g><!--link ReadInstructionsFromFile to Partition--><g id="link_ReadInstructionsFromFile_Partition"><path codeLine="179" d="M1605.56,1383 C1716.67,1383 1883.5,1383 1883.5,1383 C1883.5,1383 1883.5,1612.42 1883.5,1772.67 " fill="none" id="ReadInstructionsFromFile-to-Partition" style="stroke:#181818;stroke-width:1.0;stroke-dasharray:7.0,7.0;"/><polygon fill="#181818" points="1883.5,1778.67,1887.5,1769.67,1883.5,1773.67,1879.5,1769.67,1883.5,1778.67" style="stroke:#181818;stroke-width:1.0;"/></g><!--link SprinklingSystem to Partition--><g id="link_SprinklingSystem_Partition"><path codeLine="180" d="M1636.5,1719.09 C1636.5,1737.5 1636.5,1752.04 1636.5,1772.8 " fill="none" id="SprinklingSystem-to-Partition" style="stroke:#181818;stroke-width:1.0;stroke-dasharray:7.0,7.0;"/><polygon fill="#181818" points="1636.5,1778.8,1640.5,1769.8,1636.5,1773.8,1632.5,1769.8,1636.5,1778.8" style="stroke:#181818;stroke-width:1.0;"/></g><!--link IrrigationUI to ReadInstructionsFromFile--><g id="link_IrrigationUI_ReadInstructionsFromFile"><path codeLine="181" d="M1424.25,1150.19 C1424.25,1201.22 1424.25,1291.55 1424.25,1342.67 " fill="none" id="IrrigationUI-to-ReadInstructionsFromFile" style="stroke:#181818;stroke-width:1.0;stroke-dasharray:7.0,7.0;"/><polygon fill="#181818" points="1424.25,1348.67,1428.25,1339.67,1424.25,1343.67,1420.25,1339.67,1424.25,1348.67" style="stroke:#181818;stroke-width:1.0;"/></g><!--link AuthenticationUI to ProductOwnerUI--><g id="link_AuthenticationUI_ProductOwnerUI"><path codeLine="182" d="M1017.5,410.12 C1017.5,431.04 1017.5,451.86 1017.5,472.8 " fill="none" id="AuthenticationUI-to-ProductOwnerUI" style="stroke:#181818;stroke-width:1.0;stroke-dasharray:7.0,7.0;"/><polygon fill="#181818" points="1017.5,478.8,1021.5,469.8,1017.5,473.8,1013.5,469.8,1017.5,478.8" style="stroke:#181818;stroke-width:1.0;"/></g><!--reverse link MenuItem to AuthenticationUI--><g id="link_MenuItem_AuthenticationUI"><path codeLine="183" d="M966.5,135.32 C966.5,199.46 966.5,291.77 966.5,342.93 " fill="none" id="MenuItem-backto-AuthenticationUI" style="stroke:#181818;stroke-width:1.0;stroke-dasharray:7.0,7.0;"/><polygon fill="#181818" points="966.5,129.32,962.5,138.32,966.5,134.32,970.5,138.32,966.5,129.32" style="stroke:#181818;stroke-width:1.0;"/></g><!--reverse link MenuItem to MainMenuUI--><g id="link_MenuItem_MainMenuUI"><path codeLine="184" d="M862.98,68 C765.67,68 632.5,68 632.5,68 C632.5,68 632.5,149.73 632.5,197.62 " fill="none" id="MenuItem-backto-MainMenuUI" style="stroke:#181818;stroke-width:1.0;stroke-dasharray:7.0,7.0;"/><polygon fill="#181818" points="868.98,68,859.98,64,863.98,68,859.98,72,868.98,68" style="stroke:#181818;stroke-width:1.0;"/></g><!--reverse link MenuItem to ProductOwnerUI--><g id="link_MenuItem_ProductOwnerUI"><path codeLine="185" d="M1039.25,135.34 C1039.25,230.48 1039.25,404.43 1039.25,478.91 " fill="none" id="MenuItem-backto-ProductOwnerUI" style="stroke:#181818;stroke-width:1.0;stroke-dasharray:7.0,7.0;"/><polygon fill="#181818" points="1039.25,129.34,1035.25,138.34,1039.25,134.34,1043.25,138.34,1039.25,129.34" style="stroke:#181818;stroke-width:1.0;"/></g><!--link GestorAgricolaUI to AuthenticationUI--><g id="link_GestorAgricolaUI_AuthenticationUI"><path codeLine="186" d="M899.5,274.22 C899.5,296.11 899.5,316.38 899.5,336.81 " fill="none" id="GestorAgricolaUI-to-AuthenticationUI" style="stroke:#181818;stroke-width:1.0;stroke-dasharray:7.0,7.0;"/><polygon fill="#181818" points="899.5,342.81,903.5,333.81,899.5,337.81,895.5,333.81,899.5,342.81" style="stroke:#181818;stroke-width:1.0;"/></g><!--link MainMenuUI to ExitUI--><g id="link_MainMenuUI_ExitUI"><path codeLine="187" d="M601.25,265.13 C601.25,285.63 601.25,306.01 601.25,327.95 " fill="none" id="MainMenuUI-to-ExitUI" style="stroke:#181818;stroke-width:1.0;stroke-dasharray:7.0,7.0;"/><polygon fill="#181818" points="601.25,333.95,605.25,324.95,601.25,328.95,597.25,324.95,601.25,333.95" style="stroke:#181818;stroke-width:1.0;"/></g><!--link MainMenuUI to DatabaseConnectionTestUI--><g id="link_MainMenuUI_DatabaseConnectionTestUI"><path codeLine="188" d="M577.72,232 C468.17,232 232.5,232 232.5,232 C232.5,232 232.5,1125.63 232.5,1333.84 " fill="none" id="MainMenuUI-to-DatabaseConnectionTestUI" style="stroke:#181818;stroke-width:1.0;stroke-dasharray:7.0,7.0;"/><polygon fill="#181818" points="232.5,1339.84,236.5,1330.84,232.5,1334.84,228.5,1330.84,232.5,1339.84" style="stroke:#181818;stroke-width:1.0;"/></g><!--link MainMenuUI to AuthenticationUI--><g id="link_MainMenuUI_AuthenticationUI"><path codeLine="189" d="M666,265.25 C666,308.23 666,377 666,377 C666,377 798.17,377 884.26,377 " fill="none" id="MainMenuUI-to-AuthenticationUI" style="stroke:#181818;stroke-width:1.0;stroke-dasharray:7.0,7.0;"/><polygon fill="#181818" points="890.26,377,881.26,373,885.26,377,881.26,381,890.26,377" style="stroke:#181818;stroke-width:1.0;"/></g><!--link ProductOwnerUI to WateringRegisterUI--><g id="link_ProductOwnerUI_WateringRegisterUI"><path codeLine="190" d="M1073,546.25 C1073,566.81 1073,587.29 1073,609.3 " fill="none" id="ProductOwnerUI-to-WateringRegisterUI" style="stroke:#181818;stroke-width:1.0;stroke-dasharray:7.0,7.0;"/><polygon fill="#181818" points="1073,615.3,1077,606.3,1073,610.3,1069,606.3,1073,615.3" style="stroke:#181818;stroke-width:1.0;"/></g><!--link ProductOwnerUI to SecheduleSetterUI--><g id="link_ProductOwnerUI_SecheduleSetterUI"><path codeLine="191" d="M1141.5,546.12 C1141.5,574.66 1141.5,611 1141.5,611 C1141.5,611 1148.17,611 1164.95,611 " fill="none" id="ProductOwnerUI-to-SecheduleSetterUI" style="stroke:#181818;stroke-width:1.0;stroke-dasharray:7.0,7.0;"/><polygon fill="#181818" points="1170.95,611,1161.95,607,1165.95,611,1161.95,615,1170.95,611" style="stroke:#181818;stroke-width:1.0;"/></g><!--link ProductOwnerUI to IrrigationUI--><g id="link_ProductOwnerUI_IrrigationUI"><path codeLine="192" d="M1138.5,546.3 C1138.5,673.6 1138.5,1117 1138.5,1117 C1138.5,1117 1259.05,1117 1331.71,1117 " fill="none" id="ProductOwnerUI-to-IrrigationUI" style="stroke:#181818;stroke-width:1.0;stroke-dasharray:7.0,7.0;"/><polygon fill="#181818" points="1337.71,1117,1328.71,1113,1332.71,1117,1328.71,1121,1337.71,1117" style="stroke:#181818;stroke-width:1.0;"/></g><!--SRC=[pLTBZzCm4BxdL-H6LdIxTuIG4Dr23mlLbiVP9DxM8h63xT0jA_uxOpjEubTAjHTEZSVVV9wNPzmN1obRyUhcfgqHbLrJBqlMt9Gr4kAw8cZFKPE97uIs2Bxocb0iJotE6PS7bcNl52w_noqJH39Ei7ZAhfrrSGK2GeL4jCImU9dliTnuwqyjvaWIHWVDqm3bdEprtfOpPOq3-MDDY30y0K6AcECz4HBp7JiIkXzGHOKaNkGw55gmMKtHtp2k_XNx0V5VMCWv-2B_sS6AoDDKSSixUe5DQymbgSbllJL_MijPrPLoKotoXbLOiHm1nk6q-vwji88LaaW1X0xGi1stfJKcdq4T8Nfd80SJj1cK6xE7gVEpMjRtbVLzg9oP0dkQvhuFJEw5QE1Ho-z8u7UCKbmgFgKUIcrXUn89VdkYicQUudNUyThy2d1KVRHmzf7nAdArPapxR4wJdDKrvd53NOpcZuEcHzq-4e_ObMWQ3AB4vJN1TXbcjf_TGDAjmAqVLLFfLZ1YG-H_rWWYLo4iyb5zBFRJcAzT2w8VC0lsknEeDIf9lgo0WG4U0OSmYQ2A4kz8qzNMifDOv52jN7uc3HY9QQK-L5K_CDuWAJ-mZXU4IeDIgqK-BEy8xKoe8SiQkPFwXafDeiK6usxy6SUMw6fv2xMaR_fasKUjmeBigSrhn_klcCdFKeT4aCVL5CrnsN6EuHwl8H9TRVs12pWCpOd28EeFiUkTFSeARis1Tddl7rCCSNlqwKKWTOtMJOoPI4ylzzRMWOhni2YSu4WT1AX2g0tUNuD_X5uGkp1URYmivQNH2UCWOifHkuHpi1i1qHjewrcuFbJ9sB_CYO0BgswOK-weKjE1TxfpYpLdpPhKs4mvjMTkdU9-0Fb7vDoMhMaRduvmaRzij597fuc-mxJRzDt0VYiZIqvQavcEN0rgQjYBrRXRfEhd3X6gwA9dleVEolZRFISbgv61-BBYAjHJGycWpLSC4nzsHYkr5-Dvsya3XkvUwj16tVZcFSCCA9J6w7UuFE0Aocc7fNHJ0tqKylWLrQGQqxf5yg0V3f3-La8fhdjX4NqKUVQc7C-NopTdtn2P2RR6ki-2BFHLesP6V-Rd-Qp2XRPdvzn9wRckfL0pxvAKIkILau8cuZbpQ3OJkajq7SlcTAR_4fzjNCI0y80Ow1pnb2HBjL2Dz5z0y-Z9So6RthPWCv79AUIy3x6pucMNu4rYVAy3m6mKXY4Vvnct8o6AqsP-kpL4pl3Ax7ZANo-NGNzsTyVnuyezncWp2fa7ig47Xj9Kc_9n0RjhaiQ4nHD31ICa1ffc8Ckolm00]--></g></svg>