<?xml version="1.0" encoding="us-ascii" standalone="no"?><svg xmlns="http://www.w3.org/2000/svg" xmlns:xlink="http://www.w3.org/1999/xlink" contentStyleType="text/css" height="887px" preserveAspectRatio="none" style="width:1748px;height:887px;background:#FFFFFF;" version="1.1" viewBox="0 0 1748 887" width="1748px" zoomAndPan="magnify"><defs/><g><text fill="#000000" font-family="sans-serif" font-size="14" font-weight="bold" lengthAdjust="spacing" textLength="100" x="817" y="25.1074">Domain Model</text><!--class AgriculturalParcel--><g id="elem_AgriculturalParcel"><rect codeLine="10" fill="#F1F1F1" height="92.4844" id="AgriculturalParcel" rx="2.5" ry="2.5" style="stroke:#181818;stroke-width:0.5;" width="126" x="120" y="46.6211"/><text fill="#000000" font-family="sans-serif" font-size="14" lengthAdjust="spacing" textLength="111" x="127.5" y="66.7285">AgriculturalParcel</text><line style="stroke:#181818;stroke-width:0.5;" x1="121" x2="245" y1="75.2422" y2="75.2422"/><text fill="#000000" font-family="sans-serif" font-size="14" lengthAdjust="spacing" textLength="52" x="126" y="94.3496">parcelID</text><text fill="#000000" font-family="sans-serif" font-size="14" lengthAdjust="spacing" textLength="114" x="126" y="112.9707">parcelDesignation</text><text fill="#000000" font-family="sans-serif" font-size="14" lengthAdjust="spacing" textLength="29" x="126" y="131.5918">area</text></g><!--class Plantation--><g id="elem_Plantation"><rect codeLine="16" fill="#F1F1F1" height="111.1055" id="Plantation" rx="2.5" ry="2.5" style="stroke:#181818;stroke-width:0.5;" width="70" x="1239" y="217.6211"/><text fill="#000000" font-family="sans-serif" font-size="14" lengthAdjust="spacing" textLength="63" x="1242.5" y="237.7285">Plantation</text><line style="stroke:#181818;stroke-width:0.5;" x1="1240" x2="1308" y1="246.2422" y2="246.2422"/><text fill="#000000" font-family="sans-serif" font-size="14" lengthAdjust="spacing" textLength="45" x="1245" y="265.3496">cycleID</text><text fill="#000000" font-family="sans-serif" font-size="14" lengthAdjust="spacing" textLength="58" x="1245" y="283.9707">startDate</text><text fill="#000000" font-family="sans-serif" font-size="14" lengthAdjust="spacing" textLength="54" x="1245" y="302.5918">endDate</text><text fill="#000000" font-family="sans-serif" font-size="14" lengthAdjust="spacing" textLength="50" x="1245" y="321.2129">quantity</text></g><!--class Operation--><g id="elem_Operation"><rect codeLine="23" fill="#F1F1F1" height="92.4844" id="Operation" rx="2.5" ry="2.5" style="stroke:#181818;stroke-width:0.5;" width="85" x="498.5" y="598.1211"/><text fill="#000000" font-family="sans-serif" font-size="14" lengthAdjust="spacing" textLength="63" x="509.5" y="618.2285">Operation</text><line style="stroke:#181818;stroke-width:0.5;" x1="499.5" x2="582.5" y1="626.7422" y2="626.7422"/><text fill="#000000" font-family="sans-serif" font-size="14" lengthAdjust="spacing" textLength="73" x="504.5" y="645.8496">operationID</text><text fill="#000000" font-family="sans-serif" font-size="14" lengthAdjust="spacing" textLength="28" x="504.5" y="664.4707">date</text><text fill="#000000" font-family="sans-serif" font-size="14" lengthAdjust="spacing" textLength="50" x="504.5" y="683.0918">quantity</text></g><!--class OperationType--><g id="elem_OperationType"><rect codeLine="29" fill="#F1F1F1" height="73.8633" id="OperationType" rx="2.5" ry="2.5" style="stroke:#181818;stroke-width:0.5;" width="140" x="7" y="806.6211"/><text fill="#000000" font-family="sans-serif" font-size="14" lengthAdjust="spacing" textLength="95" x="29.5" y="826.7285">OperationType</text><line style="stroke:#181818;stroke-width:0.5;" x1="8" x2="146" y1="835.2422" y2="835.2422"/><text fill="#000000" font-family="sans-serif" font-size="14" lengthAdjust="spacing" textLength="105" x="13" y="854.3496">operationTypeID</text><text fill="#000000" font-family="sans-serif" font-size="14" lengthAdjust="spacing" textLength="128" x="13" y="872.9707">operationTypeName</text></g><!--class BuildingType--><g id="elem_BuildingType"><rect codeLine="34" fill="#F1F1F1" height="73.8633" id="BuildingType" rx="2.5" ry="2.5" style="stroke:#181818;stroke-width:0.5;" width="106" x="1635" y="806.6211"/><text fill="#000000" font-family="sans-serif" font-size="14" lengthAdjust="spacing" textLength="82" x="1647" y="826.7285">BuildingType</text><line style="stroke:#181818;stroke-width:0.5;" x1="1636" x2="1740" y1="835.2422" y2="835.2422"/><text fill="#000000" font-family="sans-serif" font-size="14" lengthAdjust="spacing" textLength="94" x="1641" y="854.3496">buildingTypeID</text><text fill="#000000" font-family="sans-serif" font-size="14" lengthAdjust="spacing" textLength="63" x="1641" y="872.9707">typeName</text></g><!--class Building--><g id="elem_Building"><rect codeLine="39" fill="#F1F1F1" height="92.4844" id="Building" rx="2.5" ry="2.5" style="stroke:#181818;stroke-width:0.5;" width="85" x="1617.5" y="598.1211"/><text fill="#000000" font-family="sans-serif" font-size="14" lengthAdjust="spacing" textLength="50" x="1635" y="618.2285">Building</text><line style="stroke:#181818;stroke-width:0.5;" x1="1618.5" x2="1701.5" y1="626.7422" y2="626.7422"/><text fill="#000000" font-family="sans-serif" font-size="14" lengthAdjust="spacing" textLength="62" x="1623.5" y="645.8496">buildingID</text><text fill="#000000" font-family="sans-serif" font-size="14" lengthAdjust="spacing" textLength="73" x="1623.5" y="664.4707">designation</text><text fill="#000000" font-family="sans-serif" font-size="14" lengthAdjust="spacing" textLength="29" x="1623.5" y="683.0918">area</text></g><!--class UnityOfMeasurement--><g id="elem_UnityOfMeasurement"><rect codeLine="45" fill="#F1F1F1" height="73.8633" id="UnityOfMeasurement" rx="2.5" ry="2.5" style="stroke:#181818;stroke-width:0.5;" width="138" x="898" y="806.6211"/><text fill="#000000" font-family="sans-serif" font-size="14" lengthAdjust="spacing" textLength="132" x="901" y="826.7285">UnityOfMeasurement</text><line style="stroke:#181818;stroke-width:0.5;" x1="899" x2="1035" y1="835.2422" y2="835.2422"/><text fill="#000000" font-family="sans-serif" font-size="14" lengthAdjust="spacing" textLength="43" x="904" y="854.3496">unityID</text><text fill="#000000" font-family="sans-serif" font-size="14" lengthAdjust="spacing" textLength="35" x="904" y="872.9707">name</text></g><!--class Crop--><g id="elem_Crop"><rect codeLine="50" fill="#F1F1F1" height="73.8633" id="Crop" rx="2.5" ry="2.5" style="stroke:#181818;stroke-width:0.5;" width="54" x="1421" y="407.6211"/><text fill="#000000" font-family="sans-serif" font-size="14" lengthAdjust="spacing" textLength="31" x="1432.5" y="427.7285">Crop</text><line style="stroke:#181818;stroke-width:0.5;" x1="1422" x2="1474" y1="436.2422" y2="436.2422"/><text fill="#000000" font-family="sans-serif" font-size="14" lengthAdjust="spacing" textLength="41" x="1427" y="455.3496">cropID</text><text fill="#000000" font-family="sans-serif" font-size="14" lengthAdjust="spacing" textLength="42" x="1427" y="473.9707">variety</text></g><!--class Species--><g id="elem_Species"><rect codeLine="55" fill="#F1F1F1" height="166.9688" id="Species" rx="2.5" ry="2.5" style="stroke:#181818;stroke-width:0.5;" width="115" x="1247.5" y="560.6211"/><text fill="#000000" font-family="sans-serif" font-size="14" lengthAdjust="spacing" textLength="50" x="1280" y="580.7285">Species</text><line style="stroke:#181818;stroke-width:0.5;" x1="1248.5" x2="1361.5" y1="589.2422" y2="589.2422"/><text fill="#000000" font-family="sans-serif" font-size="14" lengthAdjust="spacing" textLength="61" x="1253.5" y="608.3496">speciesID</text><text fill="#000000" font-family="sans-serif" font-size="14" lengthAdjust="spacing" textLength="84" x="1253.5" y="626.9707">speciesName</text><text fill="#000000" font-family="sans-serif" font-size="14" lengthAdjust="spacing" textLength="89" x="1253.5" y="645.5918">commonName</text><text fill="#000000" font-family="sans-serif" font-size="14" lengthAdjust="spacing" textLength="103" x="1253.5" y="664.2129">plantationPeriod</text><text fill="#000000" font-family="sans-serif" font-size="14" lengthAdjust="spacing" textLength="89" x="1253.5" y="682.834">pruningPeriod</text><text fill="#000000" font-family="sans-serif" font-size="14" lengthAdjust="spacing" textLength="97" x="1253.5" y="701.4551">floweringPeriod</text><text fill="#000000" font-family="sans-serif" font-size="14" lengthAdjust="spacing" textLength="88" x="1253.5" y="720.0762">harvestPeriod</text></g><!--class CropType--><g id="elem_CropType"><rect codeLine="65" fill="#F1F1F1" height="73.8633" id="CropType" rx="2.5" ry="2.5" style="stroke:#181818;stroke-width:0.5;" width="85" x="1397.5" y="607.1211"/><text fill="#000000" font-family="sans-serif" font-size="14" lengthAdjust="spacing" textLength="63" x="1408.5" y="627.2285">CropType</text><line style="stroke:#181818;stroke-width:0.5;" x1="1398.5" x2="1481.5" y1="635.7422" y2="635.7422"/><text fill="#000000" font-family="sans-serif" font-size="14" lengthAdjust="spacing" textLength="73" x="1403.5" y="654.8496">cropTypeID</text><text fill="#000000" font-family="sans-serif" font-size="14" lengthAdjust="spacing" textLength="63" x="1403.5" y="673.4707">typeName</text></g><!--class Manufacturer--><g id="elem_Manufacturer"><rect codeLine="70" fill="#F1F1F1" height="73.8633" id="Manufacturer" rx="2.5" ry="2.5" style="stroke:#181818;stroke-width:0.5;" width="109" x="1017.5" y="407.6211"/><text fill="#000000" font-family="sans-serif" font-size="14" lengthAdjust="spacing" textLength="84" x="1030" y="427.7285">Manufacturer</text><line style="stroke:#181818;stroke-width:0.5;" x1="1018.5" x2="1125.5" y1="436.2422" y2="436.2422"/><text fill="#000000" font-family="sans-serif" font-size="14" lengthAdjust="spacing" textLength="97" x="1023.5" y="455.3496">manufacturerID</text><text fill="#000000" font-family="sans-serif" font-size="14" lengthAdjust="spacing" textLength="35" x="1023.5" y="473.9707">name</text></g><!--class FormulationType--><g id="elem_FormulationType"><rect codeLine="75" fill="#F1F1F1" height="73.8633" id="FormulationType" rx="2.5" ry="2.5" style="stroke:#181818;stroke-width:0.5;" width="150" x="392" y="407.6211"/><text fill="#000000" font-family="sans-serif" font-size="14" lengthAdjust="spacing" textLength="107" x="413.5" y="427.7285">FormulationType</text><line style="stroke:#181818;stroke-width:0.5;" x1="393" x2="541" y1="436.2422" y2="436.2422"/><text fill="#000000" font-family="sans-serif" font-size="14" lengthAdjust="spacing" textLength="115" x="398" y="455.3496">formulationTypeID</text><text fill="#000000" font-family="sans-serif" font-size="14" lengthAdjust="spacing" textLength="138" x="398" y="473.9707">formulationTypeName</text></g><!--class Classification--><g id="elem_Classification"><rect codeLine="80" fill="#F1F1F1" height="73.8633" id="Classification" rx="2.5" ry="2.5" style="stroke:#181818;stroke-width:0.5;" width="128" x="577" y="407.6211"/><text fill="#000000" font-family="sans-serif" font-size="14" lengthAdjust="spacing" textLength="83" x="599.5" y="427.7285">Classification</text><line style="stroke:#181818;stroke-width:0.5;" x1="578" x2="704" y1="436.2422" y2="436.2422"/><text fill="#000000" font-family="sans-serif" font-size="14" lengthAdjust="spacing" textLength="93" x="583" y="455.3496">classificationID</text><text fill="#000000" font-family="sans-serif" font-size="14" lengthAdjust="spacing" textLength="116" x="583" y="473.9707">classificationName</text></g><!--class ApplicationType--><g id="elem_ApplicationType"><rect codeLine="85" fill="#F1F1F1" height="73.8633" id="ApplicationType" rx="2.5" ry="2.5" style="stroke:#181818;stroke-width:0.5;" width="107" x="875.5" y="407.6211"/><text fill="#000000" font-family="sans-serif" font-size="14" lengthAdjust="spacing" textLength="101" x="878.5" y="427.7285">ApplicationType</text><line style="stroke:#181818;stroke-width:0.5;" x1="876.5" x2="981.5" y1="436.2422" y2="436.2422"/><text fill="#000000" font-family="sans-serif" font-size="14" lengthAdjust="spacing" textLength="81" x="881.5" y="455.3496">applicationID</text><text fill="#000000" font-family="sans-serif" font-size="14" lengthAdjust="spacing" textLength="35" x="881.5" y="473.9707">name</text></g><!--class Product--><g id="elem_Product"><rect codeLine="90" fill="#F1F1F1" height="73.8633" id="Product" rx="2.5" ry="2.5" style="stroke:#181818;stroke-width:0.5;" width="119" x="640.5" y="236.1211"/><text fill="#000000" font-family="sans-serif" font-size="14" lengthAdjust="spacing" textLength="49" x="675.5" y="256.2285">Product</text><line style="stroke:#181818;stroke-width:0.5;" x1="641.5" x2="758.5" y1="264.7422" y2="264.7422"/><text fill="#000000" font-family="sans-serif" font-size="14" lengthAdjust="spacing" textLength="61" x="646.5" y="283.8496">productID</text><text fill="#000000" font-family="sans-serif" font-size="14" lengthAdjust="spacing" textLength="107" x="646.5" y="302.4707">commercialName</text></g><!--class Datasheet--><g id="elem_Datasheet"><rect codeLine="95" fill="#F1F1F1" height="55.2422" id="Datasheet" rx="2.5" ry="2.5" style="stroke:#181818;stroke-width:0.5;" width="100" x="740" y="417.1211"/><text fill="#000000" font-family="sans-serif" font-size="14" lengthAdjust="spacing" textLength="65" x="757.5" y="437.2285">Datasheet</text><line style="stroke:#181818;stroke-width:0.5;" x1="741" x2="839" y1="445.7422" y2="445.7422"/><text fill="#000000" font-family="sans-serif" font-size="14" lengthAdjust="spacing" textLength="88" x="746" y="464.8496">compositionID</text></g><!--class Component--><g id="elem_Component"><rect codeLine="99" fill="#F1F1F1" height="73.8633" id="Component" rx="2.5" ry="2.5" style="stroke:#181818;stroke-width:0.5;" width="118" x="1268" y="407.6211"/><text fill="#000000" font-family="sans-serif" font-size="14" lengthAdjust="spacing" textLength="73" x="1290.5" y="427.7285">Component</text><line style="stroke:#181818;stroke-width:0.5;" x1="1269" x2="1385" y1="436.2422" y2="436.2422"/><text fill="#000000" font-family="sans-serif" font-size="14" lengthAdjust="spacing" textLength="83" x="1274" y="455.3496">componentID</text><text fill="#000000" font-family="sans-serif" font-size="14" lengthAdjust="spacing" textLength="106" x="1274" y="473.9707">componentName</text></g><!--class Component_Datasheet--><g id="elem_Component_Datasheet"><rect codeLine="104" fill="#F1F1F1" height="55.2422" id="Component_Datasheet" rx="2.5" ry="2.5" style="stroke:#181818;stroke-width:0.5;" width="152" x="891" y="616.6211"/><text fill="#000000" font-family="sans-serif" font-size="14" lengthAdjust="spacing" textLength="146" x="894" y="636.7285">Component_Datasheet</text><line style="stroke:#181818;stroke-width:0.5;" x1="892" x2="1042" y1="645.2422" y2="645.2422"/><text fill="#000000" font-family="sans-serif" font-size="14" lengthAdjust="spacing" textLength="50" x="897" y="664.3496">quantity</text></g><!--link AgriculturalParcel to UnityOfMeasurement--><g id="link_AgriculturalParcel_UnityOfMeasurement"><path codeLine="108" d="M171.54,138.7811 C163.43,174.6711 154,226.2811 154,272.1211 C154,272.1211 154,272.1211 154,645.1211 C154,797.6311 701.08,832.8311 897.68,840.5511 " fill="none" id="AgriculturalParcel-UnityOfMeasurement" style="stroke:#181818;stroke-width:1.0;"/><polygon fill="#000000" points="162.5954,448.2413,158.1337,439.8422,154.0489,444.0688,162.5954,448.2413" style="stroke:#000000;stroke-width:1.0;"/><text fill="#000000" font-family="sans-serif" font-size="13" lengthAdjust="spacing" textLength="39" x="168" y="450.1494">has an</text><text fill="#000000" font-family="sans-serif" font-size="13" lengthAdjust="spacing" textLength="5" x="164.4024" y="161.1644">*</text><text fill="#000000" font-family="sans-serif" font-size="13" lengthAdjust="spacing" textLength="7" x="883.1704" y="836.4083">1</text></g><!--link AgriculturalParcel to Plantation--><g id="link_AgriculturalParcel_Plantation"><path codeLine="109" d="M246.37,103.9911 C449.89,137.2911 1082.67,240.8211 1238.87,266.3711 " fill="none" id="AgriculturalParcel-Plantation" style="stroke:#181818;stroke-width:1.0;"/><polygon fill="#000000" points="738.9344,179.0739,730.4825,174.7131,729.5335,180.5138,738.9344,179.0739" style="stroke:#000000;stroke-width:1.0;"/><text fill="#000000" font-family="sans-serif" font-size="13" lengthAdjust="spacing" textLength="21" x="743" y="183.6494">has</text><text fill="#000000" font-family="sans-serif" font-size="13" lengthAdjust="spacing" textLength="7" x="254.1018" y="101.3401">1</text><text fill="#000000" font-family="sans-serif" font-size="13" lengthAdjust="spacing" textLength="5" x="1226.1088" y="260.2732">*</text></g><!--link Plantation to UnityOfMeasurement--><g id="link_Plantation_UnityOfMeasurement"><path codeLine="111" d="M1309.37,283.6011 C1360.76,299.5111 1454.16,337.0011 1493,407.6211 C1561.56,532.2611 1589.36,616.9311 1500,727.6211 C1442.4,798.9811 1166.68,828.2011 1036,838.1911 " fill="none" id="Plantation-UnityOfMeasurement" style="stroke:#181818;stroke-width:1.0;"/><polygon fill="#000000" points="1549.7894,525.7514,1556.4245,518.9377,1551.1524,516.339,1549.7894,525.7514" style="stroke:#000000;stroke-width:1.0;"/><text fill="#000000" font-family="sans-serif" font-size="13" lengthAdjust="spacing" textLength="39" x="1561" y="526.6494">has an</text><text fill="#000000" font-family="sans-serif" font-size="13" lengthAdjust="spacing" textLength="5" x="1317.1807" y="281.0569">*</text><text fill="#000000" font-family="sans-serif" font-size="13" lengthAdjust="spacing" textLength="7" x="1043.9297" y="833.7192">1</text></g><!--link Plantation to Operation--><g id="link_Plantation_Operation"><path codeLine="112" d="M1253.41,328.6311 C1232.76,375.9611 1196.48,442.8411 1144,481.6211 C1120.77,498.7911 717.82,599.4211 583.89,632.5511 " fill="none" id="Plantation-Operation" style="stroke:#181818;stroke-width:1.0;"/><polygon fill="#000000" points="1211.4471,446.8333,1220.8981,445.7707,1218.4686,440.4185,1211.4471,446.8333" style="stroke:#000000;stroke-width:1.0;"/><text fill="#000000" font-family="sans-serif" font-size="13" lengthAdjust="spacing" textLength="21" x="1225" y="450.1494">has</text><text fill="#000000" font-family="sans-serif" font-size="13" lengthAdjust="spacing" textLength="7" x="1243.3235" y="350.8726">1</text><text fill="#000000" font-family="sans-serif" font-size="13" lengthAdjust="spacing" textLength="5" x="591.4077" y="626.2393">*</text></g><!--link Plantation to Crop--><g id="link_Plantation_Crop"><path codeLine="113" d="M1309.21,308.4211 C1342.18,340.5411 1390.75,387.8511 1420.82,417.1511 " fill="none" id="Plantation-Crop" style="stroke:#181818;stroke-width:1.0;"/><polygon fill="#000000" points="1377.4186,364.7776,1381.8466,373.1944,1385.9482,368.9842,1377.4186,364.7776" style="stroke:#000000;stroke-width:1.0;"/><text fill="#000000" font-family="sans-serif" font-size="13" lengthAdjust="spacing" textLength="24" x="1390" y="373.6494">is in</text><text fill="#000000" font-family="sans-serif" font-size="13" lengthAdjust="spacing" textLength="5" x="1316.9877" y="310.996">*</text><text fill="#000000" font-family="sans-serif" font-size="13" lengthAdjust="spacing" textLength="7" x="1405.9583" y="405.0169">1</text></g><!--link Operation to OperationType--><g id="link_Operation_OperationType"><path codeLine="115" d="M498.18,663.3511 C418.09,697.4411 244.92,771.1511 147.41,812.6511 " fill="none" id="Operation-OperationType" style="stroke:#181818;stroke-width:1.0;"/><polygon fill="#000000" points="268.3994,769.2248,277.873,768.3866,275.571,762.9782,268.3994,769.2248" style="stroke:#000000;stroke-width:1.0;"/><text fill="#000000" font-family="sans-serif" font-size="13" lengthAdjust="spacing" textLength="39" x="282" y="772.6494">has an</text><text fill="#000000" font-family="sans-serif" font-size="13" lengthAdjust="spacing" textLength="5" x="485.3906" y="662.207">*</text><text fill="#000000" font-family="sans-serif" font-size="13" lengthAdjust="spacing" textLength="7" x="155.032" y="805.6311">1</text></g><!--link Operation to UnityOfMeasurement--><g id="link_Operation_UnityOfMeasurement"><path codeLine="116" d="M583.8,664.9611 C657.54,699.1511 809.17,769.4511 897.98,810.6211 " fill="none" id="Operation-UnityOfMeasurement" style="stroke:#181818;stroke-width:1.0;"/><polygon fill="#000000" points="827.5362,769.3697,820.5663,762.8989,818.094,768.2315,827.5362,769.3697" style="stroke:#000000;stroke-width:1.0;"/><text fill="#000000" font-family="sans-serif" font-size="13" lengthAdjust="spacing" textLength="39" x="832" y="772.6494">has an</text><text fill="#000000" font-family="sans-serif" font-size="13" lengthAdjust="spacing" textLength="5" x="591.5859" y="664.0937">*</text><text fill="#000000" font-family="sans-serif" font-size="13" lengthAdjust="spacing" textLength="7" x="883.0481" y="803.1337">1</text></g><!--link Building to BuildingType--><g id="link_Building_BuildingType"><path codeLine="118" d="M1666.42,690.4311 C1671.41,725.6211 1678.24,773.7711 1682.87,806.4111 " fill="none" id="Building-BuildingType" style="stroke:#181818;stroke-width:1.0;"/><polygon fill="#000000" points="1683.7021,772.2171,1685.3418,762.8489,1679.5221,763.6743,1683.7021,772.2171" style="stroke:#000000;stroke-width:1.0;"/><text fill="#000000" font-family="sans-serif" font-size="13" lengthAdjust="spacing" textLength="32" x="1692" y="772.6494">has a</text><text fill="#000000" font-family="sans-serif" font-size="13" lengthAdjust="spacing" textLength="5" x="1661.9958" y="712.4954">*</text><text fill="#000000" font-family="sans-serif" font-size="13" lengthAdjust="spacing" textLength="7" x="1674.3328" y="795.3354">1</text></g><!--link Building to UnityOfMeasurement--><g id="link_Building_UnityOfMeasurement"><path codeLine="119" d="M1636.33,690.4411 C1618.25,720.1811 1590.42,757.0711 1555,776.6211 C1467.26,825.0511 1171.67,838.0011 1036.05,841.4111 " fill="none" id="Building-UnityOfMeasurement" style="stroke:#181818;stroke-width:1.0;"/><polygon fill="#000000" points="1580.151,768.4861,1589.6397,769.1302,1588.2061,763.4298,1580.151,768.4861" style="stroke:#000000;stroke-width:1.0;"/><text fill="#000000" font-family="sans-serif" font-size="13" lengthAdjust="spacing" textLength="39" x="1594" y="772.6494">has an</text><text fill="#000000" font-family="sans-serif" font-size="13" lengthAdjust="spacing" textLength="5" x="1627.4863" y="712.5069">*</text><text fill="#000000" font-family="sans-serif" font-size="13" lengthAdjust="spacing" textLength="7" x="1043.9852" y="856.1508">1</text></g><!--link Crop to Species--><g id="link_Crop_Species"><path codeLine="121" d="M1420.81,474.0011 C1410.43,485.3511 1398.75,498.7611 1389,511.6211 C1377.38,526.9411 1365.74,543.8811 1354.99,560.3611 " fill="none" id="Crop-Species" style="stroke:#181818;stroke-width:1.0;"/><polygon fill="#000000" points="1390.9691,525.2433,1398.7894,519.8309,1394.1146,516.2679,1390.9691,525.2433" style="stroke:#000000;stroke-width:1.0;"/><text fill="#000000" font-family="sans-serif" font-size="13" lengthAdjust="spacing" textLength="32" x="1403" y="526.6494">has a</text><text fill="#000000" font-family="sans-serif" font-size="13" lengthAdjust="spacing" textLength="5" x="1407.8308" y="476.6984">*</text><text fill="#000000" font-family="sans-serif" font-size="13" lengthAdjust="spacing" textLength="7" x="1351.9852" y="549.4747">1</text></g><!--link Crop to CropType--><g id="link_Crop_CropType"><path codeLine="122" d="M1446.53,481.8411 C1445.09,517.3711 1442.91,571.2311 1441.47,606.7911 " fill="none" id="Crop-CropType" style="stroke:#181818;stroke-width:1.0;"/><polygon fill="#000000" points="1449.7977,526.2625,1453.1002,517.3437,1447.2272,517.1059,1449.7977,526.2625" style="stroke:#000000;stroke-width:1.0;"/><text fill="#000000" font-family="sans-serif" font-size="13" lengthAdjust="spacing" textLength="32" x="1459" y="526.6494">has a</text><text fill="#000000" font-family="sans-serif" font-size="13" lengthAdjust="spacing" textLength="5" x="1440.8725" y="503.4772">*</text><text fill="#000000" font-family="sans-serif" font-size="13" lengthAdjust="spacing" textLength="7" x="1434.1211" y="595.9791">1</text></g><!--link Product to Manufacturer--><g id="link_Product_Manufacturer"><path codeLine="124" d="M759.56,299.6811 C820.35,326.0011 917.26,368.5511 1000,407.6211 C1005.69,410.3111 1011.6,413.1611 1017.48,416.0411 " fill="none" id="Product-Manufacturer" style="stroke:#181818;stroke-width:1.0;"/><polygon fill="#000000" points="944.5576,370.3228,937.5214,363.9242,935.1042,369.282,944.5576,370.3228" style="stroke:#000000;stroke-width:1.0;"/><text fill="#000000" font-family="sans-serif" font-size="13" lengthAdjust="spacing" textLength="32" x="949" y="373.6494">has a</text><text fill="#000000" font-family="sans-serif" font-size="13" lengthAdjust="spacing" textLength="5" x="767.5114" y="299.0508">*</text><text fill="#000000" font-family="sans-serif" font-size="13" lengthAdjust="spacing" textLength="7" x="1002.3209" y="407.8851">1</text></g><!--link Product to FormulationType--><g id="link_Product_FormulationType"><path codeLine="125" d="M650.3,310.2711 C610.87,338.9611 556.03,378.8511 516.62,407.5211 " fill="none" id="Product-FormulationType" style="stroke:#181818;stroke-width:1.0;"/><polygon fill="#000000" points="584.9567,371.208,594,368.2635,590.5422,363.5104,584.9567,371.208" style="stroke:#000000;stroke-width:1.0;"/><text fill="#000000" font-family="sans-serif" font-size="13" lengthAdjust="spacing" textLength="32" x="598" y="373.6494">has a</text><text fill="#000000" font-family="sans-serif" font-size="13" lengthAdjust="spacing" textLength="5" x="636.6544" y="331.8956">*</text><text fill="#000000" font-family="sans-serif" font-size="13" lengthAdjust="spacing" textLength="7" x="517.8351" y="396.465">1</text></g><!--link Product to Classification--><g id="link_Product_Classification"><path codeLine="126" d="M686.46,310.2111 C680.93,325.1511 674.55,342.6811 669,358.6211 C663.43,374.6111 657.53,392.4011 652.59,407.5511 " fill="none" id="Product-Classification" style="stroke:#181818;stroke-width:1.0;"/><polygon fill="#000000" points="672.3569,372.9889,678.105,365.412,672.5536,363.4804,672.3569,372.9889" style="stroke:#000000;stroke-width:1.0;"/><text fill="#000000" font-family="sans-serif" font-size="13" lengthAdjust="spacing" textLength="32" x="683" y="373.6494">has a</text><text fill="#000000" font-family="sans-serif" font-size="13" lengthAdjust="spacing" textLength="5" x="678.7031" y="332.112">*</text><text fill="#000000" font-family="sans-serif" font-size="13" lengthAdjust="spacing" textLength="7" x="647.0816" y="396.2169">1</text></g><!--link Product to ApplicationType--><g id="link_Product_ApplicationType"><path codeLine="127" d="M748.85,310.2711 C787.6,338.9611 841.5,378.8511 880.23,407.5211 " fill="none" id="Product-ApplicationType" style="stroke:#181818;stroke-width:1.0;"/><polygon fill="#000000" points="845.0188,371.2414,839.4973,363.4978,836.0002,368.2221,845.0188,371.2414" style="stroke:#000000;stroke-width:1.0;"/><text fill="#000000" font-family="sans-serif" font-size="13" lengthAdjust="spacing" textLength="21" x="850" y="373.6494">has</text><text fill="#000000" font-family="sans-serif" font-size="13" lengthAdjust="spacing" textLength="5" x="751.5267" y="331.8956">*</text><text fill="#000000" font-family="sans-serif" font-size="13" lengthAdjust="spacing" textLength="5" x="866.0975" y="396.465">*</text></g><!--link Product to Datasheet--><g id="link_Product_Datasheet"><path codeLine="128" d="M719.31,310.4811 C736.3,342.4911 760.64,388.3311 775.88,417.0211 " fill="none" id="Product-Datasheet" style="stroke:#181818;stroke-width:1.0;"/><polygon fill="#000000" points="761.3448,372.6827,759.6987,363.3157,754.5073,366.0722,761.3448,372.6827" style="stroke:#000000;stroke-width:1.0;"/><text fill="#000000" font-family="sans-serif" font-size="13" lengthAdjust="spacing" textLength="32" x="768" y="373.6494">has a</text><text fill="#000000" font-family="sans-serif" font-size="13" lengthAdjust="spacing" textLength="7" x="714.9285" y="332.1404">1</text><text fill="#000000" font-family="sans-serif" font-size="13" lengthAdjust="spacing" textLength="7" x="764.8054" y="405.7069">1</text></g><!--link Product to Operation--><g id="link_Product_Operation"><path codeLine="129" d="M640.48,273.6811 C548.66,276.6211 374.73,297.3911 295,407.6211 C226.39,502.4711 411.07,591.4811 498.27,626.9411 " fill="none" id="Product-Operation" style="stroke:#181818;stroke-width:1.0;"/><polygon fill="#000000" points="298.1328,449.4049,304.2369,442.1117,298.7843,439.9166,298.1328,449.4049" style="stroke:#000000;stroke-width:1.0;"/><text fill="#000000" font-family="sans-serif" font-size="13" lengthAdjust="spacing" textLength="64" x="309" y="450.1494">are used in</text><text fill="#000000" font-family="sans-serif" font-size="13" lengthAdjust="spacing" textLength="5" x="627.5337" y="269.7195">*</text><text fill="#000000" font-family="sans-serif" font-size="13" lengthAdjust="spacing" textLength="5" x="485.4961" y="619.539">*</text></g><!--link Datasheet to Component_Datasheet--><g id="link_Datasheet_Component_Datasheet"><path codeLine="131" d="M813.87,472.2611 C847.75,510.0611 909.4,578.8511 943.23,616.5911 " fill="none" id="Datasheet-Component_Datasheet" style="stroke:#181818;stroke-width:1.0;"/><text fill="#000000" font-family="sans-serif" font-size="13" lengthAdjust="spacing" textLength="7" x="811.3259" y="494.2004">1</text><text fill="#000000" font-family="sans-serif" font-size="13" lengthAdjust="spacing" textLength="5" x="932.1551" y="605.2931">*</text></g><!--link Component to Component_Datasheet--><g id="link_Component_Component_Datasheet"><path codeLine="133" d="M1287.92,481.8211 C1269.18,498.0411 1245.87,516.6111 1223,530.6211 C1165.15,566.0611 1094.17,596.3311 1041.64,616.5211 " fill="none" id="Component-Component_Datasheet" style="stroke:#181818;stroke-width:1.0;"/><text fill="#000000" font-family="sans-serif" font-size="13" lengthAdjust="spacing" textLength="7" x="1273.8677" y="503.4539">1</text><text fill="#000000" font-family="sans-serif" font-size="13" lengthAdjust="spacing" textLength="5" x="1050.8426" y="606.447">*</text></g><!--link Component_Datasheet to UnityOfMeasurement--><g id="link_Component_Datasheet_UnityOfMeasurement"><path codeLine="135" d="M967,671.7611 C967,706.5011 967,767.4411 967,806.3711 " fill="none" id="Component_Datasheet-UnityOfMeasurement" style="stroke:#181818;stroke-width:1.0;"/><polygon fill="#000000" points="972,772.2666,974.9389,763.2215,969.0611,763.2215,972,772.2666" style="stroke:#000000;stroke-width:1.0;"/><text fill="#000000" font-family="sans-serif" font-size="13" lengthAdjust="spacing" textLength="39" x="981" y="772.6494">has an</text><text fill="#000000" font-family="sans-serif" font-size="13" lengthAdjust="spacing" textLength="5" x="961.4531" y="693.7004">*</text><text fill="#000000" font-family="sans-serif" font-size="13" lengthAdjust="spacing" textLength="7" x="959.3766" y="795.2883">1</text></g><!--SRC=[ZLHDRzim3BthLmWv3kWXrs0eq3KOi4FM0DtE1IVJjb1PqlJH8YZstqVvKtOTjnURfDvxeYXI_bbg2muQtXXjHErCWpouYCoFAnR4CrJu62uAkKCHG5Sg1_WQ2lCgTSLBK3vVKLAJtCKYjqPTaiTOa85qZgO1gVd95AXOBGlaGZf1igtTOAXDuHaJ2hpdTvMJ8geG7QWpE86Alp7R6Z-ElN54BoiDGHhDm26mVmFxh427Te5OuaAR4Ca7SE480Hdgelt_ZGIJuJ8H7oowWMS6cxZ51_1VwS0P9Vb4c_a_eS69-YrALL01U-QVp2LYk8hFi2clgoNuhIdJX_A4uAF31dKWPan1ekcPzBqpDjM9VhJs0avYViX7YqAY9uJlh5JBpcfJ5AQXJcfDEzRzZ4wQWbb7M-ggzqfbNiaQ_HhS2_hGUxDy-hA8tbmjoGbqB45GZw0ZR9EvxyxutRWcglokodc468l8VBFxz9Mb56DRpG94dmVcx3jhLR_GRmzJv5soPsUAADA5sSvAwbHbT4A2cYjJ8uEl4SDRWbZZPIyvPPx2cXgWHoIp4-pinJc7y5Ecd7V-ocJklkpupGtVxNShRNVWDNWEcj-kKlSTbHIceUqejunbS_pPFN9Agzs9ZvCwQAzBfzOxSEavFLHV6PkUWmmp6_fivrNmPgvi7EgCaJyCFPQWQyXjxNQgC_GmnfFc4Z7CtOHWGoTcgDdKJT0Lv7BcDi6B-RgEfTzociOx7Q3xKNPiuct5wUuEdDvH7ZqMgGUe19D2rgihKq8L7uAVHpvbwbiNo_ER_Gy0]--></g></svg>