<?xml version="1.0" encoding="us-ascii" standalone="no"?><svg xmlns="http://www.w3.org/2000/svg" xmlns:xlink="http://www.w3.org/1999/xlink" contentStyleType="text/css" height="1058px" preserveAspectRatio="none" style="width:1675px;height:1058px;background:#FFFFFF;" version="1.1" viewBox="0 0 1675 1058" width="1675px" zoomAndPan="magnify"><defs/><g><text fill="#000000" font-family="sans-serif" font-size="14" font-weight="bold" lengthAdjust="spacing" textLength="100" x="780.75" y="25.1074">Domain Model</text><!--class AgriculturalParcel--><g id="elem_AgriculturalParcel"><rect codeLine="10" fill="#F1F1F1" height="92.4844" id="AgriculturalParcel" rx="2.5" ry="2.5" style="stroke:#181818;stroke-width:0.5;" width="126" x="1044.5" y="46.6211"/><text fill="#000000" font-family="sans-serif" font-size="14" lengthAdjust="spacing" textLength="111" x="1052" y="66.7285">AgriculturalParcel</text><line style="stroke:#181818;stroke-width:0.5;" x1="1045.5" x2="1169.5" y1="75.2422" y2="75.2422"/><text fill="#000000" font-family="sans-serif" font-size="14" lengthAdjust="spacing" textLength="52" x="1050.5" y="94.3496">parcelID</text><text fill="#000000" font-family="sans-serif" font-size="14" lengthAdjust="spacing" textLength="114" x="1050.5" y="112.9707">parcelDesignation</text><text fill="#000000" font-family="sans-serif" font-size="14" lengthAdjust="spacing" textLength="29" x="1050.5" y="131.5918">area</text></g><!--class Plantation--><g id="elem_Plantation"><rect codeLine="16" fill="#F1F1F1" height="111.1055" id="Plantation" rx="2.5" ry="2.5" style="stroke:#181818;stroke-width:0.5;" width="70" x="717.5" y="217.6211"/><text fill="#000000" font-family="sans-serif" font-size="14" lengthAdjust="spacing" textLength="63" x="721" y="237.7285">Plantation</text><line style="stroke:#181818;stroke-width:0.5;" x1="718.5" x2="786.5" y1="246.2422" y2="246.2422"/><text fill="#000000" font-family="sans-serif" font-size="14" lengthAdjust="spacing" textLength="45" x="723.5" y="265.3496">cycleID</text><text fill="#000000" font-family="sans-serif" font-size="14" lengthAdjust="spacing" textLength="58" x="723.5" y="283.9707">startDate</text><text fill="#000000" font-family="sans-serif" font-size="14" lengthAdjust="spacing" textLength="54" x="723.5" y="302.5918">endDate</text><text fill="#000000" font-family="sans-serif" font-size="14" lengthAdjust="spacing" textLength="50" x="723.5" y="321.2129">quantity</text></g><!--class Operation--><g id="elem_Operation"><rect codeLine="23" fill="#F1F1F1" height="92.4844" id="Operation" rx="2.5" ry="2.5" style="stroke:#181818;stroke-width:0.5;" width="85" x="7" y="598.1211"/><text fill="#000000" font-family="sans-serif" font-size="14" lengthAdjust="spacing" textLength="63" x="18" y="618.2285">Operation</text><line style="stroke:#181818;stroke-width:0.5;" x1="8" x2="91" y1="626.7422" y2="626.7422"/><text fill="#000000" font-family="sans-serif" font-size="14" lengthAdjust="spacing" textLength="73" x="13" y="645.8496">operationID</text><text fill="#000000" font-family="sans-serif" font-size="14" lengthAdjust="spacing" textLength="28" x="13" y="664.4707">date</text><text fill="#000000" font-family="sans-serif" font-size="14" lengthAdjust="spacing" textLength="50" x="13" y="683.0918">quantity</text></g><!--class OperationType--><g id="elem_OperationType"><rect codeLine="29" fill="#F1F1F1" height="73.8633" id="OperationType" rx="2.5" ry="2.5" style="stroke:#181818;stroke-width:0.5;" width="140" x="138.5" y="815.6211"/><text fill="#000000" font-family="sans-serif" font-size="14" lengthAdjust="spacing" textLength="95" x="161" y="835.7285">OperationType</text><line style="stroke:#181818;stroke-width:0.5;" x1="139.5" x2="277.5" y1="844.2422" y2="844.2422"/><text fill="#000000" font-family="sans-serif" font-size="14" lengthAdjust="spacing" textLength="105" x="144.5" y="863.3496">operationTypeID</text><text fill="#000000" font-family="sans-serif" font-size="14" lengthAdjust="spacing" textLength="128" x="144.5" y="881.9707">operationTypeName</text></g><!--class BuildingType--><g id="elem_BuildingType"><rect codeLine="34" fill="#F1F1F1" height="73.8633" id="BuildingType" rx="2.5" ry="2.5" style="stroke:#181818;stroke-width:0.5;" width="106" x="1562.5" y="977.6211"/><text fill="#000000" font-family="sans-serif" font-size="14" lengthAdjust="spacing" textLength="82" x="1574.5" y="997.7285">BuildingType</text><line style="stroke:#181818;stroke-width:0.5;" x1="1563.5" x2="1667.5" y1="1006.2422" y2="1006.2422"/><text fill="#000000" font-family="sans-serif" font-size="14" lengthAdjust="spacing" textLength="94" x="1568.5" y="1025.3496">buildingTypeID</text><text fill="#000000" font-family="sans-serif" font-size="14" lengthAdjust="spacing" textLength="63" x="1568.5" y="1043.9707">typeName</text></g><!--class Building--><g id="elem_Building"><rect codeLine="39" fill="#F1F1F1" height="92.4844" id="Building" rx="2.5" ry="2.5" style="stroke:#181818;stroke-width:0.5;" width="85" x="1545" y="806.6211"/><text fill="#000000" font-family="sans-serif" font-size="14" lengthAdjust="spacing" textLength="50" x="1562.5" y="826.7285">Building</text><line style="stroke:#181818;stroke-width:0.5;" x1="1546" x2="1629" y1="835.2422" y2="835.2422"/><text fill="#000000" font-family="sans-serif" font-size="14" lengthAdjust="spacing" textLength="62" x="1551" y="854.3496">buildingID</text><text fill="#000000" font-family="sans-serif" font-size="14" lengthAdjust="spacing" textLength="73" x="1551" y="872.9707">designation</text><text fill="#000000" font-family="sans-serif" font-size="14" lengthAdjust="spacing" textLength="29" x="1551" y="891.5918">area</text></g><!--class UnityOfMeasurement--><g id="elem_UnityOfMeasurement"><rect codeLine="45" fill="#F1F1F1" height="73.8633" id="UnityOfMeasurement" rx="2.5" ry="2.5" style="stroke:#181818;stroke-width:0.5;" width="138" x="1287.5" y="977.6211"/><text fill="#000000" font-family="sans-serif" font-size="14" lengthAdjust="spacing" textLength="132" x="1290.5" y="997.7285">UnityOfMeasurement</text><line style="stroke:#181818;stroke-width:0.5;" x1="1288.5" x2="1424.5" y1="1006.2422" y2="1006.2422"/><text fill="#000000" font-family="sans-serif" font-size="14" lengthAdjust="spacing" textLength="43" x="1293.5" y="1025.3496">unityID</text><text fill="#000000" font-family="sans-serif" font-size="14" lengthAdjust="spacing" textLength="35" x="1293.5" y="1043.9707">name</text></g><!--class Crop--><g id="elem_Crop"><rect codeLine="50" fill="#F1F1F1" height="73.8633" id="Crop" rx="2.5" ry="2.5" style="stroke:#181818;stroke-width:0.5;" width="54" x="277.5" y="407.6211"/><text fill="#000000" font-family="sans-serif" font-size="14" lengthAdjust="spacing" textLength="31" x="289" y="427.7285">Crop</text><line style="stroke:#181818;stroke-width:0.5;" x1="278.5" x2="330.5" y1="436.2422" y2="436.2422"/><text fill="#000000" font-family="sans-serif" font-size="14" lengthAdjust="spacing" textLength="41" x="283.5" y="455.3496">cropID</text><text fill="#000000" font-family="sans-serif" font-size="14" lengthAdjust="spacing" textLength="42" x="283.5" y="473.9707">variety</text></g><!--class Species--><g id="elem_Species"><rect codeLine="55" fill="#F1F1F1" height="166.9688" id="Species" rx="2.5" ry="2.5" style="stroke:#181818;stroke-width:0.5;" width="115" x="247" y="560.6211"/><text fill="#000000" font-family="sans-serif" font-size="14" lengthAdjust="spacing" textLength="50" x="279.5" y="580.7285">Species</text><line style="stroke:#181818;stroke-width:0.5;" x1="248" x2="361" y1="589.2422" y2="589.2422"/><text fill="#000000" font-family="sans-serif" font-size="14" lengthAdjust="spacing" textLength="61" x="253" y="608.3496">speciesID</text><text fill="#000000" font-family="sans-serif" font-size="14" lengthAdjust="spacing" textLength="84" x="253" y="626.9707">speciesName</text><text fill="#000000" font-family="sans-serif" font-size="14" lengthAdjust="spacing" textLength="89" x="253" y="645.5918">commonName</text><text fill="#000000" font-family="sans-serif" font-size="14" lengthAdjust="spacing" textLength="103" x="253" y="664.2129">plantationPeriod</text><text fill="#000000" font-family="sans-serif" font-size="14" lengthAdjust="spacing" textLength="89" x="253" y="682.834">pruningPeriod</text><text fill="#000000" font-family="sans-serif" font-size="14" lengthAdjust="spacing" textLength="97" x="253" y="701.4551">floweringPeriod</text><text fill="#000000" font-family="sans-serif" font-size="14" lengthAdjust="spacing" textLength="88" x="253" y="720.0762">harvestPeriod</text></g><!--class CropType--><g id="elem_CropType"><rect codeLine="65" fill="#F1F1F1" height="73.8633" id="CropType" rx="2.5" ry="2.5" style="stroke:#181818;stroke-width:0.5;" width="85" x="127" y="607.1211"/><text fill="#000000" font-family="sans-serif" font-size="14" lengthAdjust="spacing" textLength="63" x="138" y="627.2285">CropType</text><line style="stroke:#181818;stroke-width:0.5;" x1="128" x2="211" y1="635.7422" y2="635.7422"/><text fill="#000000" font-family="sans-serif" font-size="14" lengthAdjust="spacing" textLength="73" x="133" y="654.8496">cropTypeID</text><text fill="#000000" font-family="sans-serif" font-size="14" lengthAdjust="spacing" textLength="63" x="133" y="673.4707">typeName</text></g><!--class Manufacturer--><g id="elem_Manufacturer"><rect codeLine="70" fill="#F1F1F1" height="73.8633" id="Manufacturer" rx="2.5" ry="2.5" style="stroke:#181818;stroke-width:0.5;" width="109" x="533" y="607.1211"/><text fill="#000000" font-family="sans-serif" font-size="14" lengthAdjust="spacing" textLength="84" x="545.5" y="627.2285">Manufacturer</text><line style="stroke:#181818;stroke-width:0.5;" x1="534" x2="641" y1="635.7422" y2="635.7422"/><text fill="#000000" font-family="sans-serif" font-size="14" lengthAdjust="spacing" textLength="97" x="539" y="654.8496">manufacturerID</text><text fill="#000000" font-family="sans-serif" font-size="14" lengthAdjust="spacing" textLength="35" x="539" y="673.4707">name</text></g><!--class FormulationType--><g id="elem_FormulationType"><rect codeLine="75" fill="#F1F1F1" height="73.8633" id="FormulationType" rx="2.5" ry="2.5" style="stroke:#181818;stroke-width:0.5;" width="150" x="677.5" y="607.1211"/><text fill="#000000" font-family="sans-serif" font-size="14" lengthAdjust="spacing" textLength="107" x="699" y="627.2285">FormulationType</text><line style="stroke:#181818;stroke-width:0.5;" x1="678.5" x2="826.5" y1="635.7422" y2="635.7422"/><text fill="#000000" font-family="sans-serif" font-size="14" lengthAdjust="spacing" textLength="115" x="683.5" y="654.8496">formulationTypeID</text><text fill="#000000" font-family="sans-serif" font-size="14" lengthAdjust="spacing" textLength="138" x="683.5" y="673.4707">formulationTypeName</text></g><!--class Classification--><g id="elem_Classification"><rect codeLine="80" fill="#F1F1F1" height="73.8633" id="Classification" rx="2.5" ry="2.5" style="stroke:#181818;stroke-width:0.5;" width="128" x="862.5" y="607.1211"/><text fill="#000000" font-family="sans-serif" font-size="14" lengthAdjust="spacing" textLength="83" x="885" y="627.2285">Classification</text><line style="stroke:#181818;stroke-width:0.5;" x1="863.5" x2="989.5" y1="635.7422" y2="635.7422"/><text fill="#000000" font-family="sans-serif" font-size="14" lengthAdjust="spacing" textLength="93" x="868.5" y="654.8496">classificationID</text><text fill="#000000" font-family="sans-serif" font-size="14" lengthAdjust="spacing" textLength="116" x="868.5" y="673.4707">classificationName</text></g><!--class ApplicationType--><g id="elem_ApplicationType"><rect codeLine="85" fill="#F1F1F1" height="73.8633" id="ApplicationType" rx="2.5" ry="2.5" style="stroke:#181818;stroke-width:0.5;" width="107" x="1026" y="607.1211"/><text fill="#000000" font-family="sans-serif" font-size="14" lengthAdjust="spacing" textLength="101" x="1029" y="627.2285">ApplicationType</text><line style="stroke:#181818;stroke-width:0.5;" x1="1027" x2="1132" y1="635.7422" y2="635.7422"/><text fill="#000000" font-family="sans-serif" font-size="14" lengthAdjust="spacing" textLength="81" x="1032" y="654.8496">applicationID</text><text fill="#000000" font-family="sans-serif" font-size="14" lengthAdjust="spacing" textLength="35" x="1032" y="673.4707">name</text></g><!--class Product--><g id="elem_Product"><rect codeLine="90" fill="#F1F1F1" height="73.8633" id="Product" rx="2.5" ry="2.5" style="stroke:#181818;stroke-width:0.5;" width="119" x="693" y="407.6211"/><text fill="#000000" font-family="sans-serif" font-size="14" lengthAdjust="spacing" textLength="49" x="728" y="427.7285">Product</text><line style="stroke:#181818;stroke-width:0.5;" x1="694" x2="811" y1="436.2422" y2="436.2422"/><text fill="#000000" font-family="sans-serif" font-size="14" lengthAdjust="spacing" textLength="61" x="699" y="455.3496">productID</text><text fill="#000000" font-family="sans-serif" font-size="14" lengthAdjust="spacing" textLength="107" x="699" y="473.9707">commercialName</text></g><!--class Datasheet--><g id="elem_Datasheet"><rect codeLine="95" fill="#F1F1F1" height="55.2422" id="Datasheet" rx="2.5" ry="2.5" style="stroke:#181818;stroke-width:0.5;" width="100" x="397.5" y="616.6211"/><text fill="#000000" font-family="sans-serif" font-size="14" lengthAdjust="spacing" textLength="65" x="415" y="636.7285">Datasheet</text><line style="stroke:#181818;stroke-width:0.5;" x1="398.5" x2="496.5" y1="645.2422" y2="645.2422"/><text fill="#000000" font-family="sans-serif" font-size="14" lengthAdjust="spacing" textLength="88" x="403.5" y="664.3496">compositionID</text></g><!--class Component--><g id="elem_Component"><rect codeLine="99" fill="#F1F1F1" height="73.8633" id="Component" rx="2.5" ry="2.5" style="stroke:#181818;stroke-width:0.5;" width="118" x="1168.5" y="607.1211"/><text fill="#000000" font-family="sans-serif" font-size="14" lengthAdjust="spacing" textLength="73" x="1191" y="627.2285">Component</text><line style="stroke:#181818;stroke-width:0.5;" x1="1169.5" x2="1285.5" y1="635.7422" y2="635.7422"/><text fill="#000000" font-family="sans-serif" font-size="14" lengthAdjust="spacing" textLength="83" x="1174.5" y="654.8496">componentID</text><text fill="#000000" font-family="sans-serif" font-size="14" lengthAdjust="spacing" textLength="106" x="1174.5" y="673.4707">componentName</text></g><!--class Component_Datasheet--><g id="elem_Component_Datasheet"><rect codeLine="104" fill="#F1F1F1" height="55.2422" id="Component_Datasheet" rx="2.5" ry="2.5" style="stroke:#181818;stroke-width:0.5;" width="152" x="1151.5" y="825.1211"/><text fill="#000000" font-family="sans-serif" font-size="14" lengthAdjust="spacing" textLength="146" x="1154.5" y="845.2285">Component_Datasheet</text><line style="stroke:#181818;stroke-width:0.5;" x1="1152.5" x2="1302.5" y1="853.7422" y2="853.7422"/><text fill="#000000" font-family="sans-serif" font-size="14" lengthAdjust="spacing" textLength="50" x="1157.5" y="872.8496">quantity</text></g><!--link AgriculturalParcel to UnityOfMeasurement--><g id="link_AgriculturalParcel_UnityOfMeasurement"><path codeLine="108" d="M1170.74,97.3211 C1273.04,107.0811 1463.5,142.6611 1463.5,272.1211 C1463.5,272.1211 1463.5,272.1211 1463.5,853.6211 C1463.5,902.4111 1428.7,947.5911 1398.79,977.4111 " fill="none" id="AgriculturalParcel-UnityOfMeasurement" style="stroke:#181818;stroke-width:1.0;"/><polygon fill="#000000" points="1469.7542,526.1067,1470.3303,516.6136,1464.6404,518.088,1469.7542,526.1067" style="stroke:#000000;stroke-width:1.0;"/><text fill="#000000" font-family="sans-serif" font-size="13" lengthAdjust="spacing" textLength="39" x="1477.5" y="526.6494">has an</text><text fill="#000000" font-family="sans-serif" font-size="13" lengthAdjust="spacing" textLength="5" x="1178.3412" y="93.8989">*</text><text fill="#000000" font-family="sans-serif" font-size="13" lengthAdjust="spacing" textLength="7" x="1398.6995" y="966.3354">1</text></g><!--link AgriculturalParcel to Plantation--><g id="link_AgriculturalParcel_Plantation"><path codeLine="109" d="M1044.44,125.3311 C969.73,162.9011 847.85,224.1811 787.97,254.2811 " fill="none" id="AgriculturalParcel-Plantation" style="stroke:#181818;stroke-width:1.0;"/><polygon fill="#000000" points="951.0329,180.5126,960.4342,179.0752,957.7938,173.8238,951.0329,180.5126" style="stroke:#000000;stroke-width:1.0;"/><text fill="#000000" font-family="sans-serif" font-size="13" lengthAdjust="spacing" textLength="21" x="964.5" y="183.6494">has</text><text fill="#000000" font-family="sans-serif" font-size="13" lengthAdjust="spacing" textLength="7" x="1029.328" y="125.2982">1</text><text fill="#000000" font-family="sans-serif" font-size="13" lengthAdjust="spacing" textLength="5" x="795.4453" y="245.9451">*</text></g><!--link Plantation to UnityOfMeasurement--><g id="link_Plantation_UnityOfMeasurement"><path codeLine="111" d="M787.58,276.3111 C916.49,285.2811 1356.5,324.6311 1356.5,443.6211 C1356.5,443.6211 1356.5,443.6211 1356.5,853.6211 C1356.5,896.1211 1356.5,944.9711 1356.5,977.4011 " fill="none" id="Plantation-UnityOfMeasurement" style="stroke:#181818;stroke-width:1.0;"/><polygon fill="#000000" points="1364.6506,648.1491,1361.2332,639.2737,1356.669,642.9774,1364.6506,648.1491" style="stroke:#000000;stroke-width:1.0;"/><text fill="#000000" font-family="sans-serif" font-size="13" lengthAdjust="spacing" textLength="39" x="1370.5" y="649.6494">has an</text><text fill="#000000" font-family="sans-serif" font-size="13" lengthAdjust="spacing" textLength="5" x="795.3309" y="272.2634">*</text><text fill="#000000" font-family="sans-serif" font-size="13" lengthAdjust="spacing" textLength="7" x="1348.8766" y="966.3236">1</text></g><!--link Plantation to Operation--><g id="link_Plantation_Operation"><path codeLine="112" d="M717.2,275.1211 C627.38,279.2411 385.89,300.2711 224.5,407.6211 C152.19,455.7211 98.57,544.2111 70.82,597.9611 " fill="none" id="Plantation-Operation" style="stroke:#181818;stroke-width:1.0;"/><polygon fill="#000000" points="225.0269,447.0007,234.432,445.5884,231.8056,440.3299,225.0269,447.0007" style="stroke:#000000;stroke-width:1.0;"/><text fill="#000000" font-family="sans-serif" font-size="13" lengthAdjust="spacing" textLength="21" x="238.5" y="450.1494">has</text><text fill="#000000" font-family="sans-serif" font-size="13" lengthAdjust="spacing" textLength="7" x="702.5613" y="270.888">1</text><text fill="#000000" font-family="sans-serif" font-size="13" lengthAdjust="spacing" textLength="5" x="68.5842" y="586.947">*</text></g><!--link Plantation to Crop--><g id="link_Plantation_Crop"><path codeLine="113" d="M717.35,287.4211 C630.81,320.1611 408.93,404.1111 331.58,433.3711 " fill="none" id="Plantation-Crop" style="stroke:#181818;stroke-width:1.0;"/><polygon fill="#000000" points="538.1765,366.4973,528.6767,366.9492,530.7566,372.4468,538.1765,366.4973" style="stroke:#000000;stroke-width:1.0;"/><text fill="#000000" font-family="sans-serif" font-size="13" lengthAdjust="spacing" textLength="24" x="542.5" y="373.6494">is in</text><text fill="#000000" font-family="sans-serif" font-size="13" lengthAdjust="spacing" textLength="5" x="704.5847" y="306.171">*</text><text fill="#000000" font-family="sans-serif" font-size="13" lengthAdjust="spacing" textLength="7" x="339.4161" y="425.3933">1</text></g><!--link Plantation to Product--><g id="link_Plantation_Product"><path codeLine="114" d="M752.5,328.6811 C752.5,354.5211 752.5,384.6711 752.5,407.6011 " fill="none" id="Plantation-Product" style="stroke:#181818;stroke-width:1.0;"/><polygon fill="#000000" points="757.5,363.2666,754.5611,372.3117,760.4389,372.3117,757.5,363.2666" style="stroke:#000000;stroke-width:1.0;"/><text fill="#000000" font-family="sans-serif" font-size="13" lengthAdjust="spacing" textLength="77" x="766.5" y="373.6494">are applied in</text><text fill="#000000" font-family="sans-serif" font-size="13" lengthAdjust="spacing" textLength="5" x="747.1797" y="350.929">*</text><text fill="#000000" font-family="sans-serif" font-size="13" lengthAdjust="spacing" textLength="5" x="747.0391" y="396.2761">*</text></g><!--link Operation to OperationType--><g id="link_Operation_OperationType"><path codeLine="116" d="M81.83,690.3511 C90.69,702.5311 100.37,715.6511 109.5,727.6211 C132.38,757.6311 159.12,791.0411 179.04,815.6111 " fill="none" id="Operation-OperationType" style="stroke:#181818;stroke-width:1.0;"/><polygon fill="#000000" points="155.5655,771.2166,152.3417,762.2691,147.6982,765.8728,155.5655,771.2166" style="stroke:#000000;stroke-width:1.0;"/><text fill="#000000" font-family="sans-serif" font-size="13" lengthAdjust="spacing" textLength="39" x="161.5" y="772.6494">has an</text><text fill="#000000" font-family="sans-serif" font-size="13" lengthAdjust="spacing" textLength="5" x="81.3977" y="712.7451">*</text><text fill="#000000" font-family="sans-serif" font-size="13" lengthAdjust="spacing" textLength="7" x="165.963" y="804.2879">1</text></g><!--link Operation to UnityOfMeasurement--><g id="link_Operation_UnityOfMeasurement"><path codeLine="117" d="M36.87,690.5811 C24.13,747.4811 13.14,844.0711 66.5,898.6211 C152.39,986.4211 1031.41,1008.1211 1287.1,1012.5911 " fill="none" id="Operation-UnityOfMeasurement" style="stroke:#181818;stroke-width:1.0;"/><polygon fill="#000000" points="76.342,854.0137,68.3158,848.9116,66.8497,854.6037,76.342,854.0137" style="stroke:#000000;stroke-width:1.0;"/><text fill="#000000" font-family="sans-serif" font-size="13" lengthAdjust="spacing" textLength="39" x="80.5" y="858.1494">has an</text><text fill="#000000" font-family="sans-serif" font-size="13" lengthAdjust="spacing" textLength="5" x="29.6478" y="712.6675">*</text><text fill="#000000" font-family="sans-serif" font-size="13" lengthAdjust="spacing" textLength="7" x="1272.5822" y="1008.5556">1</text></g><!--link Building to BuildingType--><g id="link_Building_BuildingType"><path codeLine="119" d="M1595.45,899.0411 C1599.8,923.8911 1605.11,954.2611 1609.18,977.4911 " fill="none" id="Building-BuildingType" style="stroke:#181818;stroke-width:1.0;"/><polygon fill="#000000" points="1608.362,943.1917,1609.6976,933.7754,1603.9077,934.7887,1608.362,943.1917" style="stroke:#000000;stroke-width:1.0;"/><text fill="#000000" font-family="sans-serif" font-size="13" lengthAdjust="spacing" textLength="32" x="1616.5" y="943.6494">has a</text><text fill="#000000" font-family="sans-serif" font-size="13" lengthAdjust="spacing" textLength="5" x="1591.2505" y="921.1216">*</text><text fill="#000000" font-family="sans-serif" font-size="13" lengthAdjust="spacing" textLength="7" x="1600.4308" y="966.4297">1</text></g><!--link Building to UnityOfMeasurement--><g id="link_Building_UnityOfMeasurement"><path codeLine="120" d="M1544.82,896.2111 C1526.5,913.3011 1504.31,932.4911 1482.5,947.6211 C1464.85,959.8611 1444.64,971.4111 1425.65,981.3111 " fill="none" id="Building-UnityOfMeasurement" style="stroke:#181818;stroke-width:1.0;"/><polygon fill="#000000" points="1507.431,941.1723,1516.4998,938.3075,1513.084,933.5241,1507.431,941.1723" style="stroke:#000000;stroke-width:1.0;"/><text fill="#000000" font-family="sans-serif" font-size="13" lengthAdjust="spacing" textLength="39" x="1520.5" y="943.6494">has an</text><text fill="#000000" font-family="sans-serif" font-size="13" lengthAdjust="spacing" textLength="5" x="1532.0547" y="899.2539">*</text><text fill="#000000" font-family="sans-serif" font-size="13" lengthAdjust="spacing" textLength="7" x="1433.5961" y="973.7898">1</text></g><!--link Crop to Species--><g id="link_Crop_Species"><path codeLine="122" d="M304.5,481.8411 C304.5,503.8911 304.5,533.0111 304.5,560.4311 " fill="none" id="Crop-Species" style="stroke:#181818;stroke-width:1.0;"/><polygon fill="#000000" points="309.5,526.2666,312.4389,517.2215,306.5611,517.2215,309.5,526.2666" style="stroke:#000000;stroke-width:1.0;"/><text fill="#000000" font-family="sans-serif" font-size="13" lengthAdjust="spacing" textLength="32" x="318.5" y="526.6494">has a</text><text fill="#000000" font-family="sans-serif" font-size="13" lengthAdjust="spacing" textLength="5" x="299.0859" y="503.4772">*</text><text fill="#000000" font-family="sans-serif" font-size="13" lengthAdjust="spacing" textLength="7" x="297.1883" y="549.2631">1</text></g><!--link Crop to CropType--><g id="link_Crop_CropType"><path codeLine="123" d="M277.22,476.4211 C268.05,487.2711 258,499.7311 249.5,511.6211 C227.28,542.7111 204.92,580.1011 189.51,607.0511 " fill="none" id="Crop-CropType" style="stroke:#181818;stroke-width:1.0;"/><polygon fill="#000000" points="251.7128,525.4177,259.1948,519.5466,254.3149,516.27,251.7128,525.4177" style="stroke:#000000;stroke-width:1.0;"/><text fill="#000000" font-family="sans-serif" font-size="13" lengthAdjust="spacing" textLength="32" x="263.5" y="526.6494">has a</text><text fill="#000000" font-family="sans-serif" font-size="13" lengthAdjust="spacing" textLength="5" x="264.5889" y="479.4748">*</text><text fill="#000000" font-family="sans-serif" font-size="13" lengthAdjust="spacing" textLength="7" x="185.554" y="595.7169">1</text></g><!--link Product to Manufacturer--><g id="link_Product_Manufacturer"><path codeLine="125" d="M722.24,481.8411 C692.56,517.3711 647.56,571.2311 617.85,606.7911 " fill="none" id="Product-Manufacturer" style="stroke:#181818;stroke-width:1.0;"/><polygon fill="#000000" points="695.2943,525.1037,703.3489,520.0466,698.8381,516.278,695.2943,525.1037" style="stroke:#000000;stroke-width:1.0;"/><text fill="#000000" font-family="sans-serif" font-size="13" lengthAdjust="spacing" textLength="32" x="707.5" y="526.6494">has a</text><text fill="#000000" font-family="sans-serif" font-size="13" lengthAdjust="spacing" textLength="5" x="711.8141" y="503.4772">*</text><text fill="#000000" font-family="sans-serif" font-size="13" lengthAdjust="spacing" textLength="7" x="615.4648" y="595.9791">1</text></g><!--link Product to FormulationType--><g id="link_Product_FormulationType"><path codeLine="126" d="M752.5,481.8411 C752.5,517.3711 752.5,571.2311 752.5,606.7911 " fill="none" id="Product-FormulationType" style="stroke:#181818;stroke-width:1.0;"/><polygon fill="#000000" points="757.5,526.2666,760.4389,517.2215,754.5611,517.2215,757.5,526.2666" style="stroke:#000000;stroke-width:1.0;"/><text fill="#000000" font-family="sans-serif" font-size="13" lengthAdjust="spacing" textLength="32" x="766.5" y="526.6494">has a</text><text fill="#000000" font-family="sans-serif" font-size="13" lengthAdjust="spacing" textLength="5" x="747.0859" y="503.4772">*</text><text fill="#000000" font-family="sans-serif" font-size="13" lengthAdjust="spacing" textLength="7" x="744.8984" y="595.9791">1</text></g><!--link Product to Classification--><g id="link_Product_Classification"><path codeLine="127" d="M784.41,481.8411 C815.71,517.3711 863.17,571.2311 894.49,606.7911 " fill="none" id="Product-Classification" style="stroke:#181818;stroke-width:1.0;"/><polygon fill="#000000" points="831.8052,525.0183,828.0312,516.2886,823.6208,520.1742,831.8052,525.0183" style="stroke:#000000;stroke-width:1.0;"/><text fill="#000000" font-family="sans-serif" font-size="13" lengthAdjust="spacing" textLength="32" x="837.5" y="526.6494">has a</text><text fill="#000000" font-family="sans-serif" font-size="13" lengthAdjust="spacing" textLength="5" x="784.281" y="503.4772">*</text><text fill="#000000" font-family="sans-serif" font-size="13" lengthAdjust="spacing" textLength="7" x="881.3867" y="595.9791">1</text></g><!--link Product to ApplicationType--><g id="link_Product_ApplicationType"><path codeLine="128" d="M812.08,464.0111 C866.64,482.7111 947.88,515.3711 1008.5,560.6211 C1025.76,573.5111 1041.73,591.2711 1054.13,607.0211 " fill="none" id="Product-ApplicationType" style="stroke:#181818;stroke-width:1.0;"/><polygon fill="#000000" points="965.8048,523.81,959.5123,516.6787,956.5224,521.7392,965.8048,523.81" style="stroke:#000000;stroke-width:1.0;"/><text fill="#000000" font-family="sans-serif" font-size="13" lengthAdjust="spacing" textLength="21" x="970.5" y="526.6494">has</text><text fill="#000000" font-family="sans-serif" font-size="13" lengthAdjust="spacing" textLength="5" x="820.034" y="462.4621">*</text><text fill="#000000" font-family="sans-serif" font-size="13" lengthAdjust="spacing" textLength="5" x="1044.1657" y="595.965">*</text></g><!--link Product to Datasheet--><g id="link_Product_Datasheet"><path codeLine="129" d="M692.99,466.2411 C642.48,485.5811 569.77,517.9211 515.5,560.6211 C495.51,576.3411 477.45,598.8711 464.96,616.4111 " fill="none" id="Product-Datasheet" style="stroke:#181818;stroke-width:1.0;"/><polygon fill="#000000" points="588.3242,524.0166,597.4947,521.4963,594.2619,516.5873,588.3242,524.0166" style="stroke:#000000;stroke-width:1.0;"/><text fill="#000000" font-family="sans-serif" font-size="13" lengthAdjust="spacing" textLength="32" x="601.5" y="526.6494">has a</text><text fill="#000000" font-family="sans-serif" font-size="13" lengthAdjust="spacing" textLength="7" x="677.9168" y="464.9778">1</text><text fill="#000000" font-family="sans-serif" font-size="13" lengthAdjust="spacing" textLength="7" x="461.0137" y="605.5238">1</text></g><!--link Datasheet to Component_Datasheet--><g id="link_Datasheet_Component_Datasheet"><path codeLine="131" d="M462.39,671.7411 C474.29,690.4311 492.72,714.3711 515.5,727.6211 C622.93,790.1311 990.54,830.1511 1151.26,845.0611 " fill="none" id="Datasheet-Component_Datasheet" style="stroke:#181818;stroke-width:1.0;"/><text fill="#000000" font-family="sans-serif" font-size="13" lengthAdjust="spacing" textLength="7" x="457.8816" y="693.676">1</text><text fill="#000000" font-family="sans-serif" font-size="13" lengthAdjust="spacing" textLength="5" x="1138.509" y="840.5109">*</text></g><!--link Component to Component_Datasheet--><g id="link_Component_Component_Datasheet"><path codeLine="133" d="M1227.5,681.5611 C1227.5,722.6711 1227.5,788.5311 1227.5,825.0511 " fill="none" id="Component-Component_Datasheet" style="stroke:#181818;stroke-width:1.0;"/><text fill="#000000" font-family="sans-serif" font-size="13" lengthAdjust="spacing" textLength="7" x="1219.9422" y="702.9452">1</text><text fill="#000000" font-family="sans-serif" font-size="13" lengthAdjust="spacing" textLength="5" x="1221.9219" y="813.7439">*</text></g><!--link Component_Datasheet to UnityOfMeasurement--><g id="link_Component_Datasheet_UnityOfMeasurement"><path codeLine="135" d="M1238.03,880.4411 C1246.59,900.2411 1259.94,927.1711 1276.5,947.6211 C1285.11,958.2511 1295.66,968.3911 1306.24,977.3911 " fill="none" id="Component_Datasheet-UnityOfMeasurement" style="stroke:#181818;stroke-width:1.0;"/><polygon fill="#000000" points="1284.3771,942.3559,1281.576,933.2672,1276.7688,936.6494,1284.3771,942.3559" style="stroke:#000000;stroke-width:1.0;"/><text fill="#000000" font-family="sans-serif" font-size="13" lengthAdjust="spacing" textLength="39" x="1290.5" y="943.6494">has an</text><text fill="#000000" font-family="sans-serif" font-size="13" lengthAdjust="spacing" textLength="5" x="1234.7866" y="902.4198">*</text><text fill="#000000" font-family="sans-serif" font-size="13" lengthAdjust="spacing" textLength="7" x="1289.664" y="966.3119">1</text></g><!--SRC=[ZLJ1RjmW4Btp5MYFbNBOwwgAb6PLgOTjLafxZgPuRADWe80JML7_lOEDRUnuDxdOCyDxZs6OmJzBRS51mnkZZQYTQP07roBpque5yGmLFePE8NSe0kXAvG1VGs5UfQvu2ShdAqfgakiiScjK5pt6WWoaSpGDICrFfa35QbaW5z89aktj1aDj2i-OKE0zlwkS5AqAhGDr1YTGyJTcU-F7CHb7zBBI4AJH31m2-pUopmfqw1U89JhQX4W-W0j72CXG5_t_Rqim6RgP-63HZJmpsiGjFe3_YWVEAD4dsiB_2GtEr6-jL0KLC37_P2uHmqLyXervNIp1RqsPFfGd1DywR507OhOnI3IzaBvtniOwqO_MNi19p0_vQ558z8JmWnLhELXzYi8qr4czQQUwdz59Kp3hQ4jT9QzKvfMioQ_1lQ0FoLlaayeYahbPaXFejWH1FOAEi4tclZlZT-EQLkLtLIuZn5X5bflTnwyifPZQQX4W-ZAmPDzPgz92sXxcoBjapyuKhOWNPWShgbELqGa9QgbCZGo-HWnl4MADbqbopZo6DJL0GaHp41pirJd7y5Ecd7V-ncJklkpupGtVxNSRRNVWDNWEcjzkKlS3bHJceHqejunbS_pPFN9Ahps8JvCwQczBnzOxSEavFLHVjp0np-5E3fm6ZlVNYCM0P_FpaMak7eaiqqtmrREnwH786Fb3ah04tK9Ur-vVWGmzZlsikKQCSpeZsDYv6MenfJDq0xcUqQlWrJnUnj9lFNrJ3upG_IGxDNscoEPWrguRWq9578EVHpvbwjVkYkUNzHy0]--></g></svg>