<?xml version="1.0" encoding="us-ascii" standalone="no"?><svg xmlns="http://www.w3.org/2000/svg" xmlns:xlink="http://www.w3.org/1999/xlink" contentStyleType="text/css" height="5075px" preserveAspectRatio="none" style="width:2010px;height:5075px;background:#FFFFFF;" version="1.1" viewBox="0 0 2010 5075" width="2010px" zoomAndPan="magnify"><defs/><g><!--cluster Agricultural facility app--><g id="cluster_Agricultural facility app"><rect fill="none" height="5062" rx="2.5" ry="2.5" style="stroke:#181818;stroke-width:1.0;" width="1823" x="181" y="7"/><text fill="#000000" font-family="sans-serif" font-size="14" font-weight="bold" lengthAdjust="spacing" textLength="160" x="1012.5" y="24.1074">Agricultural facility app</text></g><g id="elem_UC1"><ellipse cx="834.2673" cy="3621.1535" fill="#F1F1F1" rx="193.7673" ry="41.1535" style="stroke:#181818;stroke-width:0.5;"/><text fill="#000000" font-family="sans-serif" font-size="14" lengthAdjust="spacing" textLength="358" x="655.2673" y="3624.9503">USBD01 - I intend to create a dictionary of data/glossary.</text></g><g id="elem_UC2"><ellipse cx="834.6823" cy="3742.8365" fill="#F1F1F1" rx="214.6823" ry="45.3365" style="stroke:#181818;stroke-width:0.5;"/><text fill="#000000" font-family="sans-serif" font-size="14" lengthAdjust="spacing" textLength="401" x="634.1823" y="3746.6333">USBD02 - I intend to develop the relational model (logical level).</text></g><g id="elem_UC3"><ellipse cx="834.6939" cy="3873.1388" fill="#F1F1F1" rx="236.1939" ry="49.6388" style="stroke:#181818;stroke-width:0.5;"/><text fill="#000000" font-family="sans-serif" font-size="14" lengthAdjust="spacing" textLength="445" x="612.1939" y="3876.9357">USBD03 - I want the relational model to be instantiated (physical level).</text></g><g id="elem_UC4"><ellipse cx="834.3777" cy="4016.7755" fill="#F1F1F1" rx="284.3777" ry="59.2755" style="stroke:#181818;stroke-width:0.5;"/><text fill="#000000" font-family="sans-serif" font-size="14" lengthAdjust="spacing" textLength="543" x="562.8777" y="4020.5724">USBD04 - I want data to be imported from a legacy system, provided in a spreadsheet.</text></g><g id="elem_UC5"><ellipse cx="834.3261" cy="2969.9652" fill="#F1F1F1" rx="387.8261" ry="79.9652" style="stroke:#181818;stroke-width:0.5;"/><text fill="#000000" font-family="sans-serif" font-size="14" lengthAdjust="spacing" textLength="752" x="458.3261" y="2973.7621">USBD05 - I want to know the quantity of products harvested in a given portion, for each product, in a given time interval.</text></g><g id="elem_UC6"><ellipse cx="834.5361" cy="3174.2072" fill="#F1F1F1" rx="431.5361" ry="88.7072" style="stroke:#181818;stroke-width:0.5;"/><text fill="#000000" font-family="sans-serif" font-size="14" lengthAdjust="spacing" textLength="840" x="414.5361" y="3178.0041">USBD06 - I want to know the number of protection factors applied to a given portion, for each type of factor, in a given interval of time.</text></g><g id="elem_UC7"><ellipse cx="834.5097" cy="499.1019" fill="#F1F1F1" rx="436.0097" ry="89.6019" style="stroke:#181818;stroke-width:0.5;"/><text fill="#000000" font-family="sans-serif" font-size="14" lengthAdjust="spacing" textLength="849" x="410.0097" y="502.8988">USBD07 - I want to know the number of operations carried out in a given installment, for each type of operation, in a given time interval.</text></g><g id="elem_UC8"><ellipse cx="834.7441" cy="706.2488" fill="#F1F1F1" rx="399.2441" ry="82.2488" style="stroke:#181818;stroke-width:0.5;"/><text fill="#000000" font-family="sans-serif" font-size="14" lengthAdjust="spacing" textLength="775" x="447.2441" y="710.0457">USBD08 - I intend to know the production factor with more applications in the agricultural installation in a given time interval.</text></g><g id="elem_UC9"><ellipse cx="834.2877" cy="920.9575" fill="#F1F1F1" rx="477.7877" ry="97.9575" style="stroke:#181818;stroke-width:0.5;"/><text fill="#000000" font-family="sans-serif" font-size="14" lengthAdjust="spacing" textLength="933" x="367.7877" y="924.7544">USBD09 - I want to know the number of applications of each type of production factor applied in the agricultural installation in a given interval of time.</text></g><g id="elem_UC10"><ellipse cx="834.4053" cy="1120.9811" fill="#F1F1F1" rx="322.9053" ry="66.9811" style="stroke:#181818;stroke-width:0.5;"/><text fill="#000000" font-family="sans-serif" font-size="14" lengthAdjust="spacing" textLength="621" x="523.9053" y="1124.7779">USBD10 - I intend to know what is the parcel with more irrigation operations in a given time interval.</text></g><g id="elem_UC11"><ellipse cx="834.3611" cy="1258.7722" fill="#F1F1F1" rx="164.3611" ry="35.2722" style="stroke:#181818;stroke-width:0.5;"/><text fill="#000000" font-family="sans-serif" font-size="14" lengthAdjust="spacing" textLength="297" x="685.8611" y="1262.5691">USBD11 - I want to register a sowing operation.</text></g><g id="elem_UC12"><ellipse cx="834.6749" cy="1366.135" fill="#F1F1F1" rx="168.6749" ry="36.135" style="stroke:#181818;stroke-width:0.5;"/><text fill="#000000" font-family="sans-serif" font-size="14" lengthAdjust="spacing" textLength="306" x="681.6749" y="1369.9318">USBD12 - I want to register a weeding operation.</text></g><g id="elem_UC13"><ellipse cx="834.4041" cy="1474.9808" fill="#F1F1F1" rx="175.4041" ry="37.4808" style="stroke:#181818;stroke-width:0.5;"/><text fill="#000000" font-family="sans-serif" font-size="14" lengthAdjust="spacing" textLength="320" x="674.4041" y="1478.7777">USBD13 - I want to register a harvesting operation.</text></g><g id="elem_UC14"><ellipse cx="834.3179" cy="1595.9636" fill="#F1F1F1" rx="230.3179" ry="48.4636" style="stroke:#181818;stroke-width:0.5;"/><text fill="#000000" font-family="sans-serif" font-size="14" lengthAdjust="spacing" textLength="433" x="617.8179" y="1599.7604">USBD14 - I want to register a production factor application operation.</text></g><g id="elem_UC15"><ellipse cx="834.2564" cy="1715.7513" fill="#F1F1F1" rx="166.7564" ry="35.7513" style="stroke:#181818;stroke-width:0.5;"/><text fill="#000000" font-family="sans-serif" font-size="14" lengthAdjust="spacing" textLength="302" x="683.2564" y="1719.5482">USBD15 - I want to register a pruning operation.</text></g><g id="elem_UC16"><ellipse cx="834.477" cy="1863.0954" fill="#F1F1F1" rx="368.477" ry="76.0954" style="stroke:#181818;stroke-width:0.5;"/><text fill="#000000" font-family="sans-serif" font-size="14" lengthAdjust="spacing" textLength="713" x="477.977" y="1866.8923">USBD16 - I intend to obtain the list of factors collected from a given plot, for each species, in a given time interval.</text></g><g id="elem_UC17"><ellipse cx="834.4955" cy="2085.7991" fill="#F1F1F1" rx="546.9955" ry="111.7991" style="stroke:#181818;stroke-width:0.5;"/><text fill="#000000" font-family="sans-serif" font-size="14" lengthAdjust="spacing" textLength="1072" x="298.4955" y="2089.596">USBD17 - I want to obtain a list of production factors applied to a given plot, and their respective quantities, for each type of component substance, in a given time interval.</text></g><g id="elem_UC18"><ellipse cx="834.7066" cy="2316.8413" fill="#F1F1F1" rx="404.7066" ry="83.3413" style="stroke:#181818;stroke-width:0.5;"/><text fill="#000000" font-family="sans-serif" font-size="14" lengthAdjust="spacing" textLength="786" x="441.7066" y="2320.6382">USBD18 - I want to obtain the list of operations carried out on a given plot, for each type of operation, in a given time interval.</text></g><g id="elem_UC19"><ellipse cx="834.7095" cy="2565.9419" fill="#F1F1F1" rx="637.7095" ry="129.9419" style="stroke:#181818;stroke-width:0.5;"/><text fill="#000000" font-family="sans-serif" font-size="14" lengthAdjust="spacing" textLength="1254" x="207.7095" y="2569.7388">USBD19 - I intend to obtain the list of production factor applications applied in the agricultural installation, including the plot and crop (if applicable), by type of production factor, in a given time interval.</text></g><g id="elem_UC20"><ellipse cx="834.6938" cy="2793.0388" fill="#F1F1F1" rx="298.1938" ry="62.0388" style="stroke:#181818;stroke-width:0.5;"/><text fill="#000000" font-family="sans-serif" font-size="14" lengthAdjust="spacing" textLength="571" x="549.1938" y="2796.8356">USBD20 - I want to obtain the monthly irrigation totals for each plot, in a given time interval.</text></g><g id="elem_UC21"><ellipse cx="834.5666" cy="4162.9133" fill="#F1F1F1" rx="242.5666" ry="50.9133" style="stroke:#181818;stroke-width:0.5;"/><text fill="#000000" font-family="sans-serif" font-size="14" lengthAdjust="spacing" textLength="458" x="605.5666" y="4166.7102">USLP01 - I want to the domain model to be developed (conceptual level).</text></g><g id="elem_UC22"><ellipse cx="834.4649" cy="4314.893" fill="#F1F1F1" rx="317.4649" ry="65.893" style="stroke:#181818;stroke-width:0.5;"/><text fill="#000000" font-family="sans-serif" font-size="14" lengthAdjust="spacing" textLength="610" x="529.4649" y="4318.6898">USLP02 - I want to define a functionality that consists of simulating an irrigation system controller.</text></g><g id="elem_UC23"><ellipse cx="834.5897" cy="4522.9179" fill="#F1F1F1" rx="522.5897" ry="106.9179" style="stroke:#181818;stroke-width:0.5;"/><text fill="#000000" font-family="sans-serif" font-size="14" lengthAdjust="spacing" textLength="1023" x="323.0897" y="4526.7148">USLP03 - I intend to develop a functionality that allows the irrigation plan generated by the controller simulator developed at UC22 to be automatically compressed.</text></g><g id="elem_UC24"><ellipse cx="834.3573" cy="4718.1715" fill="#F1F1F1" rx="253.8573" ry="53.1715" style="stroke:#181818;stroke-width:0.5;"/><text fill="#000000" font-family="sans-serif" font-size="14" lengthAdjust="spacing" textLength="481" x="593.8573" y="4721.9683">USLP04 - I intend to develop functionalities that allow the evocation of UC11.</text></g><g id="elem_UC25"><ellipse cx="834.3573" cy="4859.1715" fill="#F1F1F1" rx="253.8573" ry="53.1715" style="stroke:#181818;stroke-width:0.5;"/><text fill="#000000" font-family="sans-serif" font-size="14" lengthAdjust="spacing" textLength="481" x="593.8573" y="4862.9683">USLP05 - I intend to develop functionalities that allow the evocation of UC12.</text></g><g id="elem_UC26"><ellipse cx="834.3573" cy="5000.1715" fill="#F1F1F1" rx="253.8573" ry="53.1715" style="stroke:#181818;stroke-width:0.5;"/><text fill="#000000" font-family="sans-serif" font-size="14" lengthAdjust="spacing" textLength="481" x="593.8573" y="5003.9683">USLP06 - I intend to develop functionalities that allow the evocation of UC13.</text></g><g id="elem_UC27"><ellipse cx="834.3573" cy="3351.1715" fill="#F1F1F1" rx="253.8573" ry="53.1715" style="stroke:#181818;stroke-width:0.5;"/><text fill="#000000" font-family="sans-serif" font-size="14" lengthAdjust="spacing" textLength="481" x="593.8573" y="3354.9683">USLP07 - I intend to develop functionalities that allow the evocation of UC14.</text></g><g id="elem_UC28"><ellipse cx="834.3573" cy="3492.1715" fill="#F1F1F1" rx="253.8573" ry="53.1715" style="stroke:#181818;stroke-width:0.5;"/><text fill="#000000" font-family="sans-serif" font-size="14" lengthAdjust="spacing" textLength="481" x="593.8573" y="3495.9683">USLP08 - I intend to develop functionalities that allow the evocation of UC15.</text></g><g id="elem_UC29"><ellipse cx="834.7303" cy="292.1461" fill="#F1F1F1" rx="401.2303" ry="82.6461" style="stroke:#181818;stroke-width:0.5;"/><text fill="#000000" font-family="sans-serif" font-size="14" lengthAdjust="spacing" textLength="779" x="445.2303" y="295.9429">USBD21 - I want the relational model to be updated (logical and physical level) in light of new requirements and user stories.</text></g><g id="elem_UC30"><ellipse cx="834.5265" cy="108.8053" fill="#F1F1F1" rx="312.0265" ry="64.8053" style="stroke:#181818;stroke-width:0.5;"/><text fill="#000000" font-family="sans-serif" font-size="14" lengthAdjust="spacing" textLength="599" x="535.0265" y="112.6022">USBD22 - I want updated data from a legacy system to be imported, provided in a spreadsheet.</text></g><g id="elem_UC31"><ellipse cx="1760.063" cy="292.0126" fill="#F1F1F1" rx="200.563" ry="42.5126" style="stroke:#181818;stroke-width:0.5;"/><text fill="#000000" font-family="sans-serif" font-size="14" lengthAdjust="spacing" textLength="372" x="1574.063" y="295.8095">USBD23 - I want the dictionary to be updated data/glossary</text></g><g id="elem_UC32"><ellipse cx="1759.8714" cy="165.9743" fill="#F1F1F1" rx="227.8714" ry="47.9743" style="stroke:#181818;stroke-width:0.5;"/><text fill="#000000" font-family="sans-serif" font-size="14" lengthAdjust="spacing" textLength="428" x="1545.8714" y="169.7712">USLP09 - I want the domain model to be updated (conceptual level).</text></g><!--entity AG--><g id="elem_AG"><ellipse cx="71.5" cy="1625" fill="#808080" rx="8" ry="8" style="stroke:#181818;stroke-width:0.5;"/><path d="M71.5,1633 L71.5,1660 M58.5,1641 L84.5,1641 M71.5,1660 L58.5,1675 M71.5,1660 L84.5,1675 " fill="none" style="stroke:#181818;stroke-width:0.5;"/><text fill="#000000" font-family="sans-serif" font-size="14" lengthAdjust="spacing" textLength="131" x="6" y="1691.6074">Agricultural Manager</text></g><!--entity PO--><g id="elem_PO"><ellipse cx="71.5" cy="4059" fill="#008000" rx="8" ry="8" style="stroke:#181818;stroke-width:0.5;"/><path d="M71.5,4067 L71.5,4094 M58.5,4075 L84.5,4075 M71.5,4094 L58.5,4109 M71.5,4094 L84.5,4109 " fill="none" style="stroke:#181818;stroke-width:0.5;"/><text fill="#000000" font-family="sans-serif" font-size="14" lengthAdjust="spacing" textLength="94" x="24.5" y="4125.6074">Product Owner</text></g><!--link PO to UC1--><g id="link_PO_UC1"><path d="M76.42,4050.45 C86.52,3957.31 116.65,3728.41 173,3680 C317.85,3555.56 552.29,3567.61 699.41,3591.52 " fill="none" id="PO-UC1" style="stroke:#181818;stroke-width:1.0;"/></g><!--link PO to UC2--><g id="link_PO_UC2"><path d="M73.8,4050.32 C78.21,3987.34 96.73,3865.54 173,3806 C313.62,3696.21 525.84,3696.21 671.56,3713.33 " fill="none" id="PO-UC2" style="stroke:#181818;stroke-width:1.0;"/></g><!--link PO to UC3--><g id="link_PO_UC3"><path d="M87.48,4050.4 C103.11,4015.05 131.21,3965.09 173,3940 C308,3858.93 487.03,3845.31 624.64,3850.24 " fill="none" id="PO-UC3" style="stroke:#181818;stroke-width:1.0;"/></g><!--link PO to UC4--><g id="link_PO_UC4"><path d="M118.67,4085.57 C207.71,4077.03 409.06,4057.72 575.44,4041.75 " fill="none" id="PO-UC4" style="stroke:#181818;stroke-width:1.0;"/></g><!--link PO to UC21--><g id="link_PO_UC21"><path d="M118.67,4094.43 C214.64,4103.63 441.05,4125.35 613.55,4141.9 " fill="none" id="PO-UC21" style="stroke:#181818;stroke-width:1.0;"/></g><!--link PO to UC22--><g id="link_PO_UC22"><path d="M89.53,4129.62 C105.89,4162.53 133.92,4207.62 173,4231 C276.54,4292.93 405.45,4318.32 521.83,4326.68 " fill="none" id="PO-UC22" style="stroke:#181818;stroke-width:1.0;"/></g><!--link PO to UC23--><g id="link_PO_UC23"><path d="M73.24,4129.66 C76.75,4195.86 93.9,4328.46 173,4398 C220.33,4439.61 277.08,4469.23 337.17,4490.07 " fill="none" id="PO-UC23" style="stroke:#181818;stroke-width:1.0;"/></g><!--link PO to UC24--><g id="link_PO_UC24"><path d="M73.72,4129.85 C78.14,4245.35 97.31,4576.53 173,4647 C297.19,4762.62 496.79,4768.8 644.1,4753.14 " fill="none" id="PO-UC24" style="stroke:#181818;stroke-width:1.0;"/></g><!--link PO to UC25--><g id="link_PO_UC25"><path d="M72.12,4129.54 C71.73,4263.4 77.95,4696.3 173,4788 C296.26,4906.91 498.77,4911.76 647.11,4894.86 " fill="none" id="PO-UC25" style="stroke:#181818;stroke-width:1.0;"/></g><!--link PO to UC26--><g id="link_PO_UC26"><path d="M74.39,4129.57 C82.34,4288.16 115.34,4872.04 173,4929 C295.55,5050.08 499.97,5054.03 648.99,5036.32 " fill="none" id="PO-UC26" style="stroke:#181818;stroke-width:1.0;"/></g><!--link PO to UC27--><g id="link_PO_UC27"><path d="M72.39,4050.28 C72.92,3919.88 81.91,3508.21 173,3421 C296.79,3302.48 499.47,3297.98 647.72,3315.06 " fill="none" id="PO-UC27" style="stroke:#181818;stroke-width:1.0;"/></g><!--link PO to UC28--><g id="link_PO_UC28"><path d="M74.15,4050.22 C79.62,3938.92 101.18,3628.13 173,3562 C297.7,3447.18 496.98,3441.15 644.06,3456.82 " fill="none" id="PO-UC28" style="stroke:#181818;stroke-width:1.0;"/></g><!--link AG to UC5--><g id="link_AG_UC5"><path d="M72.91,1695.57 C75.34,1895.04 90.75,2784.24 173,2872 C249.1,2953.2 361.01,2987.28 471.17,2998.17 " fill="none" id="AG-UC5" style="stroke:#181818;stroke-width:1.0;"/></g><!--link AG to UC6--><g id="link_AG_UC6"><path d="M72.45,1695.6 C72.56,1913.76 78.03,2963.12 173,3067 C234.04,3133.76 319.07,3169.81 407.83,3187.65 " fill="none" id="AG-UC6" style="stroke:#181818;stroke-width:1.0;"/></g><!--link AG to UC7--><g id="link_AG_UC7"><path d="M73.48,1616.24 C78.36,1433.63 102.65,681.09 173,606 C233.16,541.78 315.55,506.2 401.74,487.93 " fill="none" id="AG-UC7" style="stroke:#181818;stroke-width:1.0;"/></g><!--link AG to UC8--><g id="link_AG_UC8"><path d="M74.39,1616.48 C82.38,1456.69 115.73,864.09 173,805 C245.63,730.07 348.83,695.58 452.12,682.37 " fill="none" id="AG-UC8" style="stroke:#181818;stroke-width:1.0;"/></g><!--link AG to UC9--><g id="link_AG_UC9"><path d="M73.14,1616.39 C76,1492.96 91.36,1118.6 173,1036 C223.83,984.57 288.89,951.33 358.28,930.48 " fill="none" id="AG-UC9" style="stroke:#181818;stroke-width:1.0;"/></g><!--link AG to UC10--><g id="link_AG_UC10"><path d="M75.63,1616.48 C84.33,1517.22 112.31,1261.36 173,1206 C273.79,1114.06 422,1088.81 552.49,1088.32 " fill="none" id="AG-UC10" style="stroke:#181818;stroke-width:1.0;"/></g><!--link AG to UC11--><g id="link_AG_UC11"><path d="M78.38,1616.4 C91.41,1534.47 125.35,1350.79 173,1312 C328.45,1185.44 578.29,1206.61 722.01,1233.04 " fill="none" id="AG-UC11" style="stroke:#181818;stroke-width:1.0;"/></g><!--link AG to UC12--><g id="link_AG_UC12"><path d="M76.97,1616.08 C85.37,1561.82 108.89,1466.24 173,1420 C331.05,1306 569.09,1319.21 712.09,1341.21 " fill="none" id="AG-UC12" style="stroke:#181818;stroke-width:1.0;"/></g><!--link AG to UC13--><g id="link_AG_UC13"><path d="M92.61,1616.25 C109.72,1586.99 137.21,1549.11 173,1530 C332.5,1444.86 545.03,1443.52 685.4,1455.18 " fill="none" id="AG-UC13" style="stroke:#181818;stroke-width:1.0;"/></g><!--link AG to UC14--><g id="link_AG_UC14"><path d="M137.05,1650.91 C242.3,1642.61 455.45,1625.81 618.38,1612.96 " fill="none" id="AG-UC14" style="stroke:#181818;stroke-width:1.0;"/></g><!--link AG to UC15--><g id="link_AG_UC15"><path d="M137.05,1661.09 C255.58,1670.43 510.96,1690.57 677.33,1703.69 " fill="none" id="AG-UC15" style="stroke:#181818;stroke-width:1.0;"/></g><!--link AG to UC16--><g id="link_AG_UC16"><path d="M96.92,1695.52 C114.75,1720.82 141.31,1751.99 173,1769 C262.04,1816.79 367.11,1842.93 466.94,1856.62 " fill="none" id="AG-UC16" style="stroke:#181818;stroke-width:1.0;"/></g><!--link AG to UC17--><g id="link_AG_UC17"><path d="M73.7,1695.64 C77.93,1760.41 96.15,1888.47 173,1956 C217.44,1995.05 270.14,2023.75 326.09,2044.65 " fill="none" id="AG-UC17" style="stroke:#181818;stroke-width:1.0;"/></g><!--link AG to UC18--><g id="link_AG_UC18"><path d="M73.86,1695.83 C78.64,1811.29 98.72,2142.53 173,2215 C243.59,2283.87 340.12,2318.26 437.59,2333.46 " fill="none" id="AG-UC18" style="stroke:#181818;stroke-width:1.0;"/></g><!--link AG to UC19--><g id="link_AG_UC19"><path d="M71.99,1695.74 C71.01,1836.84 75.18,2311.03 173,2418 C204.23,2452.15 241.47,2479.29 282.15,2500.78 " fill="none" id="AG-UC19" style="stroke:#181818;stroke-width:1.0;"/></g><!--link AG to UC20--><g id="link_AG_UC20"><path d="M73.39,1695.78 C77.86,1879.35 100.67,2638.79 173,2713 C281.03,2823.85 456.93,2840.57 600.06,2831.33 " fill="none" id="AG-UC20" style="stroke:#181818;stroke-width:1.0;"/></g><!--SRC=[hLVRRkCs47tFLn3fInP8MbE-nOzf2omAjDW0nNu0BOrbeZIf9IaRHj5_xv2wM9H7QxV8FYmmCNdEuSpmYADWvvatpCfoxraXBUHU6ltm879lB7jyAwtCQ-LhAnJxGsXHWdramh6tp-o7qiAvM_XkJL7dddqvwNR5-vUu0X0ie0fTAXW1xaGkbVHd9ghgyUy7Xlzg1xbmkF3hdp__EkFiXVt6fFQWYo0pjo0yC85AeqvXpypiM26y-AbKnZdymu-H_UildC3BHdW5746PYlazC0jAH4p53gO0nPwKAMMEeGghFdMu6O4xZxWdeJqDXLHRG5w7QV0IZr2mfsf_TWJyd81VNE33KJkuGsLiWDfPSy2SA2X5VcRkx3mSdbbbpL4M-BFK-AEhC7M5smFuZcb1C2q71p7iBsrEyK3Vwg3RnsHNJQKTsmjx1ESxXb8UGRCW2K_-p7RO5I3oVRV-URZAomF4CjYZK9sU9Q5dHUlHzM4BjbNZcvuDtOIjw48pAGcnljEg_Bc2iB_Pb8ZhT8MVWz1EtuhGjxwbprHWOoyubWjhWovJ-vGEkqAf0sXFwElttyxVcj3tEchuNc5RbKlUs4dwFRQhXIQ1UQiQMSDwCRothUIuugQiLqBMvbRQ4WaO9pcvrjwL_B-8dIhpvbeldr5fFEq55j8rwHGsntj-oQ74MfSDvw05RkMApmXodYJBGYdnqjbmfyr9wlA2twCGriUpAPGJG47344x7vrCmhHlGI8IfySKKqaHvyr4sUt32n_Xo6hpMj4R2VlXgL7UpzQBjCOM85mF1sssKGYEws77hFCeChxMh89VWRbzcJhWDJzsc5IDwALU9exqmAXBXG7kG5fCJH7dyhRFvAF3AYNA3tnkDBiLSlGqViXpkE0PXIloLEiOmfnEcQVHKMl-7MtB2b_ZcThs_svtkRYSA0dDLnviN3GGF58kIMtoFFCdU0hSAFZspxNdQ_UuuA-5fsMog2WUZ_LwTXnRc3GftWszwJFyjskpApNv_dwLk5lWASmZKmvTI-ouBpwJSOADLlhv-Xt42FNMv0dPIX-VYhjRDUp6-DdqmRiHrMDBuTN7oK8UoO2s47fwxUKk5jTw6-srxyemWdq-yBab-R0HpQZuU0y9AeO0IT6XZF7qeEowuy7TIiH2N725QKDJcJjGU4-h3qnAB66ujtd07HIzzJaXVJ4WV2aTR64YFmk1eEblUnGzFJx8WI9OVGvBr94k2PFKn9FEUP4MGh3-6PD6Jh0cIruyXMVOaXEDb_Ax9fQwAPcZfHgBWLAC19jY1YcCayceu8TQt6WVAyB1rSGCoOmDZxwBgNXHbJODRt377kOSQT4R3q1rppvnuP6MZ2MumNwOPI4RD3f1oeiq8yDha-gHEMjoySPdu7uxJBo_zMDj5MHBDasYHhXnjJ7TcwTPij7UPXgiqNATXqsPldvjmcKIh95edKRflaqJjmxWFUHfcQJXFmqKQfefuAecdcdWgYgUgy0Ftpxy0]--></g></svg>