<?xml version="1.0" encoding="us-ascii" standalone="no"?><svg xmlns="http://www.w3.org/2000/svg" xmlns:xlink="http://www.w3.org/1999/xlink" contentStyleType="text/css" height="5196px" preserveAspectRatio="none" style="width:1494px;height:5196px;background:#FFFFFF;" version="1.1" viewBox="0 0 1494 5196" width="1494px" zoomAndPan="magnify"><defs/><g><!--cluster Agricultural facility app--><g id="cluster_Agricultural facility app"><rect fill="none" height="5183" rx="2.5" ry="2.5" style="stroke:#181818;stroke-width:1.0;" width="1307" x="181" y="7"/><text fill="#000000" font-family="sans-serif" font-size="14" font-weight="bold" lengthAdjust="spacing" textLength="160" x="754.5" y="24.1074">Agricultural facility app</text></g><g id="elem_UC1"><ellipse cx="834.2673" cy="3110.1535" fill="#F1F1F1" rx="193.7673" ry="41.1535" style="stroke:#181818;stroke-width:0.5;"/><text fill="#000000" font-family="sans-serif" font-size="14" lengthAdjust="spacing" textLength="358" x="655.2673" y="3113.9503">USBD01 - I intend to create a dictionary of data/glossary.</text></g><g id="elem_UC2"><ellipse cx="834.6823" cy="3231.8365" fill="#F1F1F1" rx="214.6823" ry="45.3365" style="stroke:#181818;stroke-width:0.5;"/><text fill="#000000" font-family="sans-serif" font-size="14" lengthAdjust="spacing" textLength="401" x="634.1823" y="3235.6333">USBD02 - I intend to develop the relational model (logical level).</text></g><g id="elem_UC3"><ellipse cx="834.6939" cy="3362.1388" fill="#F1F1F1" rx="236.1939" ry="49.6388" style="stroke:#181818;stroke-width:0.5;"/><text fill="#000000" font-family="sans-serif" font-size="14" lengthAdjust="spacing" textLength="445" x="612.1939" y="3365.9357">USBD03 - I want the relational model to be instantiated (physical level).</text></g><g id="elem_UC4"><ellipse cx="834.3777" cy="3505.7755" fill="#F1F1F1" rx="284.3777" ry="59.2755" style="stroke:#181818;stroke-width:0.5;"/><text fill="#000000" font-family="sans-serif" font-size="14" lengthAdjust="spacing" textLength="543" x="562.8777" y="3509.5724">USBD04 - I want data to be imported from a legacy system, provided in a spreadsheet.</text></g><g id="elem_UC5"><ellipse cx="834.3261" cy="2816.9652" fill="#F1F1F1" rx="387.8261" ry="79.9652" style="stroke:#181818;stroke-width:0.5;"/><text fill="#000000" font-family="sans-serif" font-size="14" lengthAdjust="spacing" textLength="752" x="458.3261" y="2820.7621">USBD05 - I want to know the quantity of products harvested in a given portion, for each product, in a given time interval.</text></g><g id="elem_UC6"><ellipse cx="834.5361" cy="133.2072" fill="#F1F1F1" rx="431.5361" ry="88.7072" style="stroke:#181818;stroke-width:0.5;"/><text fill="#000000" font-family="sans-serif" font-size="14" lengthAdjust="spacing" textLength="840" x="414.5361" y="137.0041">USBD06 - I want to know the number of protection factors applied to a given portion, for each type of factor, in a given interval of time.</text></g><g id="elem_UC7"><ellipse cx="834.5097" cy="346.1019" fill="#F1F1F1" rx="436.0097" ry="89.6019" style="stroke:#181818;stroke-width:0.5;"/><text fill="#000000" font-family="sans-serif" font-size="14" lengthAdjust="spacing" textLength="849" x="410.0097" y="349.8988">USBD07 - I want to know the number of operations carried out in a given installment, for each type of operation, in a given time interval.</text></g><g id="elem_UC8"><ellipse cx="834.7441" cy="553.2488" fill="#F1F1F1" rx="399.2441" ry="82.2488" style="stroke:#181818;stroke-width:0.5;"/><text fill="#000000" font-family="sans-serif" font-size="14" lengthAdjust="spacing" textLength="775" x="447.2441" y="557.0457">USBD08 - I intend to know the production factor with more applications in the agricultural installation in a given time interval.</text></g><g id="elem_UC9"><ellipse cx="834.2877" cy="767.9575" fill="#F1F1F1" rx="477.7877" ry="97.9575" style="stroke:#181818;stroke-width:0.5;"/><text fill="#000000" font-family="sans-serif" font-size="14" lengthAdjust="spacing" textLength="933" x="367.7877" y="771.7544">USBD09 - I want to know the number of applications of each type of production factor applied in the agricultural installation in a given interval of time.</text></g><g id="elem_UC10"><ellipse cx="834.4053" cy="967.9811" fill="#F1F1F1" rx="322.9053" ry="66.9811" style="stroke:#181818;stroke-width:0.5;"/><text fill="#000000" font-family="sans-serif" font-size="14" lengthAdjust="spacing" textLength="621" x="523.9053" y="971.7779">USBD10 - I intend to know what is the parcel with more irrigation operations in a given time interval.</text></g><g id="elem_UC11"><ellipse cx="834.3611" cy="1105.7722" fill="#F1F1F1" rx="164.3611" ry="35.2722" style="stroke:#181818;stroke-width:0.5;"/><text fill="#000000" font-family="sans-serif" font-size="14" lengthAdjust="spacing" textLength="297" x="685.8611" y="1109.5691">USBD11 - I want to register a sowing operation.</text></g><g id="elem_UC12"><ellipse cx="834.6749" cy="1213.135" fill="#F1F1F1" rx="168.6749" ry="36.135" style="stroke:#181818;stroke-width:0.5;"/><text fill="#000000" font-family="sans-serif" font-size="14" lengthAdjust="spacing" textLength="306" x="681.6749" y="1216.9318">USBD12 - I want to register a weeding operation.</text></g><g id="elem_UC13"><ellipse cx="834.4041" cy="1321.9808" fill="#F1F1F1" rx="175.4041" ry="37.4808" style="stroke:#181818;stroke-width:0.5;"/><text fill="#000000" font-family="sans-serif" font-size="14" lengthAdjust="spacing" textLength="320" x="674.4041" y="1325.7777">USBD13 - I want to register a harvesting operation.</text></g><g id="elem_UC14"><ellipse cx="834.3179" cy="1442.9636" fill="#F1F1F1" rx="230.3179" ry="48.4636" style="stroke:#181818;stroke-width:0.5;"/><text fill="#000000" font-family="sans-serif" font-size="14" lengthAdjust="spacing" textLength="433" x="617.8179" y="1446.7604">USBD14 - I want to register a production factor application operation.</text></g><g id="elem_UC15"><ellipse cx="834.2564" cy="1562.7513" fill="#F1F1F1" rx="166.7564" ry="35.7513" style="stroke:#181818;stroke-width:0.5;"/><text fill="#000000" font-family="sans-serif" font-size="14" lengthAdjust="spacing" textLength="302" x="683.2564" y="1566.5482">USBD15 - I want to register a pruning operation.</text></g><g id="elem_UC16"><ellipse cx="834.477" cy="1710.0954" fill="#F1F1F1" rx="368.477" ry="76.0954" style="stroke:#181818;stroke-width:0.5;"/><text fill="#000000" font-family="sans-serif" font-size="14" lengthAdjust="spacing" textLength="713" x="477.977" y="1713.8923">USBD16 - I intend to obtain the list of factors collected from a given plot, for each species, in a given time interval.</text></g><g id="elem_UC17"><ellipse cx="834.4955" cy="1932.7991" fill="#F1F1F1" rx="546.9955" ry="111.7991" style="stroke:#181818;stroke-width:0.5;"/><text fill="#000000" font-family="sans-serif" font-size="14" lengthAdjust="spacing" textLength="1072" x="298.4955" y="1936.596">USBD17 - I want to obtain a list of production factors applied to a given plot, and their respective quantities, for each type of component substance, in a given time interval.</text></g><g id="elem_UC18"><ellipse cx="834.7066" cy="2163.8413" fill="#F1F1F1" rx="404.7066" ry="83.3413" style="stroke:#181818;stroke-width:0.5;"/><text fill="#000000" font-family="sans-serif" font-size="14" lengthAdjust="spacing" textLength="786" x="441.7066" y="2167.6382">USBD18 - I want to obtain the list of operations carried out on a given plot, for each type of operation, in a given time interval.</text></g><g id="elem_UC19"><ellipse cx="834.7095" cy="2412.9419" fill="#F1F1F1" rx="637.7095" ry="129.9419" style="stroke:#181818;stroke-width:0.5;"/><text fill="#000000" font-family="sans-serif" font-size="14" lengthAdjust="spacing" textLength="1254" x="207.7095" y="2416.7388">USBD19 - I intend to obtain the list of production factor applications applied in the agricultural installation, including the plot and crop (if applicable), by type of production factor, in a given time interval.</text></g><g id="elem_UC20"><ellipse cx="834.6938" cy="2640.0388" fill="#F1F1F1" rx="298.1938" ry="62.0388" style="stroke:#181818;stroke-width:0.5;"/><text fill="#000000" font-family="sans-serif" font-size="14" lengthAdjust="spacing" textLength="571" x="549.1938" y="2643.8356">USBD20 - I want to obtain the monthly irrigation totals for each plot, in a given time interval.</text></g><g id="elem_UC21"><ellipse cx="834.5666" cy="2982.9133" fill="#F1F1F1" rx="242.5666" ry="50.9133" style="stroke:#181818;stroke-width:0.5;"/><text fill="#000000" font-family="sans-serif" font-size="14" lengthAdjust="spacing" textLength="458" x="605.5666" y="2986.7102">USLP01 - I want to the domain model to be developed (conceptual level).</text></g><g id="elem_UC22"><ellipse cx="834.4649" cy="4717.893" fill="#F1F1F1" rx="317.4649" ry="65.893" style="stroke:#181818;stroke-width:0.5;"/><text fill="#000000" font-family="sans-serif" font-size="14" lengthAdjust="spacing" textLength="610" x="529.4649" y="4721.6898">USLP02 - I want to define a functionality that consists of simulating an irrigation system controller.</text></g><g id="elem_UC23"><ellipse cx="834.5897" cy="4925.9179" fill="#F1F1F1" rx="522.5897" ry="106.9179" style="stroke:#181818;stroke-width:0.5;"/><text fill="#000000" font-family="sans-serif" font-size="14" lengthAdjust="spacing" textLength="1023" x="323.0897" y="4929.7148">USLP03 - I intend to develop a functionality that allows the irrigation plan generated by the controller simulator developed at UC22 to be automatically compressed.</text></g><g id="elem_UC24"><ellipse cx="834.3573" cy="5121.1715" fill="#F1F1F1" rx="253.8573" ry="53.1715" style="stroke:#181818;stroke-width:0.5;"/><text fill="#000000" font-family="sans-serif" font-size="14" lengthAdjust="spacing" textLength="481" x="593.8573" y="5124.9683">USLP04 - I intend to develop functionalities that allow the evocation of UC11.</text></g><g id="elem_UC25"><ellipse cx="834.3573" cy="3654.1715" fill="#F1F1F1" rx="253.8573" ry="53.1715" style="stroke:#181818;stroke-width:0.5;"/><text fill="#000000" font-family="sans-serif" font-size="14" lengthAdjust="spacing" textLength="481" x="593.8573" y="3657.9683">USLP05 - I intend to develop functionalities that allow the evocation of UC12.</text></g><g id="elem_UC26"><ellipse cx="834.3573" cy="3795.1715" fill="#F1F1F1" rx="253.8573" ry="53.1715" style="stroke:#181818;stroke-width:0.5;"/><text fill="#000000" font-family="sans-serif" font-size="14" lengthAdjust="spacing" textLength="481" x="593.8573" y="3798.9683">USLP06 - I intend to develop functionalities that allow the evocation of UC13.</text></g><g id="elem_UC27"><ellipse cx="834.3573" cy="3936.1715" fill="#F1F1F1" rx="253.8573" ry="53.1715" style="stroke:#181818;stroke-width:0.5;"/><text fill="#000000" font-family="sans-serif" font-size="14" lengthAdjust="spacing" textLength="481" x="593.8573" y="3939.9683">USLP07 - I intend to develop functionalities that allow the evocation of UC14.</text></g><g id="elem_UC28"><ellipse cx="834.3573" cy="4077.1715" fill="#F1F1F1" rx="253.8573" ry="53.1715" style="stroke:#181818;stroke-width:0.5;"/><text fill="#000000" font-family="sans-serif" font-size="14" lengthAdjust="spacing" textLength="481" x="593.8573" y="4080.9683">USLP08 - I intend to develop functionalities that allow the evocation of UC15.</text></g><g id="elem_UC29"><ellipse cx="834.7303" cy="4248.1461" fill="#F1F1F1" rx="401.2303" ry="82.6461" style="stroke:#181818;stroke-width:0.5;"/><text fill="#000000" font-family="sans-serif" font-size="14" lengthAdjust="spacing" textLength="779" x="445.2303" y="4251.9429">USBD21 - I want the relational model to be updated (logical and physical level) in light of new requirements and user stories.</text></g><g id="elem_UC30"><ellipse cx="834.5265" cy="4430.8053" fill="#F1F1F1" rx="312.0265" ry="64.8053" style="stroke:#181818;stroke-width:0.5;"/><text fill="#000000" font-family="sans-serif" font-size="14" lengthAdjust="spacing" textLength="599" x="535.0265" y="4434.6022">USBD22 - I want updated data from a legacy system to be imported, provided in a spreadsheet.</text></g><g id="elem_UC31"><ellipse cx="834.563" cy="4574.0126" fill="#F1F1F1" rx="200.563" ry="42.5126" style="stroke:#181818;stroke-width:0.5;"/><text fill="#000000" font-family="sans-serif" font-size="14" lengthAdjust="spacing" textLength="372" x="648.563" y="4577.8095">USBD23 - I want the dictionary to be updated data/glossary</text></g><!--entity AG--><g id="elem_AG"><ellipse cx="71.5" cy="1412" fill="#808080" rx="8" ry="8" style="stroke:#181818;stroke-width:0.5;"/><path d="M71.5,1420 L71.5,1447 M58.5,1428 L84.5,1428 M71.5,1447 L58.5,1462 M71.5,1447 L84.5,1462 " fill="none" style="stroke:#181818;stroke-width:0.5;"/><text fill="#000000" font-family="sans-serif" font-size="14" lengthAdjust="spacing" textLength="131" x="6" y="1478.6074">Agricultural Manager</text></g><!--entity PO--><g id="elem_PO"><ellipse cx="71.5" cy="3905" fill="#008000" rx="8" ry="8" style="stroke:#181818;stroke-width:0.5;"/><path d="M71.5,3913 L71.5,3940 M58.5,3921 L84.5,3921 M71.5,3940 L58.5,3955 M71.5,3940 L84.5,3955 " fill="none" style="stroke:#181818;stroke-width:0.5;"/><text fill="#000000" font-family="sans-serif" font-size="14" lengthAdjust="spacing" textLength="94" x="24.5" y="3971.6074">Product Owner</text></g><!--link PO to UC1--><g id="link_PO_UC1"><path d="M74.84,3896.27 C84.03,3746.23 119.89,3219.97 173,3169 C313.59,3034.09 556.98,3051.78 705.8,3079.26 " fill="none" id="PO-UC1" style="stroke:#181818;stroke-width:1.0;"/></g><!--link PO to UC2--><g id="link_PO_UC2"><path d="M72.65,3896.13 C74,3769.12 85.34,3377.52 173,3295 C308.46,3167.49 535.87,3175.79 685.31,3199.29 " fill="none" id="PO-UC2" style="stroke:#181818;stroke-width:1.0;"/></g><!--link PO to UC3--><g id="link_PO_UC3"><path d="M74.47,3896.23 C80.71,3787.96 103.88,3491.87 173,3429 C303.45,3310.34 513.9,3309.58 662.13,3328.18 " fill="none" id="PO-UC3" style="stroke:#181818;stroke-width:1.0;"/></g><!--link PO to UC4--><g id="link_PO_UC4"><path d="M78.19,3896.46 C91.02,3813.16 124.88,3623.92 173,3583 C288.21,3485.02 458.46,3467.16 597.26,3473.07 " fill="none" id="PO-UC4" style="stroke:#181818;stroke-width:1.0;"/></g><!--link PO to UC21--><g id="link_PO_UC21"><path d="M74.13,3896.23 C81.25,3731.87 112.03,3111.33 173,3051 C298.88,2926.43 511.54,2926.88 661.49,2947.16 " fill="none" id="PO-UC21" style="stroke:#181818;stroke-width:1.0;"/></g><!--link PO to UC22--><g id="link_PO_UC22"><path d="M72.19,3975.94 C72.03,4110.11 78.95,4541.49 173,4634 C275.08,4734.41 433.03,4757.32 568.87,4754.21 " fill="none" id="PO-UC22" style="stroke:#181818;stroke-width:1.0;"/></g><!--link PO to UC23--><g id="link_PO_UC23"><path d="M74.38,3975.56 C82.39,4136.92 115.95,4739.73 173,4801 C215.35,4846.48 268.66,4878.45 326.53,4900.56 " fill="none" id="PO-UC23" style="stroke:#181818;stroke-width:1.0;"/></g><!--link PO to UC24--><g id="link_PO_UC24"><path d="M73.16,3975.71 C76.69,4165.24 96.17,4971.84 173,5050 C294.68,5173.78 501.57,5176.56 651.43,5157.83 " fill="none" id="PO-UC24" style="stroke:#181818;stroke-width:1.0;"/></g><!--link PO to UC25--><g id="link_PO_UC25"><path d="M79.22,3896.45 C89.83,3847.25 115.52,3764.76 173,3724 C301.04,3633.2 479.67,3619.17 618.88,3625.94 " fill="none" id="PO-UC25" style="stroke:#181818;stroke-width:1.0;"/></g><!--link PO to UC26--><g id="link_PO_UC26"><path d="M117.96,3896.5 C134.29,3884.39 153.51,3872.34 173,3865 C302.08,3816.37 454.75,3797.9 580.78,3792.02 " fill="none" id="PO-UC26" style="stroke:#181818;stroke-width:1.0;"/></g><!--link PO to UC27--><g id="link_PO_UC27"><path d="M118.67,3936 C208.6,3936 413.07,3936 580.39,3936 " fill="none" id="PO-UC27" style="stroke:#181818;stroke-width:1.0;"/></g><!--link PO to UC28--><g id="link_PO_UC28"><path d="M118.54,3975.29 C134.77,3987.1 153.78,3998.82 173,4006 C302.1,4054.26 454.59,4072.93 580.51,4079.13 " fill="none" id="PO-UC28" style="stroke:#181818;stroke-width:1.0;"/></g><!--link AG to UC5--><g id="link_AG_UC5"><path d="M72.75,1482.81 C74.4,1688.67 86.66,2626.52 173,2719 C249.04,2800.45 361.1,2834.56 471.41,2845.38 " fill="none" id="AG-UC5" style="stroke:#181818;stroke-width:1.0;"/></g><!--link AG to UC6--><g id="link_AG_UC6"><path d="M72.97,1403.18 C75.66,1204.48 92.13,326.25 173,239 C234.38,172.78 319.4,137 408.05,119.29 " fill="none" id="AG-UC6" style="stroke:#181818;stroke-width:1.0;"/></g><!--link AG to UC7--><g id="link_AG_UC7"><path d="M73.72,1403.47 C79.5,1227.78 106.69,523.37 173,453 C233.25,389.06 315.54,353.56 401.59,335.28 " fill="none" id="AG-UC7" style="stroke:#181818;stroke-width:1.0;"/></g><!--link AG to UC8--><g id="link_AG_UC8"><path d="M74.76,1403.44 C83.85,1250.86 119.8,706.41 173,652 C245.66,577.7 348.39,543.29 451.25,529.94 " fill="none" id="AG-UC8" style="stroke:#181818;stroke-width:1.0;"/></g><!--link AG to UC9--><g id="link_AG_UC9"><path d="M73.91,1403.17 C78.85,1287.69 99.3,956.32 173,883 C224.26,832 289.54,798.98 359.02,778.22 " fill="none" id="AG-UC9" style="stroke:#181818;stroke-width:1.0;"/></g><!--link AG to UC10--><g id="link_AG_UC10"><path d="M77.13,1403.17 C88.41,1313.41 120.32,1099.51 173,1053 C273.86,963.95 419.52,938.3 548.39,936.8 " fill="none" id="AG-UC10" style="stroke:#181818;stroke-width:1.0;"/></g><!--link AG to UC11--><g id="link_AG_UC11"><path d="M73.68,1403.45 C77.92,1340.35 96.18,1218.05 173,1159 C330.44,1037.97 575.88,1056.07 719.06,1080.69 " fill="none" id="AG-UC11" style="stroke:#181818;stroke-width:1.0;"/></g><!--link AG to UC12--><g id="link_AG_UC12"><path d="M83.25,1403.15 C96.76,1361.5 124.32,1297.98 173,1267 C333.52,1164.84 562.28,1172.14 704.13,1190.1 " fill="none" id="AG-UC12" style="stroke:#181818;stroke-width:1.0;"/></g><!--link AG to UC13--><g id="link_AG_UC13"><path d="M122.07,1403.46 C137.55,1393.1 155.24,1383.12 173,1377 C333.04,1321.81 527.29,1311.89 663.56,1313.43 " fill="none" id="AG-UC13" style="stroke:#181818;stroke-width:1.0;"/></g><!--link AG to UC14--><g id="link_AG_UC14"><path d="M137.05,1443 C239.16,1443 442.83,1443 603.66,1443 " fill="none" id="AG-UC14" style="stroke:#181818;stroke-width:1.0;"/></g><!--link AG to UC15--><g id="link_AG_UC15"><path d="M122.06,1482.55 C137.54,1492.92 155.24,1502.89 173,1509 C336.46,1565.23 535.57,1574.06 672.17,1571.76 " fill="none" id="AG-UC15" style="stroke:#181818;stroke-width:1.0;"/></g><!--link AG to UC16--><g id="link_AG_UC16"><path d="M84.19,1482.75 C98.31,1523.25 126.19,1584.46 173,1616 C258.73,1673.77 364.96,1702.68 466.98,1715.84 " fill="none" id="AG-UC16" style="stroke:#181818;stroke-width:1.0;"/></g><!--link AG to UC17--><g id="link_AG_UC17"><path d="M78.28,1482.71 C91.34,1566.91 125.72,1759.27 173,1803 C216.11,1842.88 267.75,1872.11 322.9,1893.34 " fill="none" id="AG-UC17" style="stroke:#181818;stroke-width:1.0;"/></g><!--link AG to UC18--><g id="link_AG_UC18"><path d="M73.09,1482.61 C75.78,1606.04 90.7,1980.33 173,2062 C243.52,2131.98 340.76,2166.56 438.95,2181.59 " fill="none" id="AG-UC18" style="stroke:#181818;stroke-width:1.0;"/></g><!--link AG to UC19--><g id="link_AG_UC19"><path d="M74.69,1482.65 C83.68,1638.88 119.79,2206.26 173,2265 C204.06,2299.29 241.2,2326.54 281.8,2348.09 " fill="none" id="AG-UC19" style="stroke:#181818;stroke-width:1.0;"/></g><!--link AG to UC20--><g id="link_AG_UC20"><path d="M73.17,1482.8 C76.77,1672.74 96.5,2481.11 173,2560 C280.95,2671.33 457.32,2687.89 600.67,2678.47 " fill="none" id="AG-UC20" style="stroke:#181818;stroke-width:1.0;"/></g><!--link AG to UC21--><g id="link_AG_UC21"><path d="M72.24,1482.52 C71.12,1706.31 70.86,2808.13 173,2914 C297.08,3042.61 513.04,3040.78 664.13,3019.31 " fill="none" id="AG-UC21" style="stroke:#181818;stroke-width:1.0;"/></g><!--link PO to UC29--><g id="link_PO_UC29"><path d="M79.77,3975.8 C90.87,4024.44 116.98,4105.38 173,4147 C247.96,4202.69 341.08,4233.35 433.54,4249.2 " fill="none" id="PO-UC29" style="stroke:#181818;stroke-width:1.0;"/></g><!--link PO to UC30--><g id="link_PO_UC30"><path d="M76.51,3975.61 C86.79,4068.91 117.3,4298.32 173,4348 C277.8,4441.46 431.9,4464.9 564.9,4463.74 " fill="none" id="PO-UC30" style="stroke:#181818;stroke-width:1.0;"/></g><!--link PO to UC31--><g id="link_PO_UC31"><path d="M73.39,3975.63 C76.93,4093.81 93.97,4440.08 173,4513 C313.07,4642.24 548.08,4629.87 696.74,4604.98 " fill="none" id="PO-UC31" style="stroke:#181818;stroke-width:1.0;"/></g><!--SRC=[hLTTZ-ic47tFhq3RbxtIRXkShytZRIjLbLhTbQhx0mYUsAWOV04dYgh-zmxu8yR1JLhjliq6pZdC3CUCXACZJXCZYjAHN1ZWJcYrM33kj25FdmiZU2DTOvWalpF52Z1FX5do-HVoNM7WqYzyDpflk2DVpgfRyVubh004ywXC5H8cW4V6XHJkGbXTF_sr8FZNME3CuiAlV_puyvAIL_8h4Sg1ohrCRe0v80oL1ftCN8W-afmvzaCXjRNuZ-y3-zUVQ08lc-3bS0AfQ-9A80Oa2vYIL3e7IPwbBWJ7KFfLdthSB86x2hXdfbmQ2gaEWBmMq-047Y4dptLviGduLG9-VONtH-tXgbeR3tKqkiASI2WOln1xiGwg5r8RVH8v_YmK_cXhJ5rkIm3NCwqJJ9lHGJJvK-bpED2tnkjs8TbrMsbBIcPEO5tFK8WJAE8buSbVo16x0XWl-_KlurLEL13AO4vCzdes2JtRj1xLL0SmdHhNzgpl9cn5wvj92WZrdLVbBZNu_UscI5olo__iXVRwjWbzktlwT0qcz88bd1dZTUd6nNJO5L9Me5n2tx3_Vlvs2NrlauOV57PLkUQDd8KhiLqDj0dadMfazUlP-DvsaiEAkxBU4hBszz8MIS0uoicjzhxa_qNiN9dtjthfCfN6SycmaBPD9pCSx_arXm9hNRISenQubokwJ93JA5a62e6NplWxhSz25LVy0ILXVJIRGpa3v6cOXDFHrHnCvmPff8IfqVKSqanv-IIR0tZ2n-Xc7hnHQOq9-w7RITtrmR6knoGYNWq4RxUM4eteQiUTyqWzljQs1Yx0th_CDE4sD7QRJWmRfDmaBks5GH7p1of164oE5-NmjzxcWy0R9-8QlpSANOhOvk0_P1mUE4R2bEXRwXZZdCwOfbPpQVqVRaaJlaJtz-lzhzrf7tOYBv3B9joyO21ue50KRl0zyYm62pn8-FH23fTvztlWh0bFovPpLQYqSgMyZ2tCQHHkHz_qaFvxjDcDc_tslepTpFFbklBKuvTIzoxppoIkiT5grzo-msW2FNQv78v2-UVYiL7jUp6yDfqtRiIrMDBmTR6YQdnPi1PCZS_TlgNyMcVy_JO3UPOWNysyBfFys0Zwt7uyHeIrH045AD_6U7fVTbnmvU-bOY6kEK8qhwZB7MiS9jJvfoKMqTzQlE4Mya7wAY5zFIDzB1njOIGz28EJxctv63uy0yawGRBv699i8DaaIBOVGx8QIBO9ajt7aAm7abs2vErZI3O3ISBnClhGvDBKUJkqz2EHTwh90EFjG8On4daLd17hMuC3fN_Osh01cR61iNTHzI0gPKsZMzmpXxadDUXCXg47vfvLuf6LJIQuqNmPPo0QDNj0kWY8EF6-lWwJPnzbKRIAedMySh8ntfd5MxF9taqSRkDm5uTj9-0C7y9D56sZQ1T5yRvz57Llro6aSPZ5uIeErt4OAwAn91fheh4e6glAObNJ5E_ZuYpZi5syMFpz3m00]--></g></svg>